<svg xmlns="http://www.w3.org/2000/svg" viewBox="0 0 140.7 34.28"><defs><style>.cls-1{fill:#7ab3d4;}</style></defs><g id="圖層_2" data-name="圖層 2"><g id="圖層_1-2" data-name="圖層 1"><path class="cls-1" d="M13.32,31.83V21.29H1.55A1.46,1.46,0,0,1,0,19.63,1.43,1.43,0,0,1,1.55,18H13.32V5.23H3.17A1.43,1.43,0,0,1,1.66,3.61,1.43,1.43,0,0,1,3.17,2H29.05a1.42,1.42,0,0,1,1.51,1.62,1.43,1.43,0,0,1-1.51,1.62H18.75V18H30.63a1.43,1.43,0,0,1,1.55,1.62,1.46,1.46,0,0,1-1.55,1.66H18.75V31.83c0,1.59-.93,2.45-2.7,2.45S13.32,33.42,13.32,31.83ZM6.91,15.17A59.71,59.71,0,0,0,4.1,8a1.31,1.31,0,0,1,.44-1.84,1.44,1.44,0,0,1,1.87.4,36.78,36.78,0,0,1,4.82,6.55c1,1.69.5,3-1.08,3.71A2.17,2.17,0,0,1,6.91,15.17Zm13.36.07a43.48,43.48,0,0,0,2.84-7.49,2.17,2.17,0,0,1,3.2-1.62,2.16,2.16,0,0,1,1.26,3.31,26.79,26.79,0,0,1-5,7.35,1.38,1.38,0,0,1-1.94.21A1.22,1.22,0,0,1,20.27,15.24Z"/><path class="cls-1" d="M66.13,17.18a2.42,2.42,0,0,1-3.89-1c-.36-.72-.76-1.48-1.22-2.23A153.72,153.72,0,0,1,39.6,16.75c-2.12.15-3.06-.86-3.06-2.73s.86-2.67,3-2.56c.83,0,1.66.07,2.45.07a55.84,55.84,0,0,0,5.69-9.72,2.81,2.81,0,0,1,4-1.47c2,.86,2.27,2.37,1.15,4.06a41,41,0,0,1-6.55,7.17c4.43,0,8.71-.15,13.07-.43C58.5,10,57.67,8.8,56.84,7.72a1.41,1.41,0,0,1,.11-2,1.57,1.57,0,0,1,2,0,40.65,40.65,0,0,1,7.7,7.31A2.59,2.59,0,0,1,66.13,17.18Zm-1.95,3.31V31.76c0,1.66-.9,2.34-2.59,2.34s-2.66-.68-2.66-2.34v-.39H45.14v.35c0,1.7-1,2.34-2.63,2.34s-2.62-.64-2.62-2.34V20.49a2,2,0,0,1,2.19-2.19H62A2,2,0,0,1,64.18,20.49Zm-5.25,7.92V21.65a.42.42,0,0,0-.43-.44H45.57a.42.42,0,0,0-.43.44v6.76Z"/><path class="cls-1" d="M82.91,19.31V32c0,1.36-.87,2.12-2.41,2.12s-2.42-.76-2.42-2.12V22.11l-2.19,1.08c-1.62.8-2.92.29-3.46-1.29s.07-2.63,1.87-3.06c1.34-.33,2.6-.72,3.78-1.12V11H76.25a22.24,22.24,0,0,1-2,5.58,1.13,1.13,0,0,1-1.52.57A1.22,1.22,0,0,1,72,15.56a49.51,49.51,0,0,0,1.15-11c0-1.54.79-2.27,2.16-2.19s2.13.93,1.94,2.62a27.93,27.93,0,0,1-.43,3.28h1.26V2.39C78.08,1,79,.27,80.5.27s2.41.75,2.41,2.12V8.22h2.41a1.25,1.25,0,0,1,1.37,1.37A1.26,1.26,0,0,1,85.32,11H82.91v4.93c.46-.22.93-.4,1.4-.61.68-.29,1.3-.22,1.58.32a1.21,1.21,0,0,1-.25,1.58A20.92,20.92,0,0,1,82.91,19.31Zm21.23.43a1.32,1.32,0,0,1-1.47,1.44h-2v9c0,3.92-4.36,5.14-9.76,2.3A1.16,1.16,0,0,1,90.21,31c.18-.65.65-.86,1.41-.75,3.42.46,4,.14,4-1.26V21.18h-9.9a1.31,1.31,0,0,1-1.44-1.48,1.29,1.29,0,0,1,1.44-1.44h9.9v-1c0-1.48.9-2.27,2.52-2.27s2.52.79,2.52,2.27v1h2A1.31,1.31,0,0,1,104.14,19.74ZM85.68,6.35a1.31,1.31,0,0,1,1.44-1.44h4.57V2.5c0-1.48.9-2.27,2.56-2.27S96.76,1,96.76,2.5V4.91h4.29a1.32,1.32,0,0,1,1.47,1.44,1.33,1.33,0,0,1-1.47,1.44H96.76v3.85h5.84A1.28,1.28,0,0,1,104,13.08a1.28,1.28,0,0,1-1.44,1.44H85.75a1.29,1.29,0,0,1-1.44-1.44,1.29,1.29,0,0,1,1.44-1.44h5.94V7.79H87.12A1.32,1.32,0,0,1,85.68,6.35Zm3.38,21.38a41.8,41.8,0,0,0-2.41-4,1.16,1.16,0,0,1,.07-1.58A1.2,1.2,0,0,1,88.31,22a19.06,19.06,0,0,1,4,3.24c1.12,1.15,1.15,2.38-.07,3.28S89.93,29.24,89.06,27.73Z"/><path class="cls-1" d="M134.71,33c-5.94.18-11,.22-16,0-5.76-.26-7-1.23-7-6.05v-12a20.8,20.8,0,0,1-2,1.33,1.3,1.3,0,0,1-1.91-.36,1.35,1.35,0,0,1,.4-1.91,30.64,30.64,0,0,0,8.09-12.31C117,.12,118.47-.31,120.09.34s1.88,2,1.16,3.6h4.93a3.48,3.48,0,0,1,3.88-.47c1.37.68,1.95,2.12.8,3.92a17.28,17.28,0,0,1-2.56,3.1h6.12a2,2,0,0,1,2.23,2.19V20a2,2,0,0,1-2.27,2.2H116.85v3.2c0,2.7.44,3,3.64,3.14,4.18.21,9.47.18,13.5,0,3.13-.15,3.49-.62,3.49-4.79,0-.94.47-1.44,1.22-1.44a1.36,1.36,0,0,1,1.48,1.22C141.58,31.72,140.25,32.84,134.71,33ZM125.53,7h-6a31.81,31.81,0,0,1-2.77,3.53h7.63a17.56,17.56,0,0,0,1.48-3A.35.35,0,0,0,125.53,7ZM122,13.44h-4.71a.42.42,0,0,0-.44.43v5.29H122Zm9.43,0h-4.6v5.72h4.46c.43,0,.57-.14.57-.54V13.87A.41.41,0,0,0,131.43,13.44Z"/></g></g></svg>