<svg xmlns="http://www.w3.org/2000/svg" viewBox="0 0 137.26 34.23"><defs><style>.cls-1{fill:#ca724b;}</style></defs><g id="圖層_2" data-name="圖層 2"><g id="圖層_1-2" data-name="圖層 1"><path class="cls-1" d="M14.47,20a1.15,1.15,0,0,1-.79,1.62,1.07,1.07,0,0,1-1.55-.9s0-.07,0-.11A28.33,28.33,0,0,1,6.3,21.85a1.28,1.28,0,0,1-1.55-1.26A1.26,1.26,0,0,1,6.16,19h.57A21.35,21.35,0,0,0,8.67,17a13.32,13.32,0,0,1-2.26.54A1.12,1.12,0,0,1,5,16.38a1.15,1.15,0,0,1,1.29-1.44,25,25,0,0,0,1.23-3l.1-.29h-3V32.18c0,1.33-.76,2-2.24,2s-2.3-.69-2.3-2V4.07a2,2,0,0,1,2.2-2.2h9.46a2,2,0,0,1,2.23,2.2v5.4a2,2,0,0,1-2.23,2.19H10.29A1.55,1.55,0,0,1,10,13.25c-.39.54-.79,1.11-1.22,1.65l1.62-.11c.32-.43.57-.82.82-1.22a1.42,1.42,0,0,1,2.13-.47,1.34,1.34,0,0,1,.36,2.13A20.42,20.42,0,0,1,9.79,19c.61,0,1.22-.11,1.84-.14a1.8,1.8,0,0,1-.15-.4.94.94,0,0,1,1.69-.79A11.82,11.82,0,0,1,14.47,20ZM4.54,5.69H9.36V4.82a.41.41,0,0,0-.43-.43H5a.41.41,0,0,0-.43.43Zm0,3.45H8.93a.41.41,0,0,0,.43-.43V7.77H4.54ZM14,23.47v2.05c0,4.43-1.69,7.2-7,8.35a1,1,0,0,1-1.4-.68,1,1,0,0,1,.64-1.37,6.34,6.34,0,0,0,3.53-2.66H8c-1.51,0-2.2-.62-2.2-2.13V23.79c0-1,.58-1.47,1.62-1.47S9,22.82,9,23.79v2.49a.41.41,0,0,0,.43.43h1.12c0-.4.07-.83.07-1.26v-2c0-1,.65-1.58,1.77-1.58A1.47,1.47,0,0,1,14,23.47ZM29.23,4.07V30.31c0,3.6-3.71,4.43-8,2.81a1.18,1.18,0,0,1-.83-1.59c.15-.68.65-1,1.44-.86,2.63.36,2.88,0,2.88-1.41V11.7H19.94a1.74,1.74,0,0,1-.29,1.55,19.83,19.83,0,0,1-1.29,1.8l1.47-.11a11.77,11.77,0,0,0,.83-1.3A1.37,1.37,0,0,1,22.71,13a1.31,1.31,0,0,1,.51,2.09,17.7,17.7,0,0,1-3.6,3.81,17.84,17.84,0,0,0,2-.1c0-.11-.11-.26-.15-.4a.86.86,0,0,1,.47-1.19.93.93,0,0,1,1.19.4A10.47,10.47,0,0,1,24.41,20a1.13,1.13,0,0,1-.76,1.62,1.06,1.06,0,0,1-1.55-.9l0-.15a25.44,25.44,0,0,1-5.48,1.12c-.93.11-1.54-.22-1.65-1.15A1.23,1.23,0,0,1,16.27,19h.5c.51-.54,1-1.15,1.48-1.73a17.4,17.4,0,0,1-2.41.47,1.19,1.19,0,0,1-1.41-1.22c-.07-.94.29-1.44,1.26-1.44h.15A26.72,26.72,0,0,0,17.13,12l.11-.25a2,2,0,0,1-1.87-2.23V4.07a2,2,0,0,1,2.2-2.2H27A2,2,0,0,1,29.23,4.07ZM18.68,29.12v3.06A1.51,1.51,0,0,1,17,33.84c-1.15,0-1.8-.58-1.8-1.66V23.61c0-1.08.65-1.65,1.8-1.65s1.73.57,1.73,1.65v3.06h1.19c.4,0,.5-.25.5-.61v-2.3a1.36,1.36,0,0,1,1.52-1.51,1.41,1.41,0,0,1,1.61,1.51v3.13c0,1.47-.61,2.23-2.23,2.23Zm6-24.3a.41.41,0,0,0-.43-.43H20.34a.41.41,0,0,0-.43.43v.87h4.78Zm0,2.95H19.91v.94a.41.41,0,0,0,.43.43h4.35Z"/><path class="cls-1" d="M66.85,16.2A2.36,2.36,0,0,1,63,16.13a25.12,25.12,0,0,1-4.57-8.82A27.38,27.38,0,0,1,51.33,17a1.17,1.17,0,0,1-1.8,0l0,0c-.15,5.22-.4,10.48-.72,13.11-.43,4.06-4.25,5-8.64,2.7a1.23,1.23,0,0,1-.65-1.55A1.18,1.18,0,0,1,41,30.38c2.66.36,3.13.11,3.27-1.33.29-2.59.54-7.63.58-11.63a.39.39,0,0,0-.43-.43H42.55c-.61,7.81-2.34,12.78-5.94,16.59a1.17,1.17,0,0,1-1.73.22,1.27,1.27,0,0,1-.18-1.73c2.6-4.71,3.21-10.33,3.24-22.06h-2A1.32,1.32,0,0,1,34.45,8.6a1.29,1.29,0,0,1,1.44-1.37H40v-5C40,.86,41,0,42.7,0s2.66.86,2.66,2.23v5h4.17A1.28,1.28,0,0,1,50.94,8.6,1.31,1.31,0,0,1,49.53,10H42.84l-.11,4.35H47.3a2,2,0,0,1,2,1.05c0-.08.11-.15.18-.26C52,12,54,7,54.86,2.23A2.36,2.36,0,0,1,58,.14c1.55.29,2.27,1.41,1.88,3.14-.08.25-.11.5-.18.72a34.45,34.45,0,0,0,6.65,8.38C67.75,13.57,68,14.87,66.85,16.2Zm-3,16.92c-1.15,1.33-2.63,1.4-4-.08A75.54,75.54,0,0,0,52.09,26a1.28,1.28,0,0,1-.4-1.72c.33-.62.9-.73,1.62-.47a41.27,41.27,0,0,1,9.87,5.43C64.8,30.34,65,31.82,63.86,33.12ZM54.5,17.75a1.21,1.21,0,0,1-.32-1.7,1.23,1.23,0,0,1,1.62-.43,26.7,26.7,0,0,1,6.58,3.71c1.37,1,1.62,2.34.54,3.6s-2.48,1.15-3.63-.22A63,63,0,0,0,54.5,17.75Z"/><path class="cls-1" d="M97.59,34.05c-2.59-.57-4.57-2.52-6-5.47A24,24,0,0,1,85,32.47a1.26,1.26,0,0,1-1.73-.72c-.25-.69-.07-1.19.72-1.66A30.15,30.15,0,0,0,90.14,25a50.62,50.62,0,0,1-1.91-11.77h-5.4v4.06c1.08-.39,2.09-.79,3.06-1.18a1.17,1.17,0,0,1,1.66.5,1.14,1.14,0,0,1-.36,1.55A41.54,41.54,0,0,1,82.83,21V29.8c0,4.36-4.64,5.62-10.29,3a1.22,1.22,0,0,1-.65-1.55c.15-.65.61-.9,1.37-.83,4.28.47,4.75.14,4.75-1.58V23.36c-1.29.54-2.59,1-3.85,1.44-1.62.5-2.7,0-3.1-1.58s.11-2.56,1.88-3,3.38-.86,5.07-1.37V13.25H72.58a1.4,1.4,0,0,1-1.48-1.59,1.39,1.39,0,0,1,1.48-1.58H78V6.88a42.93,42.93,0,0,1-4.57.39,1.12,1.12,0,0,1-1.33-1.11,1.16,1.16,0,0,1,1-1.41A37.2,37.2,0,0,0,83.63.9a2.24,2.24,0,0,1,3.31,1A2.12,2.12,0,0,1,85.64,5a21.89,21.89,0,0,1-2.81.86v4.18h5.26C88,7.27,88,4.9,88,2.59,88.05,1,88.88.4,90.43.4s2.38.64,2.34,2.19c0,2.38,0,4.86.14,7.49h7.74a1.38,1.38,0,0,1,1.48,1.58c0,1.05-.51,1.59-1.48,1.59H93.06c.18,2.55.39,4.86.72,6.84a28,28,0,0,0,2.16-4.43A2.13,2.13,0,0,1,99,14.58a2.14,2.14,0,0,1,1,3.2,37.7,37.7,0,0,1-5,7.38,8.07,8.07,0,0,0,2.7,3.89c1,.72,1.37-.18,1.44-4.57,0-.87.43-1.33,1.12-1.37s1.15.36,1.33,1.29C103.1,32,101.59,35,97.59,34.05ZM93.89,3a1.2,1.2,0,0,1,.25-1.76,1.32,1.32,0,0,1,1.73,0,23.78,23.78,0,0,1,4.24,4,2.09,2.09,0,0,1-.43,3.42,1.92,1.92,0,0,1-3.06-.83C95.76,6.12,94.79,4.54,93.89,3Z"/><path class="cls-1" d="M115.85,3.31a31.4,31.4,0,0,1-1.62,5.87v23c0,1.37-.79,2-2.34,2s-2.38-.68-2.38-2V18q-.65.87-1.29,1.62a1.14,1.14,0,0,1-1.7.22,1.27,1.27,0,0,1-.18-1.73,51.88,51.88,0,0,0,4.72-15.87,2.2,2.2,0,0,1,2.73-2C115.38.43,116.17,1.26,115.85,3.31Zm10.22,1.08V14.83a2,2,0,0,1-2.23,2.23h-3.1V32.22c0,1.29-.86,2-2.3,2s-2.27-.69-2.27-2V4.39A2,2,0,0,1,118.4,2.2h5.44A2,2,0,0,1,126.07,4.39Zm-3.92.87a.42.42,0,0,0-.44-.44h-.86a.42.42,0,0,0-.43.44V8.35h1.73Zm0,5.65h-1.73v3.56h1.29a.42.42,0,0,0,.44-.43Zm15.11-6.52V29.91c0,4.25-3.85,5.26-9.46,3.13A1.21,1.21,0,0,1,127,31.5c.11-.69.58-.94,1.37-.87,3.63.4,4.28.11,4.28-1.73V17.06h-3.16a2,2,0,0,1-2.2-2.23V4.39a2,2,0,0,1,2.2-2.19h5.54A2,2,0,0,1,137.26,4.39Zm-4.32.87a.42.42,0,0,0-.43-.44h-.9a.42.42,0,0,0-.43.44V8.35h1.76Zm0,5.65h-1.76V14a.41.41,0,0,0,.43.43h1.33Z"/></g></g></svg>