<svg xmlns="http://www.w3.org/2000/svg" viewBox="0 0 292.94 70.73"><defs><style>.cls-1{fill:#ca724b;}</style></defs><g id="圖層_2" data-name="圖層 2"><g id="圖層_1-2" data-name="圖層 1"><path class="cls-1" d="M4.72,43.37c-1.57,1-3.15.75-4-.53a2.85,2.85,0,0,1,.3-4C8,31.67,12.9,22,16,10.82c1-4.05,4.2-5.25,7.88-4.05,3.52,1.27,4.2,4.05,2.85,8C23,25.52,14.4,36.92,4.72,43.37ZM62.77,60.69c2.32,3.45,1.72,6.6-1.73,8.63s-6.45.9-8.1-3.15c-.75-1.8-1.65-3.68-2.55-5.63a160.6,160.6,0,0,1-38.32,8.33c-4.42.45-6.75-1.65-6.9-5.7S7,57,11.7,57.09h4.35A119.22,119.22,0,0,0,25.8,30.84c1.2-4.35,3.9-5.7,7.72-4.42s5,4,3.23,8.1a104.2,104.2,0,0,1-13.2,22.42C31.8,56.64,40,56,47.47,55c-1.73-3.15-3.52-6.15-5.1-8.77a2.57,2.57,0,0,1,.6-3.75c1.2-1,2.48-.75,3.82.37A91,91,0,0,1,62.77,60.69Zm4-20c-2.33,3.22-5.93,3.75-9.38.6C50.32,34.67,44.54,21.92,42.89,11c-.07-.52-.22-.82-.82-.82H32.55c-2.25,0-3.45-1.28-3.45-3.53a3.12,3.12,0,0,1,3.45-3.45H43.49a4.62,4.62,0,0,1,4.88,3.9A42.14,42.14,0,0,0,64.79,31.59C68.24,34.14,69.07,37.52,66.82,40.67Z"/><path class="cls-1" d="M133.12,43.82a9.76,9.76,0,0,1,.15,1.5v17.4H139a3.11,3.11,0,0,1,0,6.22H79.35a2.77,2.77,0,0,1-3.08-3.07c0-2,1-3.15,3.08-3.15H85.2V45.32A6.33,6.33,0,0,1,85.35,44c-2,.9-4,1.73-6.15,2.48-1.58.52-2.85.22-3.45-1.13S75.6,42.92,77.1,42A56.59,56.59,0,0,0,94.42,26.94,6.82,6.82,0,0,1,97,24.77H81.22a2.88,2.88,0,0,1-3.15-3.23c0-2,1.13-3.07,3.15-3.07H97.5a8.09,8.09,0,0,1-1.43-1.73A94.16,94.16,0,0,0,87.6,5.19a2.55,2.55,0,0,1,0-3.52,2.53,2.53,0,0,1,3.45-.37,57.45,57.45,0,0,1,12.45,9.14c2.77,2.63,2.85,5.4.15,7.65l-.45.38h11a2.36,2.36,0,0,1,.45-2.85,57.21,57.21,0,0,0,6.75-12.23c1.27-3,4-4.12,7.27-2.47s3.45,4.43,1.35,7.42a40.14,40.14,0,0,1-10.65,10.13h17.48c2,0,3.15,1.05,3.15,3.07a2.88,2.88,0,0,1-3.15,3.23h-36a5.68,5.68,0,0,1,1.28.75c2.77,2,2.77,4.72.07,7.5A47,47,0,0,1,91.8,40.74h36.89a5.67,5.67,0,0,1,1.2.08,120.81,120.81,0,0,0-14.62-11.1,2.32,2.32,0,0,1-1-3.23,2.53,2.53,0,0,1,3.38-1.2,97.26,97.26,0,0,1,22.72,11.93c2.92,2.17,3.6,5,1.72,7.5-2.17,2.92-5.1,3.22-7.72.37A16.36,16.36,0,0,1,133.12,43.82ZM95,62.72h4V46.52H95.92a.87.87,0,0,0-.9.9Zm12.08-16.2v16.2h4.27V46.52Zm16.42,16.2V47.42a.87.87,0,0,0-.9-.9h-3.3v16.2Z"/><path class="cls-1" d="M208.79,70.37C202.87,69,198.22,65,194.69,58.89a55.05,55.05,0,0,1-21.52,10.88c-1.72.45-2.77-.08-3.3-1.5a2.55,2.55,0,0,1,1.58-3.45,61.07,61.07,0,0,0,19.72-13.88c-2.78-8.1-4.35-18.37-4.8-30.37h-19.2a.87.87,0,0,0-.9.9v8.25H179.1c3,0,4.72,1.57,4.64,4.87A171.49,171.49,0,0,1,183,51.77c-.67,6.15-7.42,9-16.49,4.72a2.56,2.56,0,0,1-1.35-3.15c.3-1.35,1.2-2,2.92-1.72,4.2.52,5.25.3,5.48-2,.37-3.45.45-7.57.52-12.9a.83.83,0,0,0-.9-.9h-6.9c-.22,15-2.85,27-11.32,34.05-1.35,1-2.7,1.28-4,.08-1.13-1-1.13-2.25-.3-3.75,4.05-7.43,5.25-13.73,5.25-32.85V19.52c0-3.23,1.87-5.4,5.17-5.4h25.12c0-3.08-.07-6.3-.07-9.38s2-4.57,5.25-4.57,5,1.35,5,4.65v9.3h9.9A5.49,5.49,0,0,1,205,12.54c-1.88-3-3.9-6.07-5.55-8.4a2.42,2.42,0,0,1,.3-3.52c1-.9,2.25-.75,3.52,0a44,44,0,0,1,8.48,6.67c2.32,2.25,2.25,5-.15,6.83h3.22a2.86,2.86,0,0,1,3.08,3.15c0,2-1.13,3.3-3.08,3.3H196.57a133.22,133.22,0,0,0,2.25,19.5,68.34,68.34,0,0,0,5.32-12.6c1.05-3.15,3.83-4.2,7-2.93s4,3.53,2.62,7.05a66.67,66.67,0,0,1-11.47,19.8c1.87,4,4.12,6.75,6.82,7.88,1.95.82,2.93-.45,2.93-9.68a2.47,2.47,0,0,1,2.4-2.77c1.5,0,2.62.67,3,2.77C220.27,67.59,216.52,72.17,208.79,70.37Z"/><path class="cls-1" d="M292.34,64.14c-1.65,3.53-4.65,3.9-7.8,2.25a53.94,53.94,0,0,1-19.94-17V65.72c0,3.3-1.88,5-5.48,5s-5.48-1.65-5.48-5V50.34a54.47,54.47,0,0,1-24.44,17c-1.73.6-3.15.22-3.75-1.35a2.7,2.7,0,0,1,1.5-3.75c8.25-4.5,15.6-11,19.72-18.15H230.25A2.81,2.81,0,0,1,227.17,41a2.75,2.75,0,0,1,3.08-3h23.39V33.39H238.87c-3,0-4.65-1.65-4.65-4.65V8.34c0-2.92,1.65-4.57,4.65-4.57h41c2.93,0,4.58,1.65,4.58,4.57v20.4c0,3-1.65,4.65-4.58,4.65H264.6V38h23.47a2.74,2.74,0,0,1,3.07,3,2.8,2.8,0,0,1-3.07,3.08H267.74a68.76,68.76,0,0,0,21.6,12.75C292.79,58.22,293.69,61.22,292.34,64.14ZM245,15.62h8.85V9.54h-8a.87.87,0,0,0-.9.9Zm.9,11.92h8v-6.3H245v5.4A.86.86,0,0,0,245.85,27.54Zm18.67-11.92h9.22V10.44a.87.87,0,0,0-.9-.9h-8.32Zm0,11.92h8.32a.86.86,0,0,0,.9-.9v-5.4h-9.22Z"/></g></g></svg>