<svg xmlns="http://www.w3.org/2000/svg" viewBox="0 0 285.97 71.32"><defs><style>.cls-1{fill:#ca724b;}</style></defs><g id="圖層_2" data-name="圖層 2"><g id="圖層_1-2" data-name="圖層 1"><path class="cls-1" d="M30.15,41.62A2.39,2.39,0,0,1,28.5,45c-1.73.6-2.85-.15-3.23-1.88,0-.07-.07-.15-.07-.22a59.54,59.54,0,0,1-12.08,2.62A2.66,2.66,0,0,1,9.9,42.9c-.23-2,.75-3.38,2.92-3.3H14a43.82,43.82,0,0,0,4.05-4.28,30.4,30.4,0,0,1-4.72,1.13c-1.8.3-2.78-.6-3-2.33-.23-1.95.75-3,2.7-3A52.53,52.53,0,0,0,15.6,24.9l.22-.6H9.45V67.05c0,2.77-1.58,4.2-4.65,4.2S0,69.82,0,67.05V8.47c0-3,1.65-4.57,4.57-4.57H24.3c3,0,4.65,1.58,4.65,4.57V19.72c0,3-1.65,4.58-4.65,4.58H21.45c.45.9.22,2-.68,3.3-.82,1.12-1.65,2.32-2.55,3.45l3.38-.23c.67-.9,1.2-1.72,1.72-2.55a2.94,2.94,0,0,1,4.43-1,2.78,2.78,0,0,1,.75,4.42,42.14,42.14,0,0,1-8.1,7.8c1.27-.07,2.55-.22,3.82-.3a3.88,3.88,0,0,1-.3-.82,1.89,1.89,0,0,1,1-2.48,1.91,1.91,0,0,1,2.48.83A25,25,0,0,1,30.15,41.62ZM9.45,11.85H19.5v-1.8a.87.87,0,0,0-.9-.9H10.35a.86.86,0,0,0-.9.9Zm0,7.2H18.6a.87.87,0,0,0,.9-.9V16.2h-10ZM29.25,48.9v4.27c0,9.23-3.53,15-14.63,17.4a2.2,2.2,0,0,1-2.92-1.42,2.06,2.06,0,0,1,1.35-2.85c3.67-1.43,6-3.15,7.35-5.55H16.72c-3.15,0-4.57-1.28-4.57-4.43V49.57c0-2,1.2-3.07,3.37-3.07s3.15,1,3.15,3.07v5.18a.87.87,0,0,0,.9.9H21.9c.07-.83.15-1.73.15-2.63V48.9c0-2.1,1.35-3.3,3.67-3.3S29.25,46.8,29.25,48.9ZM60.9,8.47V63.15c0,7.5-7.73,9.22-16.73,5.85-1.72-.68-2.17-1.8-1.72-3.3.3-1.43,1.35-2,3-1.8,5.47.75,6,0,6-2.93V24.37h-9.9A3.63,3.63,0,0,1,41,27.6a46.09,46.09,0,0,1-2.7,3.75l3.07-.23a27.15,27.15,0,0,0,1.73-2.7c1.05-1.72,2.55-2.32,4.27-1.27,1.88,1.12,2.25,2.62,1,4.35a37.41,37.41,0,0,1-7.5,8A36.08,36.08,0,0,0,45,39.22a6.87,6.87,0,0,1-.3-.82,1.79,1.79,0,0,1,1-2.48,1.91,1.91,0,0,1,2.48.83,21.41,21.41,0,0,1,2.7,4.87A2.35,2.35,0,0,1,49.27,45c-1.8.6-2.85-.15-3.22-1.88l-.08-.3a52.78,52.78,0,0,1-11.4,2.33c-2,.22-3.22-.45-3.45-2.4s.68-3.23,2.78-3.23H35c1-1.12,2.1-2.4,3.07-3.6a38.07,38.07,0,0,1-5,1c-1.73.22-2.78-.83-2.93-2.55-.15-2,.6-3,2.63-3H33a53.71,53.71,0,0,0,2.7-6.45l.22-.53c-2.47-.3-3.9-1.87-3.9-4.65V8.47c0-3,1.65-4.57,4.58-4.57H56.32C59.32,3.9,60.9,5.48,60.9,8.47Zm-22,52.2v6.38c0,2.25-1.2,3.45-3.6,3.45s-3.75-1.2-3.75-3.45V49.2c0-2.25,1.35-3.45,3.75-3.45s3.6,1.2,3.6,3.45v6.37H41.4c.82,0,1.05-.52,1.05-1.27V49.5a2.81,2.81,0,0,1,3.15-3.15c2.17,0,3.37,1.12,3.37,3.15V56c0,3.08-1.27,4.65-4.65,4.65ZM51.45,10.05a.87.87,0,0,0-.9-.9H42.37a.87.87,0,0,0-.9.9v1.8h10Zm0,6.15h-10v1.95a.87.87,0,0,0,.9.9h9.08Z"/><path class="cls-1" d="M139.27,33.75c-2.17,2.62-5.47,2.62-8-.15-4.42-5.25-7.35-11.48-9.52-18.38-3.75,8.48-9.6,15.9-14.85,20.18-1.43,1.2-2.7,1.12-3.75,0l-.08-.08c-.3,10.88-.82,21.83-1.5,27.3-.9,8.48-8.85,10.35-18,5.63A2.56,2.56,0,0,1,82.27,65c.38-1.35,1.43-1.95,3.08-1.72,5.55.75,6.52.22,6.82-2.78.6-5.4,1.13-15.9,1.2-24.22a.83.83,0,0,0-.9-.9H88.65C87.37,51.67,83.77,62,76.27,70c-1.2,1.28-2.54,1.35-3.6.45s-1.12-2.17-.37-3.6C77.7,57,79,45.3,79.05,20.85H74.77a2.75,2.75,0,0,1-3-2.93,2.69,2.69,0,0,1,3-2.85h8.55V4.65C83.32,1.8,85.42,0,89,0S94.5,1.8,94.5,4.65V15.07h8.7a2.66,2.66,0,0,1,2.92,2.85,2.72,2.72,0,0,1-2.92,2.93h-14L89,29.92h9.53c2,0,3.45.75,4.12,2.18.08-.15.23-.3.38-.53,5.32-6.6,9.37-17,11.25-26.92.67-3.75,3.07-5,6.52-4.35,3.23.6,4.73,2.93,3.9,6.52-.15.53-.22,1.06-.37,1.5A71.72,71.72,0,0,0,138.22,25.8C141.15,28.27,141.6,31,139.27,33.75ZM133.05,69c-2.4,2.77-5.48,2.92-8.25-.15a153.8,153.8,0,0,0-16.28-14.78,2.66,2.66,0,0,1-.82-3.6c.67-1.27,1.87-1.5,3.37-1,5.93,2,14.55,6.82,20.55,11.32C135,63.22,135.37,66.3,133.05,69Zm-19.5-32a2.49,2.49,0,0,1-.68-3.52c.75-1.2,1.95-1.43,3.38-.9A55.75,55.75,0,0,1,130,40.27c2.85,2.18,3.38,4.88,1.13,7.5s-5.18,2.4-7.58-.45A133.12,133.12,0,0,0,113.55,37Z"/><path class="cls-1" d="M203.32,71c-5.4-1.2-9.52-5.25-12.6-11.4a49.85,49.85,0,0,1-13.57,8.1,2.61,2.61,0,0,1-3.6-1.5c-.53-1.43-.15-2.48,1.5-3.45A63.25,63.25,0,0,0,187.8,52.12a104,104,0,0,1-4-24.52H172.57v8.47c2.25-.82,4.35-1.65,6.38-2.47a2.43,2.43,0,0,1,3.45,1,2.36,2.36,0,0,1-.75,3.22,84.66,84.66,0,0,1-9.08,5.85V62.1c0,9.07-9.67,11.7-21.45,6.15-1.35-.6-1.65-1.73-1.35-3.23.3-1.35,1.28-1.87,2.85-1.72,8.93,1,9.9.3,9.9-3.3V48.67c-2.7,1.13-5.4,2.18-8,3-3.38,1-5.63-.07-6.45-3.3s.22-5.32,3.9-6.22c3.52-.9,7.05-1.8,10.57-2.85V27.6H151.2c-1.95,0-3.08-1.2-3.08-3.3s1.13-3.3,3.08-3.3h11.32V14.32a85.66,85.66,0,0,1-9.52.83,2.35,2.35,0,0,1-2.78-2.33A2.41,2.41,0,0,1,152.4,9.9a78.43,78.43,0,0,0,21.82-8c2.48-1.35,5.55-1,6.9,2s.53,5.48-2.7,6.6a46.35,46.35,0,0,1-5.85,1.8V21h11c-.15-5.85-.3-10.8-.22-15.6.15-3.22,1.87-4.57,5.1-4.57,3,.07,4.95,1.35,4.87,4.57,0,4.95.08,10.12.3,15.6H209.7c2,0,3.07,1.2,3.07,3.3s-1.05,3.3-3.07,3.3H193.87c.38,5.32.83,10.12,1.5,14.25a57.66,57.66,0,0,0,4.5-9.23c1.13-2.62,3.6-3.45,6.38-2.25s3.75,3.83,2.17,6.68a78.35,78.35,0,0,1-10.35,15.37c1.43,3.75,3.3,6.53,5.63,8.1,2.17,1.5,2.85-.37,3-9.52,0-1.8.9-2.78,2.32-2.85s2.4.75,2.78,2.7C214.8,66.67,211.65,72.82,203.32,71ZM195.6,6.3c-.9-1.5-.68-2.78.52-3.68a2.76,2.76,0,0,1,3.6,0,49.58,49.58,0,0,1,8.85,8.4c2.25,2.7,1.8,5.33-.9,7.13s-5.17.9-6.37-1.73C199.5,12.75,197.47,9.45,195.6,6.3Z"/><path class="cls-1" d="M241.35,6.9A64.69,64.69,0,0,1,238,19.12V67.05c0,2.85-1.65,4.27-4.87,4.27s-4.95-1.42-4.95-4.27V37.57q-1.35,1.8-2.7,3.38a2.37,2.37,0,0,1-3.53.45c-1.12-1-1.12-2.18-.37-3.6,4.42-8.55,7.95-20.25,9.82-33.07.45-2.93,2.33-4.65,5.7-4.2S242,2.62,241.35,6.9Zm21.3,2.25V30.9c0,3-1.65,4.65-4.65,4.65h-6.45V67.12c0,2.7-1.8,4.13-4.8,4.13S242,69.82,242,67.12v-58c0-3,1.65-4.57,4.65-4.57H258C261,4.58,262.65,6.15,262.65,9.15ZM254.47,11a.86.86,0,0,0-.9-.9h-1.8a.87.87,0,0,0-.9.9V17.4h3.6Zm0,11.77h-3.6v7.43h2.7a.87.87,0,0,0,.9-.9ZM286,9.15V62.32c0,8.85-8,10.95-19.72,6.53a2.55,2.55,0,0,1-1.58-3.23c.23-1.42,1.2-2,2.85-1.8,7.58.83,8.93.23,8.93-3.6V35.55h-6.6c-2.93,0-4.58-1.65-4.58-4.65V9.15c0-3,1.65-4.57,4.58-4.57H281.4C284.32,4.58,286,6.15,286,9.15ZM277,11a.86.86,0,0,0-.9-.9H274.2a.86.86,0,0,0-.9.9V17.4H277Zm0,11.77H273.3v6.53a.87.87,0,0,0,.9.9H277Z"/></g></g></svg>