<svg xmlns="http://www.w3.org/2000/svg" viewBox="0 0 140.61 33.95"><defs><style>.cls-1{fill:#ca724b;}</style></defs><g id="圖層_2" data-name="圖層 2"><g id="圖層_1-2" data-name="圖層 1"><path class="cls-1" d="M2.27,20.81a1.35,1.35,0,0,1-1.95-.25,1.35,1.35,0,0,1,.15-1.9A30.63,30.63,0,0,0,7.67,5.19c.5-1.94,2-2.52,3.78-1.94s2,1.94,1.36,3.81A29,29,0,0,1,2.27,20.81Zm27.86,8.32c1.11,1.66.82,3.17-.83,4.14s-3.1.43-3.89-1.51c-.36-.87-.79-1.77-1.22-2.7a77,77,0,0,1-18.4,4c-2.12.22-3.24-.79-3.31-2.73s.87-2.95,3.13-2.92H7.7a56.63,56.63,0,0,0,4.68-12.6c.58-2.08,1.87-2.73,3.71-2.12s2.41,1.94,1.55,3.89A50,50,0,0,1,11.3,27.33c4-.14,7.88-.47,11.48-.94-.82-1.51-1.69-2.95-2.44-4.21a1.23,1.23,0,0,1,.28-1.8,1.32,1.32,0,0,1,1.84.18A44,44,0,0,1,30.13,29.13Zm1.94-9.61c-1.12,1.55-2.84,1.8-4.5.29-3.42-3.17-6.19-9.29-7-14.51,0-.25-.11-.39-.4-.39H15.62A1.52,1.52,0,0,1,14,3.21a1.5,1.5,0,0,1,1.66-1.65h5.26a2.22,2.22,0,0,1,2.34,1.87A20.17,20.17,0,0,0,31.1,15.16C32.75,16.39,33.15,18,32.07,19.52Z"/><path class="cls-1" d="M63.9,21a5.33,5.33,0,0,1,.07.72V30.1H66.7a1.5,1.5,0,0,1,0,3H38.09a1.33,1.33,0,0,1-1.48-1.48,1.34,1.34,0,0,1,1.48-1.51h2.8V21.75a2.9,2.9,0,0,1,.08-.61c-1,.43-1.95.83-3,1.19-.75.25-1.36.1-1.65-.54A1.23,1.23,0,0,1,37,20.17a27.15,27.15,0,0,0,8.31-7.24,3.21,3.21,0,0,1,1.23-1H39a1.38,1.38,0,0,1-1.52-1.55A1.35,1.35,0,0,1,39,8.86H46.8A4.09,4.09,0,0,1,46.11,8a45.18,45.18,0,0,0-4.06-5.55,1.22,1.22,0,0,1,0-1.69A1.21,1.21,0,0,1,43.7.62a27.76,27.76,0,0,1,6,4.39C51,6.27,51,7.6,49.75,8.68l-.22.18h5.29A1.11,1.11,0,0,1,55,7.5a27.36,27.36,0,0,0,3.24-5.87A2.32,2.32,0,0,1,61.77.44c1.55.76,1.66,2.13.65,3.57a19.19,19.19,0,0,1-5.11,4.85H65.7a1.34,1.34,0,0,1,1.51,1.48,1.38,1.38,0,0,1-1.51,1.55H48.42a2.63,2.63,0,0,1,.61.36c1.33,1,1.33,2.27,0,3.6a22.49,22.49,0,0,1-5,3.71H61.77a3.51,3.51,0,0,1,.58,0,59.81,59.81,0,0,0-7-5.33,1.11,1.11,0,0,1-.51-1.54,1.2,1.2,0,0,1,1.62-.58,46.73,46.73,0,0,1,10.91,5.72c1.4,1.05,1.73,2.38.83,3.6a2.17,2.17,0,0,1-3.71.18A6.72,6.72,0,0,1,63.9,21ZM45.61,30.1h1.94V22.33H46a.41.41,0,0,0-.43.43Zm5.79-7.77V30.1h2.06V22.33Zm7.89,7.77V22.76a.41.41,0,0,0-.43-.43H57.27V30.1Z"/><path class="cls-1" d="M100.22,33.77c-2.84-.64-5.08-2.55-6.77-5.5a26.46,26.46,0,0,1-10.33,5.22c-.83.21-1.33,0-1.58-.72a1.23,1.23,0,0,1,.75-1.66,29.26,29.26,0,0,0,9.47-6.66,51.85,51.85,0,0,1-2.3-14.58H80.24a.41.41,0,0,0-.43.43v4H86A2,2,0,0,1,88.2,16.6c0,3.6-.15,5.94-.36,8.25-.33,2.95-3.57,4.32-7.92,2.26a1.23,1.23,0,0,1-.65-1.51c.14-.65.58-.93,1.4-.83,2,.26,2.52.15,2.63-1,.18-1.65.22-3.63.25-6.19a.39.39,0,0,0-.43-.43H79.81c-.11,7.2-1.37,13-5.44,16.34a1.36,1.36,0,0,1-1.94,0,1.32,1.32,0,0,1-.14-1.8c1.94-3.57,2.52-6.59,2.52-15.77V9.37a2.35,2.35,0,0,1,2.48-2.59H89.35c0-1.48,0-3,0-4.5s.94-2.2,2.52-2.2,2.41.65,2.41,2.23V6.78H99A2.7,2.7,0,0,1,98.38,6c-.9-1.44-1.87-2.91-2.66-4A1.17,1.17,0,0,1,95.86.3a1.36,1.36,0,0,1,1.7,0,20.76,20.76,0,0,1,4.06,3.2,2,2,0,0,1-.07,3.28h1.55a1.37,1.37,0,0,1,1.47,1.51,1.41,1.41,0,0,1-1.47,1.58H94.35a64.51,64.51,0,0,0,1.08,9.36A32.84,32.84,0,0,0,98,13.18a2.31,2.31,0,0,1,3.35-1.4c1.47.58,1.94,1.69,1.26,3.38a32.06,32.06,0,0,1-5.51,9.51c.9,1.9,2,3.24,3.27,3.78.94.39,1.41-.22,1.41-4.65a1.19,1.19,0,0,1,1.15-1.33c.72,0,1.26.32,1.44,1.33C105.73,32.44,103.93,34.64,100.22,33.77Z"/><path class="cls-1" d="M140.32,30.79c-.79,1.69-2.23,1.87-3.74,1.08A26.05,26.05,0,0,1,127,23.69v7.85c0,1.59-.9,2.38-2.62,2.38s-2.63-.79-2.63-2.38V24.16A26.07,26.07,0,0,1,110,32.33c-.82.29-1.51.11-1.8-.64a1.31,1.31,0,0,1,.72-1.8,24.5,24.5,0,0,0,9.47-8.71h-7.88A1.35,1.35,0,0,1,109,19.7a1.32,1.32,0,0,1,1.48-1.44h11.23V16h-7.09a2,2,0,0,1-2.23-2.23V4a2,2,0,0,1,2.23-2.2h19.69A2,2,0,0,1,136.54,4V13.8A2,2,0,0,1,134.35,16H127v2.23h11.27a1.32,1.32,0,0,1,1.48,1.44,1.35,1.35,0,0,1-1.48,1.48h-9.75a32.91,32.91,0,0,0,10.36,6.11A2.42,2.42,0,0,1,140.32,30.79ZM117.57,7.5h4.25V4.58H118a.42.42,0,0,0-.44.43Zm.44,5.72h3.81v-3h-4.25v2.59A.42.42,0,0,0,118,13.22Zm9-5.72h4.43V5a.42.42,0,0,0-.44-.43h-4Zm0,5.72h4a.42.42,0,0,0,.44-.43V10.2H127Z"/></g></g></svg>