<svg xmlns="http://www.w3.org/2000/svg" viewBox="0 0 703.31 71.72"><defs><style>.cls-1{fill:#7ab3d4;}</style></defs><g id="圖層_2" data-name="圖層 2"><g id="圖層_1-2" data-name="圖層 1"><path class="cls-1" d="M1,56.19c-1.28-1.2-1.28-2.47-.38-4,4.73-7.5,8.48-16.8,10.73-29.48.67-3.45,3.07-4.87,6.52-4.2,3.6.75,4.8,3.38,4.05,6.53C19.08,37.44,12,49.67,5.06,55.89,3.71,57.09,2.13,57.32,1,56.19Zm12.22,8c.38-1.43,1.35-2,3.23-1.8,11.7,1.27,13.12.37,13.12-3.38V6.09c0-3.59,1.88-5.25,5.55-5.25s5.7,1.66,5.7,5.25V61.37c0,9.6-9.67,13.2-26,6.22A2.58,2.58,0,0,1,13.23,64.22ZM57,51.47a236.63,236.63,0,0,0-9.08-29.18c-.75-1.8-.3-3.07,1.2-4a2.93,2.93,0,0,1,4.13,1.05A120.92,120.92,0,0,1,68,47.57c1.43,3.9.08,6.6-3.6,7.8S57.78,55.07,57,51.47Z"/><path class="cls-1" d="M141.18,22.22v5.92c0,2.78-1.65,4.28-4.65,4.28a12,12,0,0,1-1.65-.15l1.05,1.35c1.65,2.25,1.2,4.35-1.12,5.7-2.48,1.42-4.5.52-5.55-2a85.86,85.86,0,0,0-4.28-8.7,2.43,2.43,0,0,1,.53-3.3c1-.83,2-.68,3.22.22a39.34,39.34,0,0,1,3.15,3.08v-4.5a.86.86,0,0,0-.9-.9h-22.5a31,31,0,0,1,6.83,3.22c2.1,1.28,2.32,3.3.82,5.1s-3.37,2-5.17.23c-1.58-1.65-3.45-3.3-5.18-4.95a2.17,2.17,0,0,1-.52-2.93,1.71,1.71,0,0,1,.6-.67H87.56a.86.86,0,0,0-.9.9v4.5c0,2.85-1.73,4.27-4.65,4.27s-4.58-1.42-4.58-4.27V22.22c0-2.93,1.58-4.58,4.58-4.58h8.92a4,4,0,0,1-.52-1.12,55,55,0,0,0-2.4-6.3L84,10c-1.73-.15-2.63-1-2.63-2.55S82.08,5,84,5c18.08-.45,33.83-2,46.58-4.8,2.77-.6,4.87.37,5.4,3.15.67,3.37-.9,5.1-3.83,5.47-.37.08-.82.08-1.2.15,1.28,1,1.65,2.63.53,4.5a20.45,20.45,0,0,1-3.6,4.2h8.7C139.53,17.64,141.18,19.29,141.18,22.22Zm-.07,43.87c-.45,3.6-2.55,4.65-6.08,4.43a77.76,77.76,0,0,1-24.3-5c-8.17,3.23-18.22,5-30.37,5.63a2.42,2.42,0,0,1-2.85-2.18,2.17,2.17,0,0,1,2.17-2.7,105.82,105.82,0,0,0,22.5-5.17,32.69,32.69,0,0,1-8-7.35,35.76,35.76,0,0,1-11.1,6.52,2.43,2.43,0,0,1-3.38-1.12,2.3,2.3,0,0,1,1-3.23,42.8,42.8,0,0,0,14.55-15.6,3.75,3.75,0,0,1,1.43-1.42c-1.2-1.2-1.58-2.93-1.58-5.55v-4.8c0-2.78,1.5-3.9,4.28-3.9s4.35,1.12,4.35,4v2.7c0,1.73.45,2.48,2.85,2.55a60,60,0,0,0,9.9-.15c2.1-.3,2.77-.9,3-4.27a2.06,2.06,0,0,1,2.25-2.18,2.3,2.3,0,0,1,2.4,2.25c1.5,7.73.15,10.65-5.93,11.1a104.06,104.06,0,0,1-15.3.08,3.22,3.22,0,0,1-.07,3.37h23.7c4.8,0,6.52,4.35,3.6,7.8a42.73,42.73,0,0,1-7.8,7.35c4.42.68,9.15,1.05,14.17,1.43C139.76,60.84,141.48,62.79,141.11,66.09ZM84.18,40.59c-2.25-1.65-2.17-3.9,0-6a22,22,0,0,0,5.1-7.72,2.3,2.3,0,0,1,2.93-1.35c1.35.37,1.87,1.27,1.57,2.85a30.92,30.92,0,0,1-3.6,10.87C88.76,41.72,86.36,42.32,84.18,40.59Zm12.9-23h9.75a2.75,2.75,0,0,1-.45-1.05,55.51,55.51,0,0,0-1.95-6.07c-3.37,0-6.75,0-10.12-.08.82.9,1.65,2,2.47,3C98,15,98.06,16.52,97.08,17.64Zm14.1,39.3a35.1,35.1,0,0,0,8.1-6.22c.6-.6.3-1.13-.52-1.13H98.58a7,7,0,0,1-.75.83A36.37,36.37,0,0,0,111.18,56.94ZM123.86,9.62c-4.13.37-8.55.6-13.13.75.75.9,1.58,2,2.33,3,1.2,1.57,1.2,3.07.07,4.27h8c.83-2.17,1.5-4.35,2.18-6.67A5.28,5.28,0,0,1,123.86,9.62Z"/><path class="cls-1" d="M218.13,29.72c-.45,3.15-3.07,4.27-6.37,3.9-1.8-.23-3.53-.45-5.25-.83a4.43,4.43,0,0,1,1.87,4.05v10.8c0,2.93-1.57,4.58-4.57,4.58H171.26v3.52c0,2.93,1.2,3.68,5.62,3.83,9.83.45,19,.22,28.43-.15,4.8-.23,5.77-1.28,5.77-9.23,0-1.8.9-2.55,2.18-2.55s2.1.68,2.55,2.55c2.77,13.13.6,17.48-9.9,18-8.55.38-17.55.45-28.35.15-14.18-.3-16.5-1.57-16.5-12.45v-19a4.4,4.4,0,0,1,1.42-3.67c-3,.37-6.07.67-9.22.82-1.58.08-2.63-.67-2.7-2.1s.45-2.25,2.25-2.47a78.65,78.65,0,0,0,24.45-7.2,45,45,0,0,1-7.43-5.93,2.77,2.77,0,0,1-.82-1.42,64.25,64.25,0,0,1-13.8,4.65c-1.43.3-2.48-.15-2.85-1.43s.15-2.25,1.57-3c7.35-3.6,12.75-7.57,16.8-12.37,2.18-2.4,4.88-2.78,7.35-.9s2.78,4.65-.22,7.35A32.18,32.18,0,0,1,173,12.69a71.63,71.63,0,0,0,11,5.55,56.24,56.24,0,0,0,8.55-7.2c1.57-1.65,3.15-2,4.87-1.42a72.76,72.76,0,0,0-7.05-4.13,2.48,2.48,0,0,1-1.27-3.3c.52-1.27,1.57-1.5,3.07-1.19a78.51,78.51,0,0,1,20.63,7.94c3.07,1.8,3.75,4.43,1.87,7.13s-4.42,3.07-7.12.9c-2.33-1.8-4.58-3.53-7-5.25,1.28,1.72,1.13,3.9-.82,5.77a53.61,53.61,0,0,1-4.95,4.13,118.83,118.83,0,0,0,18.3,2.47C217.16,24.39,218.66,26.64,218.13,29.72Zm-14.92,2.47A88.13,88.13,0,0,1,186,26.79a74,74,0,0,1-17.4,5.4Zm-23.33,5.48h-7.72a.86.86,0,0,0-.9.9v8.25h8.62Zm18.3.9a.86.86,0,0,0-.9-.9h-7.87v9.15h7.87a.87.87,0,0,0,.9-.9Z"/><path class="cls-1" d="M293.13,29.72c-.45,3.15-3.07,4.27-6.37,3.9-1.8-.23-3.53-.45-5.25-.83a4.43,4.43,0,0,1,1.87,4.05v10.8c0,2.93-1.57,4.58-4.57,4.58H246.26v3.52c0,2.93,1.2,3.68,5.62,3.83,9.83.45,19,.22,28.43-.15,4.8-.23,5.77-1.28,5.77-9.23,0-1.8.9-2.55,2.18-2.55s2.1.68,2.55,2.55c2.77,13.13.6,17.48-9.9,18-8.55.38-17.55.45-28.35.15-14.18-.3-16.5-1.57-16.5-12.45v-19a4.4,4.4,0,0,1,1.42-3.67c-3,.37-6.07.67-9.22.82-1.58.08-2.63-.67-2.7-2.1s.45-2.25,2.25-2.47a78.65,78.65,0,0,0,24.45-7.2,45,45,0,0,1-7.43-5.93,2.77,2.77,0,0,1-.82-1.42,64.25,64.25,0,0,1-13.8,4.65c-1.43.3-2.48-.15-2.85-1.43s.15-2.25,1.57-3c7.35-3.6,12.75-7.57,16.8-12.37,2.18-2.4,4.88-2.78,7.35-.9s2.78,4.65-.22,7.35A32.18,32.18,0,0,1,248,12.69a71.63,71.63,0,0,0,11,5.55,56.24,56.24,0,0,0,8.55-7.2c1.57-1.65,3.15-2,4.87-1.42a72.76,72.76,0,0,0-7.05-4.13,2.48,2.48,0,0,1-1.27-3.3c.52-1.27,1.57-1.5,3.07-1.19a78.51,78.51,0,0,1,20.63,7.94c3.07,1.8,3.75,4.43,1.87,7.13s-4.42,3.07-7.12.9c-2.33-1.8-4.58-3.53-7-5.25,1.28,1.72,1.13,3.9-.82,5.77a53.61,53.61,0,0,1-4.95,4.13,118.83,118.83,0,0,0,18.3,2.47C292.16,24.39,293.66,26.64,293.13,29.72Zm-14.92,2.47A88.13,88.13,0,0,1,261,26.79a74,74,0,0,1-17.4,5.4Zm-23.33,5.48h-7.72a.86.86,0,0,0-.9.9v8.25h8.62Zm18.3.9a.86.86,0,0,0-.9-.9h-7.87v9.15h7.87a.87.87,0,0,0,.9-.9Z"/><path class="cls-1" d="M301.31,44.19c0-2.85,1.57-4.42,4.42-4.42h19.65c2.85,0,4.43,1.57,4.43,4.42s-1.58,4.43-4.35,4.43H305.73C302.88,48.62,301.31,47,301.31,44.19Z"/><path class="cls-1" d="M341.06,18.54a2.61,2.61,0,0,1-2.93-2.92,2.65,2.65,0,0,1,2.93-2.93h4.8V5c0-2.39,1.5-3.89,4.35-3.89s4.42,1.5,4.42,3.89v7.65h3.83a2.65,2.65,0,0,1,2.92,2.93,2.61,2.61,0,0,1-2.92,2.92Zm16,4.35a2.54,2.54,0,0,1,2.85,2.85A2.57,2.57,0,0,1,357,28.59H342.78a2.64,2.64,0,0,1-2.85-2.85,2.61,2.61,0,0,1,2.85-2.85Zm-17.1,12.75a2.61,2.61,0,0,1,2.85-2.85H357a2.54,2.54,0,0,1,2.85,2.85A2.54,2.54,0,0,1,357,38.49H342.78A2.6,2.6,0,0,1,339.93,35.64Zm66.15-14.85c0,2-1,3.08-2.92,3.08h-1.8V63c0,7.87-7.28,10.2-16.35,6.07a2.54,2.54,0,0,1-1.5-3.22,2.43,2.43,0,0,1,2.85-1.8c5.7.67,6.15.07,6.15-3.15V46.44a3,3,0,0,1-2.63,2c-2,.38-3.82-.45-4.05-2.85-.15-2.17-.45-4.65-.67-7a.08.08,0,0,0-.08.08c-.82,1.72-1.8,3.52-2.85,5.25v19.5c0,7-6.07,9.45-15.37,5.85a2.51,2.51,0,0,1-1.8-3.15c.3-1.35,1.27-2,3-1.88,5.7.68,6.3.15,6.3-2.7V53.72a44.22,44.22,0,0,1-10.8,8.4c-1.65,1-3.15.6-3.9-.68v5.63c0,2.32-1.43,3.6-3.9,3.6s-3.83-1.28-3.83-3.6V64.89h-3.82v2.4c0,2.4-1.43,3.68-3.9,3.68s-4-1.28-4-3.68V47.64c0-2.92,1.65-4.57,4.65-4.57h10.2c2.18,0,3.6.9,4.28,2.55a.27.27,0,0,1-.08-.23c-.45-2.25.38-3.75,2.85-4.27V14.27c0-3,1.65-4.58,4.65-4.58h1.28c.22-1.65.37-3.52.6-5.54.3-2.78,1.95-3.83,4.95-3.38,2.85.52,3.9,2.4,2.85,5a38.3,38.3,0,0,1-1.95,3.9h3.15c3,0,4.57,1.58,4.57,4.58v19.2a3.45,3.45,0,0,1,1.43.37,3.15,3.15,0,0,1,1,.6c-.15-1.27-.37-2.47-.52-3.6a2.44,2.44,0,0,1,1.95-3.07c1.42-.3,2.47.3,3,1.95a75.1,75.1,0,0,1,3.45,13.72V23.79h-6.6c-1.8,0-2.85-1.05-2.85-3s1.05-3,2.85-3h6.6V5.49c0-2.62,1.57-4.12,4.42-4.12s4.43,1.5,4.43,4.12v12.3h1.8C405.11,17.79,406.08,18.84,406.08,20.79Zm-54.15,28.8a.87.87,0,0,0-.9-.9h-2a.87.87,0,0,0-.9.9v9.6h3.82Zm21.68-5a38.32,38.32,0,0,1-9.38,3.75c-2.4.68-4-.07-4.65-2,0,.38.08.75.08,1.2V58.29a4.58,4.58,0,0,1,.9-.82A62.22,62.22,0,0,0,373.61,44.64Zm.75-28.57a.87.87,0,0,0-.9-.9h-2.63a.87.87,0,0,0-.9.9v3.45h4.43Zm0,8.77h-4.43v4.43h4.43Zm-4.43,9.75v5.25c1.5-.3,3-.6,4.43-1V34.59Z"/><path class="cls-1" d="M477.26,8.27v59.1c0,3-1.73,4.2-4.95,4.2s-4.8-1.28-4.8-4.2v-.3H426v.45c0,2.92-1.57,4.2-4.8,4.2s-5-1.13-5-4.2V8.27c0-2.93,1.65-4.58,4.58-4.58h51.82C475.68,3.69,477.26,5.34,477.26,8.27Zm-9.75,53V10.37a.87.87,0,0,0-.9-.9h-8.1c.3.15.67.3,1.05.52a24.26,24.26,0,0,1,3.9,3.6c1.57,1.73,1.2,3.3-.53,4.58h.83a2.44,2.44,0,0,1,2.7,2.77,2.5,2.5,0,0,1-2.78,2.78h-9.22c.22,4.5.52,8.55.9,12,.82-2,1.57-4.2,2.32-6.53s2.55-3.37,4.73-2.77,3.15,2.47,2.25,4.87a63.43,63.43,0,0,1-7.28,14.63c.75,2.32,1.65,3.9,2.7,4.65s1.35-1.35,1.35-6.83a2.23,2.23,0,0,1,2.25-2.47,2.37,2.37,0,0,1,2.55,2.32c1.58,13.95-1.5,17.7-6.67,16.28-3.08-.9-5.55-3.45-7.58-7.58a39,39,0,0,1-11.62,7.8c-1.5.68-2.7.3-3.3-1a2.42,2.42,0,0,1,1.05-3.38,40.57,40.57,0,0,0,11.62-9.82c-1.57-5.7-2.55-13.05-2.92-22.2h-17a2.55,2.55,0,0,1-2.85-2.78,2.55,2.55,0,0,1,2.85-2.77h16.88c-.08-1.5-.08-3-.08-4.58,0-2.47,1.5-3.6,3.83-3.6s3.9,1,3.9,3.53v4.65h4.87l-.45-.68c-1-1.87-1.87-3.22-2.85-4.8a2,2,0,0,1,.45-2.85,2.85,2.85,0,0,1,.68-.37H426.93a.87.87,0,0,0-.9.9V61.29ZM446.88,47.87a61.12,61.12,0,0,1-15.82,6.3c-2.63.67-4.13-.53-4.58-2.7-.52-2.48.53-4.58,3.08-4.88a110.28,110.28,0,0,0,15.6-2.85c1.27-.37,2.4-.15,2.92,1.2A2.17,2.17,0,0,1,446.88,47.87Zm-18.82-8.7v-8.4c0-3,1.27-4.28,4.27-4.28h9.15c2.93,0,4.28,1.28,4.28,4.28v8.4c0,3-1.35,4.2-4.28,4.2h-9.15C429.33,43.37,428.06,42.17,428.06,39.17Zm6.67-1.73a.75.75,0,0,0,.83.83h2.92a.81.81,0,0,0,.9-.83v-5a.81.81,0,0,0-.9-.83h-2.92a.75.75,0,0,0-.83.83Z"/><path class="cls-1" d="M507.63,38c-.45-1.5-1-2.92-1.42-4.2V67.07c0,2.77-1.73,4.27-4.88,4.27s-4.95-1.5-4.95-4.27V42.32a45.65,45.65,0,0,1-4.65,9.22c-1,1.5-2.32,2-3.45,1.05s-1.5-2-.75-3.6c3.6-6.9,6.23-15.67,7.88-26.4h-3.9a2.63,2.63,0,0,1-2.85-2.92,2.6,2.6,0,0,1,2.85-2.85h4.87V5c0-2.92,1.73-4.35,4.95-4.35s4.88,1.43,4.88,4.35V16.82H510a2.57,2.57,0,0,1,2.85,2.85A2.59,2.59,0,0,1,510,22.59h-3.82v2.93a40.52,40.52,0,0,1,7.05,9.15c1.12,2,.75,3.75-1.13,4.8S508.31,40.07,507.63,38Zm47.25,26c-1.5,2.85-4.5,3.38-7.12,1.5A36.46,36.46,0,0,1,537,53V66.77c0,3-1.8,4.57-5.1,4.57s-5.1-1.57-5.1-4.57V53.94A43.09,43.09,0,0,1,511.68,66a2.53,2.53,0,0,1-3.52-.9c-.75-1.28-.45-2.4,1-3.53a49.49,49.49,0,0,0,14.25-15.67h-11a2.51,2.51,0,0,1-2.7-2.78,2.47,2.47,0,0,1,2.7-2.77h14.4V38.49c0-2.92,1.8-4.35,5.1-4.35s5.1,1.43,5.1,4.35v1.88h14.48a2.47,2.47,0,0,1,2.7,2.77,2.48,2.48,0,0,1-2.7,2.78H538.38A44.29,44.29,0,0,0,552.63,57C555.71,58.52,556.38,61.14,554.88,64Zm-44.7-50.25a2.33,2.33,0,0,1-.22-3.15,2.12,2.12,0,0,1,2.85-.67,35.71,35.71,0,0,1,7.35,4c2,1.58,2.1,3.3.52,5.18s-3.67,2-5.17.22C513.71,17.27,511.91,15.32,510.18,13.74Zm3.45,13.43a52.28,52.28,0,0,0,7.73-6.6,2.19,2.19,0,0,1,3.22-.15c1.13.82,1.2,1.87.53,3.15a40.74,40.74,0,0,1-6.83,9.22c-1.65,1.58-3.9,2-5.4-.3S511.61,28.59,513.63,27.17Zm-.07-21.83a2.25,2.25,0,0,1-.3-3.15,2.38,2.38,0,0,1,3.15-.9,29.4,29.4,0,0,1,6.6,3.9,3.36,3.36,0,0,1,.37,5.25,3.37,3.37,0,0,1-5.4-.07A43.52,43.52,0,0,0,513.56,5.34Zm41,22.65c-2.25,1-3.83.08-4.43-1.95-.3-1-.6-2-.82-2.92-.15,2.32-.3,4-.45,5.4-.83,6.52-6.68,8.17-13.5,4.72a2.69,2.69,0,0,1-1-3.22,2.19,2.19,0,0,1,2.55-1.5c3.07.37,3.82.3,4.05-1.28.37-3.6.75-11.1.82-17.32a.83.83,0,0,0-.9-.9h-2.25c-1.12,13.05-4.2,22.05-15.15,27.3-1.5.75-2.55.52-3.3-.75a2.33,2.33,0,0,1,.83-3.45c3.82-3.08,6.15-6,7.65-9.68a60.2,60.2,0,0,0-5.78-6.67,2.2,2.2,0,0,1,.08-3,2.25,2.25,0,0,1,2.92-.45,27.61,27.61,0,0,1,4.5,3.07c.23-2,.45-4.05.53-6.37h-3A2.5,2.5,0,0,1,525,6.24a2.49,2.49,0,0,1,2.78-2.77H545c3.23,0,4.88,1.87,4.8,5.25-.07,1.65-.07,3.07-.15,4.5a69.55,69.55,0,0,1,6.3,10.12A3,3,0,0,1,554.51,28Z"/><path class="cls-1" d="M629.81,33.77c-1.2,3.22-4.28,4-7.8,2.4a46.24,46.24,0,0,1-9.15-5.4,5.07,5.07,0,0,1,.52,2.47v33.3c0,3.08-1.87,4.73-5.32,4.73s-5.33-1.65-5.33-4.73V33.24c0-3.07,1.88-4.8,5.33-4.8a7,7,0,0,1,2.25.3,49,49,0,0,1-12.45-16,59.43,59.43,0,0,1-31.35,24.23c-1.65.6-2.93.15-3.45-1.2a2.39,2.39,0,0,1,1.2-3.38A61.49,61.49,0,0,0,590.81,3.4c1.35-3.08,4.05-3.83,7.35-2.4C601,2.27,602,4.59,600.71,7.67A53.46,53.46,0,0,0,626.36,26C630,27.32,631.16,29.94,629.81,33.77Zm-39.23-.45v4.8c0,17.32-6.67,27.9-21.22,32.92a2.61,2.61,0,0,1-3.45-1.2A2.53,2.53,0,0,1,567,66.47c10.27-7.2,13-14.33,13-28.73V33.32c0-3.08,2-4.73,5.48-4.73S590.58,30.24,590.58,33.32Z"/><path class="cls-1" d="M647.88,51.09a54.33,54.33,0,0,1-1.27,14.55c-.75,3.15-3.08,4.43-6,3.23s-3.53-3.3-1.8-6.15a43.73,43.73,0,0,0,4.35-12.23c.3-1.57,1.27-2.32,2.55-2.17S647.73,49.22,647.88,51.09Zm-3.52-13.65a74.22,74.22,0,0,0,6.82-10.72,40.38,40.38,0,0,1-7.12,1.8c-2.85.52-4.95-.53-5.25-3.45s1-4.35,4.27-4.28h.3A99.25,99.25,0,0,0,648,5c.67-3.37,2.7-4.64,5.85-3.82s4.12,3.07,2.77,6.3a62,62,0,0,1-7.2,13.2c1.65-.08,3.3-.15,4.88-.3.82-1.88,1.57-3.75,2.32-5.63,1.2-3.07,3.53-3.9,6.23-2.7s3.22,3.68,1.72,6.68A68.53,68.53,0,0,1,651,37.07c2.55-.15,5.1-.45,7.58-.83a25.35,25.35,0,0,0-1-2.62,2.23,2.23,0,0,1,.83-3.08c1.12-.67,2.1-.3,3.07.75a31.4,31.4,0,0,1,5.63,9.08c1,2.4.45,4.2-1.73,5s-4.12.15-4.8-2.4l-.52-2.1a59.15,59.15,0,0,1-15.75,5c-3.15.45-5.48-.6-5.85-3.6s1-4.88,4.5-4.88Zm13.72,25.43c.3,2.92-.82,4.57-3.75,4.87-2.77.23-4.42-1.12-4.27-4.2a111.28,111.28,0,0,0,.07-13.27c-.07-1.5.6-2.4,1.88-2.55s2,.37,2.62,1.72A52.26,52.26,0,0,1,658.08,62.87Zm9.3-5.85c1,2.47.45,4.42-1.87,5.4-2.63,1.12-4.58.15-5.25-2.63A65.55,65.55,0,0,0,657,49.07c-.53-1.43-.3-2.4.9-3.08s2.1-.22,3.15.75A33.25,33.25,0,0,1,667.38,57Zm2.25-19.65a2.13,2.13,0,0,1-3.15-.68,2.4,2.4,0,0,1,.45-3.3c5.7-5.77,8.48-12.52,9.23-23.32h-7.58a2.59,2.59,0,0,1-2.85-2.78,2.6,2.6,0,0,1,2.85-2.85h30.3c2.93,0,4.43,1.73,4.43,4.8a140.65,140.65,0,0,1-1.43,19.5c-1.2,7.5-9.67,8.48-18.37,3.6a2.62,2.62,0,0,1-1.43-3.3,2.3,2.3,0,0,1,2.85-1.57c6.3,1.12,7.13.75,7.43-2.33.3-3.6.75-9.22.75-14.1,0-.6-.23-1-.83-1H686C684.71,22.59,679.91,31.89,669.63,37.37Zm33,5.7V66.54c0,3-1.8,4.58-5.1,4.58s-5.1-1.58-5.1-4.58V65.27H678.86v1.5c0,2.92-1.73,4.42-5,4.42s-5-1.5-5-4.42V43.07c0-2.93,1.65-4.58,4.57-4.58h24.68C701.06,38.49,702.63,40.14,702.63,43.07Zm-10.2,16.5V45a.86.86,0,0,0-.9-.9H679.76a.86.86,0,0,0-.9.9V59.57Z"/></g></g></svg>