<svg xmlns="http://www.w3.org/2000/svg" viewBox="0 0 443.13 71.42"><defs><style>.cls-1{fill:#7ab3d4;}</style></defs><g id="圖層_2" data-name="圖層 2"><g id="圖層_1-2" data-name="圖層 1"><path class="cls-1" d="M27.75,66.32v-22H3.23C1.12,44.35,0,43.08,0,40.9s1.12-3.37,3.23-3.37H27.75V10.9H6.6c-2,0-3.15-1.27-3.15-3.37S4.58,4.15,6.6,4.15H60.52c2,0,3.15,1.2,3.15,3.38s-1.12,3.37-3.15,3.37H39.07V37.53H63.82c2.1,0,3.23,1.2,3.23,3.37s-1.13,3.45-3.23,3.45H39.07v22c0,3.3-2,5.1-5.62,5.1S27.75,69.62,27.75,66.32ZM14.4,31.6a129.12,129.12,0,0,0-5.85-15c-.75-1.65-.45-3,.9-3.82s2.77-.38,3.9.82a76.83,76.83,0,0,1,10,13.65c2.1,3.53,1.05,6.3-2.25,7.73S15.3,35,14.4,31.6Zm27.82.15a90.76,90.76,0,0,0,5.93-15.6c.9-3.45,3.45-4.65,6.67-3.37s4.2,3.67,2.63,6.9A56,56,0,0,1,47,35c-1.28,1.2-2.78,1.5-4.05.45S41.4,33.33,42.22,31.75Z"/><path class="cls-1" d="M137.77,35.8c-3.07,2.1-6.22,1.58-8.1-2.17-.75-1.5-1.57-3.08-2.55-4.65-13.57,3.07-30.67,4.95-44.62,5.92-4.42.3-6.38-1.8-6.38-5.7,0-3.67,1.81-5.55,6.15-5.32,1.73.07,3.45.15,5.1.15A116.31,116.31,0,0,0,99.22,3.78C100.8.4,104-.95,107.55.7c4,1.8,4.72,5,2.4,8.48A85.69,85.69,0,0,1,96.3,24.1c9.22,0,18.15-.3,27.22-.9-1.65-2.47-3.37-4.87-5.1-7.12a2.94,2.94,0,0,1,.23-4.13c1.2-1,2.7-1,4.27.08a85.56,85.56,0,0,1,16,15.22C141.52,30.48,140.85,33.7,137.77,35.8Zm-4.05,6.9V66.17c0,3.45-1.87,4.88-5.4,4.88-3.37,0-5.55-1.43-5.55-4.88v-.82H94.05v.75c0,3.52-2.1,4.87-5.48,4.87S83.1,69.62,83.1,66.1V42.7c0-3,1.65-4.57,4.57-4.57h41.48C132.07,38.13,133.72,39.7,133.72,42.7Zm-11,16.5V45.1a.87.87,0,0,0-.9-.9H95a.87.87,0,0,0-.9.9V59.2Z"/><path class="cls-1" d="M150.15,61.23c0-2.71,1.5-4.13,4.12-4.13h58.58c2.62,0,4.12,1.42,4.12,4.13a3.75,3.75,0,0,1-4.12,4.12H154.27A3.75,3.75,0,0,1,150.15,61.23Zm5.7-50.85c0-2.63,1.42-4.05,4.12-4.05h47.18c2.7,0,4.12,1.42,4.12,4.05s-1.42,4.12-4.12,4.12H160C157.27,14.5,155.85,13.08,155.85,10.38Zm5.25,23.55c0-2.55,1.42-4,4.05-4h36.9c2.55,0,4,1.43,4,4s-1.42,4-4,4h-36.9C162.52,37.9,161.1,36.55,161.1,33.93Z"/><path class="cls-1" d="M291.37,67.6c-2,3.45-5.85,4.05-9.22,1.35-8.78-6.83-17.48-19.8-21-35.32-4.5,18.67-15.6,31.42-32.78,37.27-1.72.52-3,0-3.6-1.42s-.07-2.63,1.43-3.61c14-8.47,21.9-20,24.82-39.22H229.57c-2.17,0-3.37-1.2-3.37-3.45a3,3,0,0,1,3.37-3.37h22.28l.22-3.45c.23-3.3.23-6.6.3-10.73.08-3.52,2.18-5.4,5.7-5.4,3.68.08,5.7,1.88,5.7,5.33a111.39,111.39,0,0,1-.52,13c0,.45-.08.83-.08,1.28h24.38a3,3,0,0,1,3.37,3.37c0,2.25-1.2,3.45-3.37,3.45H264.82c4.95,15,12.75,25,23.85,31.87C292.35,60.85,293.4,64.15,291.37,67.6Z"/><path class="cls-1" d="M322.72,40.23V66.62c0,2.86-1.8,4.43-5,4.43s-5-1.57-5-4.43V46.08l-4.57,2.25c-3.38,1.65-6.08.6-7.2-2.7-1-3.08.15-5.48,3.9-6.38,2.77-.67,5.4-1.5,7.87-2.32V22.83h-3.82a45.87,45.87,0,0,1-4.28,11.62,2.33,2.33,0,0,1-3.15,1.2A2.52,2.52,0,0,1,300,32.43c1.65-6.45,2.17-13.58,2.4-23,.08-3.22,1.65-4.72,4.5-4.57s4.42,2,4.05,5.47a61.23,61.23,0,0,1-.9,6.83h2.62V5c0-2.85,1.8-4.43,5-4.43s5,1.58,5,4.43V17.13h5A2.6,2.6,0,0,1,330.6,20a2.6,2.6,0,0,1-2.85,2.85h-5V33.1c1-.45,1.95-.82,2.93-1.27,1.42-.6,2.7-.45,3.3.67a2.55,2.55,0,0,1-.53,3.3A42,42,0,0,1,322.72,40.23Zm44.25.9a2.75,2.75,0,0,1-3.07,3h-4.28V62.87c0,8.18-9.07,10.73-20.32,4.8a2.4,2.4,0,0,1-1.35-3c.37-1.36,1.35-1.81,2.92-1.58,7.13,1,8.25.3,8.25-2.62V44.13H328.5c-1.95,0-3-1.05-3-3.08a2.69,2.69,0,0,1,3-3h20.62V35.88c0-3.08,1.88-4.73,5.25-4.73s5.25,1.65,5.25,4.73v2.17h4.28A2.74,2.74,0,0,1,367,41.13ZM328.5,13.23a2.72,2.72,0,0,1,3-3H341v-5c0-3.07,1.88-4.72,5.33-4.72s5.25,1.65,5.25,4.72v5h8.92a2.75,2.75,0,0,1,3.08,3,2.79,2.79,0,0,1-3.08,3H351.6v8h12.15a2.66,2.66,0,0,1,3,3,2.66,2.66,0,0,1-3,3h-35.1a2.69,2.69,0,0,1-3-3,2.69,2.69,0,0,1,3-3H341v-8H331.5A2.76,2.76,0,0,1,328.5,13.23Zm7.05,44.54a90.78,90.78,0,0,0-5-8.32,2.43,2.43,0,0,1,.15-3.3,2.49,2.49,0,0,1,3.3-.22,39.52,39.52,0,0,1,8.33,6.75c2.32,2.4,2.4,5-.15,6.82S337.35,60.93,335.55,57.77Z"/><path class="cls-1" d="M430.65,68.8c-12.38.37-22.88.45-33.23.07-12-.52-14.55-2.55-14.55-12.6V31.38a40.43,40.43,0,0,1-4.27,2.77c-1.58.9-3.08.68-4-.75s-.6-2.7.83-4C383,22.83,388.8,13.3,392.32,3.78,393.67.25,396.82-.65,400.2.7c3.22,1.28,3.9,4.2,2.4,7.5h10.27a7.29,7.29,0,0,1,8.1-1c2.85,1.42,4,4.42,1.65,8.17a35.76,35.76,0,0,1-5.32,6.45h12.75c3,0,4.65,1.65,4.65,4.58V41.58c0,3-1.58,4.57-4.73,4.57H393.45v6.68c0,5.62.9,6.22,7.57,6.52,8.7.45,19.73.38,28.13,0,6.52-.3,7.27-1.28,7.27-10,0-2,1-3,2.55-3a2.84,2.84,0,0,1,3.08,2.55C445,66.1,442.2,68.42,430.65,68.8ZM411.52,14.5H399.07a66.09,66.09,0,0,1-5.77,7.35h15.9a37.53,37.53,0,0,0,3.07-6.3A.73.73,0,0,0,411.52,14.5ZM404.17,28h-9.82a.87.87,0,0,0-.9.9v11h10.72Zm19.65,0h-9.6V39.93h9.3c.9,0,1.2-.3,1.2-1.13V28.9A.87.87,0,0,0,423.82,28Z"/></g></g></svg>