<svg xmlns="http://www.w3.org/2000/svg" viewBox="0 0 175.58 84.42"><defs><style>.cls-1{fill:#7ab3d4;}</style></defs><g id="圖層_2" data-name="圖層 2"><g id="圖層_1-2" data-name="圖層 1"><path class="cls-1" d="M.48,27A1.37,1.37,0,0,1,.3,25.06,38.4,38.4,0,0,0,5.45,10.92a2.39,2.39,0,0,1,3.13-2A2.35,2.35,0,0,1,10.53,12C9.16,18,5.78,23.84,2.43,26.83A1.36,1.36,0,0,1,.48,27Zm5.87,3.85c.18-.68.65-1,1.55-.86,5.61.61,6.3.18,6.3-1.62V2.93c0-1.73.9-2.52,2.66-2.52s2.74.79,2.74,2.52V29.45c0,4.61-4.65,6.34-12.49,3A1.24,1.24,0,0,1,6.35,30.82Zm21-6.12A113.33,113.33,0,0,0,23,10.7a1.36,1.36,0,0,1,.58-1.91,1.41,1.41,0,0,1,2,.51,58.22,58.22,0,0,1,7.09,13.53c.68,1.87,0,3.17-1.73,3.74S27.73,26.43,27.34,24.7Z"/><path class="cls-1" d="M67.76,10.66v2.85c0,1.33-.79,2.05-2.23,2.05a6.27,6.27,0,0,1-.79-.07l.5.65a1.68,1.68,0,0,1-.54,2.73A1.7,1.7,0,0,1,62,17.94a40.6,40.6,0,0,0-2-4.18,1.17,1.17,0,0,1,.25-1.58c.47-.4,1-.33,1.55.1a20.87,20.87,0,0,1,1.51,1.48V11.6a.41.41,0,0,0-.43-.43H52.07a14.75,14.75,0,0,1,3.28,1.55,1.5,1.5,0,0,1,.39,2.44,1.49,1.49,0,0,1-2.48.11c-.76-.79-1.66-1.58-2.49-2.37a1.05,1.05,0,0,1-.25-1.41.82.82,0,0,1,.29-.32H42a.41.41,0,0,0-.43.43v2.16c0,1.37-.83,2.05-2.24,2.05s-2.19-.68-2.19-2.05v-3.1a2,2,0,0,1,2.19-2.19h4.29a1.93,1.93,0,0,1-.25-.54,25.23,25.23,0,0,0-1.16-3L40.3,4.8C39.47,4.73,39,4.33,39,3.57s.36-1.15,1.3-1.18A122.63,122.63,0,0,0,62.69.08C64-.21,65,.26,65.28,1.59a2,2,0,0,1-1.84,2.63c-.17,0-.39,0-.57.07a1.54,1.54,0,0,1,.25,2.16,9.31,9.31,0,0,1-1.73,2h4.18A2,2,0,0,1,67.76,10.66Zm0,21.06c-.22,1.73-1.23,2.23-2.92,2.13a37.42,37.42,0,0,1-11.66-2.42,45.89,45.89,0,0,1-14.58,2.7,1.16,1.16,0,0,1-1.37-1,1.05,1.05,0,0,1,1-1.3,50.69,50.69,0,0,0,10.8-2.48,15.75,15.75,0,0,1-3.86-3.53,16.83,16.83,0,0,1-5.32,3.13,1.16,1.16,0,0,1-1.62-.54,1.09,1.09,0,0,1,.5-1.54,20.56,20.56,0,0,0,7-7.49,1.8,1.8,0,0,1,.69-.68A3.54,3.54,0,0,1,45.66,16v-2.3c0-1.33.72-1.87,2.06-1.87s2.08.54,2.08,1.9V15c0,.83.22,1.19,1.37,1.22a28.17,28.17,0,0,0,4.75-.07c1-.14,1.33-.43,1.44-2.05a1,1,0,0,1,1.08-1,1.08,1.08,0,0,1,1.15,1.08c.72,3.7.08,5.11-2.84,5.32a49.9,49.9,0,0,1-7.34,0,1.57,1.57,0,0,1,0,1.62H60.75c2.3,0,3.13,2.09,1.72,3.74a20.5,20.5,0,0,1-3.74,3.53c2.12.32,4.39.5,6.8.68A2.15,2.15,0,0,1,67.73,31.72ZM40.41,19.48c-1.08-.79-1-1.87,0-2.88a10.52,10.52,0,0,0,2.44-3.7,1.11,1.11,0,0,1,1.41-.65c.65.18.9.61.76,1.37a14.9,14.9,0,0,1-1.73,5.21A1.8,1.8,0,0,1,40.41,19.48Zm6.19-11h4.68A1.36,1.36,0,0,1,51.06,8a28.46,28.46,0,0,0-.93-2.91c-1.62,0-3.24,0-4.86,0,.39.43.79.94,1.18,1.44A1.51,1.51,0,0,1,46.6,8.47Zm6.77,18.86a17,17,0,0,0,3.88-3c.29-.29.15-.54-.25-.54H47.32a4.33,4.33,0,0,1-.36.4A17.38,17.38,0,0,0,53.37,27.33ZM59.45,4.62c-2,.18-4.1.28-6.3.36.36.43.76.93,1.12,1.44a1.47,1.47,0,0,1,0,2.05h3.82c.39-1.05.72-2.09,1-3.2A2.45,2.45,0,0,1,59.45,4.62Z"/><path class="cls-1" d="M104.7,14.26c-.22,1.52-1.47,2.06-3.06,1.88-.86-.11-1.69-.22-2.52-.4a2.12,2.12,0,0,1,.9,1.94v5.19a2,2,0,0,1-2.19,2.19H82.2v1.69c0,1.41.58,1.77,2.7,1.84,4.72.22,9.11.11,13.65-.07,2.3-.11,2.77-.61,2.77-4.43,0-.86.43-1.22,1-1.22s1,.32,1.22,1.22c1.34,6.3.29,8.39-4.75,8.64-4.1.18-8.42.22-13.6.07-6.81-.14-7.92-.75-7.92-6V17.68A2.1,2.1,0,0,1,78,15.92c-1.44.18-2.91.32-4.43.4-.75,0-1.26-.33-1.29-1s.21-1.08,1.08-1.19a37.54,37.54,0,0,0,11.73-3.46,21.55,21.55,0,0,1-3.56-2.84,1.4,1.4,0,0,1-.4-.68A30.71,30.71,0,0,1,74.5,9.37c-.68.14-1.19-.07-1.37-.69s.07-1.08.76-1.44A23.83,23.83,0,0,0,82,1.31,2.43,2.43,0,0,1,85.48.87c1.19.87,1.33,2.24-.11,3.53A15.53,15.53,0,0,1,83,6.09a34.52,34.52,0,0,0,5.29,2.67A26.53,26.53,0,0,0,92.43,5.3a2.06,2.06,0,0,1,2.34-.68,34.17,34.17,0,0,0-3.39-2,1.2,1.2,0,0,1-.61-1.59c.25-.61.76-.72,1.48-.57a38,38,0,0,1,9.9,3.81c1.47.87,1.79,2.13.89,3.42a2.1,2.1,0,0,1-3.41.43c-1.12-.86-2.2-1.69-3.35-2.51a2,2,0,0,1-.4,2.77,26.16,26.16,0,0,1-2.37,2,57,57,0,0,0,8.78,1.18C104.23,11.71,105,12.79,104.7,14.26Zm-7.16,1.19a42.11,42.11,0,0,1-8.28-2.59,35.35,35.35,0,0,1-8.35,2.59Zm-11.2,2.63h-3.7a.42.42,0,0,0-.44.43v4h4.14Zm8.79.43a.42.42,0,0,0-.44-.43H90.91v4.39h3.78a.42.42,0,0,0,.44-.43Z"/><path class="cls-1" d="M140.7,14.26c-.22,1.52-1.48,2.06-3.06,1.88-.86-.11-1.69-.22-2.52-.4a2.12,2.12,0,0,1,.9,1.94v5.19a2,2,0,0,1-2.2,2.19H118.2v1.69c0,1.41.58,1.77,2.7,1.84,4.72.22,9.11.11,13.64-.07,2.31-.11,2.78-.61,2.78-4.43,0-.86.43-1.22,1-1.22s1,.32,1.22,1.22c1.34,6.3.29,8.39-4.75,8.64-4.1.18-8.42.22-13.6.07-6.81-.14-7.92-.75-7.92-6V17.68a2.1,2.1,0,0,1,.68-1.76c-1.44.18-2.91.32-4.43.4-.75,0-1.26-.33-1.29-1s.21-1.08,1.08-1.19a37.54,37.54,0,0,0,11.73-3.46,21.55,21.55,0,0,1-3.56-2.84,1.4,1.4,0,0,1-.4-.68,30.71,30.71,0,0,1-6.62,2.23c-.68.14-1.19-.07-1.37-.69s.07-1.08.76-1.44A23.83,23.83,0,0,0,118,1.31a2.43,2.43,0,0,1,3.53-.44c1.19.87,1.33,2.24-.11,3.53A15.53,15.53,0,0,1,119,6.09a34.52,34.52,0,0,0,5.29,2.67,26.53,26.53,0,0,0,4.11-3.46,2.06,2.06,0,0,1,2.34-.68,34.17,34.17,0,0,0-3.39-2,1.2,1.2,0,0,1-.61-1.59c.25-.61.76-.72,1.48-.57a37.81,37.81,0,0,1,9.89,3.81c1.48.87,1.8,2.13.9,3.42s-2.12,1.48-3.42.43c-1.11-.86-2.19-1.69-3.34-2.51a2,2,0,0,1-.4,2.77,26.16,26.16,0,0,1-2.37,2,57,57,0,0,0,8.78,1.18C140.23,11.71,141,12.79,140.7,14.26Zm-7.16,1.19a42.11,42.11,0,0,1-8.28-2.59,35.35,35.35,0,0,1-8.35,2.59Zm-11.2,2.63h-3.71a.41.41,0,0,0-.43.43v4h4.14Zm8.79.43a.42.42,0,0,0-.44-.43h-3.78v4.39h3.78a.42.42,0,0,0,.44-.43Z"/><path class="cls-1" d="M144.63,21.21a1.91,1.91,0,0,1,2.12-2.12h9.43a1.92,1.92,0,0,1,2.13,2.12,1.91,1.91,0,0,1-2.09,2.12h-9.47A1.91,1.91,0,0,1,144.63,21.21Z"/><path class="cls-1" d="M1.71,58.9A1.26,1.26,0,0,1,.3,57.5a1.28,1.28,0,0,1,1.41-1.41H4V52.42c0-1.15.72-1.87,2.09-1.87s2.12.72,2.12,1.87v3.67h1.84a1.27,1.27,0,0,1,1.4,1.41,1.25,1.25,0,0,1-1.4,1.4ZM9.38,61a1.37,1.37,0,0,1,0,2.73H2.54a1.37,1.37,0,1,1,0-2.73ZM1.17,67.11a1.25,1.25,0,0,1,1.37-1.37H9.38a1.37,1.37,0,0,1,0,2.74H2.54A1.25,1.25,0,0,1,1.17,67.11ZM32.92,60c0,1-.47,1.48-1.41,1.48h-.86V80.25c0,3.78-3.49,4.89-7.85,2.91a1.23,1.23,0,0,1-.72-1.55,1.17,1.17,0,0,1,1.37-.86c2.74.32,2.95,0,2.95-1.51V72.29a1.45,1.45,0,0,1-1.26.94,1.48,1.48,0,0,1-1.94-1.37c-.07-1-.22-2.23-.33-3.38a0,0,0,0,0,0,0c-.4.83-.87,1.69-1.37,2.52v9.36c0,3.35-2.92,4.54-7.38,2.81a1.2,1.2,0,0,1-.86-1.51c.14-.65.61-1,1.44-.9,2.73.32,3,.07,3-1.3V75.78a21,21,0,0,1-5.18,4,1.26,1.26,0,0,1-1.87-.32v2.7c0,1.12-.69,1.73-1.88,1.73a1.61,1.61,0,0,1-1.83-1.73v-1H5.09V82.3a1.64,1.64,0,0,1-1.87,1.76c-1.22,0-1.91-.61-1.91-1.76V72.87a2,2,0,0,1,2.23-2.2h4.9a2,2,0,0,1,2.05,1.23.14.14,0,0,1,0-.11,1.57,1.57,0,0,1,1.37-2.06V56.85a2,2,0,0,1,2.23-2.2h.62c.1-.79.18-1.69.28-2.66.15-1.33.94-1.84,2.38-1.62a1.6,1.6,0,0,1,1.37,2.41,16.29,16.29,0,0,1-.94,1.87h1.51a2,2,0,0,1,2.2,2.2v9.21a1.68,1.68,0,0,1,.68.18,1.64,1.64,0,0,1,.47.29c-.07-.61-.18-1.19-.25-1.73a1.17,1.17,0,0,1,.94-1.47,1.15,1.15,0,0,1,1.44.93,36.46,36.46,0,0,1,1.65,6.59V61.42H23.23a1.44,1.44,0,0,1,0-2.88H26.4v-5.9a1.86,1.86,0,0,1,2.12-2,1.87,1.87,0,0,1,2.13,2v5.9h.86A1.27,1.27,0,0,1,32.92,60ZM6.93,73.8a.41.41,0,0,0-.43-.43h-1a.41.41,0,0,0-.43.43v4.61H6.93Zm10.4-2.37a18.33,18.33,0,0,1-4.5,1.8c-1.15.32-1.91,0-2.23-.94,0,.18,0,.36,0,.58V78a2.11,2.11,0,0,1,.43-.4A30,30,0,0,0,17.33,71.43Zm.36-13.72a.41.41,0,0,0-.43-.43H16a.41.41,0,0,0-.43.43v1.66h2.12Zm0,4.21H15.57v2.13h2.12ZM15.57,66.6v2.52c.72-.14,1.44-.29,2.12-.46V66.6Z"/><path class="cls-1" d="M67.08,54V82.33c0,1.44-.83,2-2.38,2s-2.3-.61-2.3-2v-.14H42.5v.22c0,1.4-.76,2-2.31,2s-2.37-.54-2.37-2V54A2,2,0,0,1,40,51.77H64.88A2,2,0,0,1,67.08,54ZM62.4,79.42V55a.42.42,0,0,0-.43-.44H58.08c.15.08.33.15.51.26a11.53,11.53,0,0,1,1.87,1.72,1.33,1.33,0,0,1-.25,2.2h.39a1.17,1.17,0,0,1,1.3,1.33,1.2,1.2,0,0,1-1.34,1.33H56.14c.11,2.16.25,4.11.43,5.76.4-1,.76-2,1.12-3.13A1.73,1.73,0,0,1,60,62.68,1.62,1.62,0,0,1,61,65a30.26,30.26,0,0,1-3.49,7,4.36,4.36,0,0,0,1.3,2.23c.47.32.65-.65.65-3.27a1.06,1.06,0,0,1,1.07-1.19,1.14,1.14,0,0,1,1.23,1.11c.76,6.7-.72,8.5-3.2,7.81-1.48-.43-2.67-1.65-3.64-3.63a18.59,18.59,0,0,1-5.58,3.74,1.07,1.07,0,0,1-1.58-.47,1.16,1.16,0,0,1,.5-1.62A19.45,19.45,0,0,0,53.87,72a48.27,48.27,0,0,1-1.4-10.66H44.3a1.33,1.33,0,1,1,0-2.66h8.09c0-.72,0-1.44,0-2.2a1.6,1.6,0,0,1,1.83-1.72c1.12,0,1.88.5,1.88,1.69v2.23h2.34l-.22-.32c-.47-.9-.9-1.55-1.37-2.31A1,1,0,0,1,57,54.73a1.35,1.35,0,0,1,.32-.19H42.93a.42.42,0,0,0-.43.44V79.42ZM52.5,73a29.44,29.44,0,0,1-7.59,3,1.59,1.59,0,0,1-2.2-1.3,1.75,1.75,0,0,1,1.48-2.34A54,54,0,0,0,51.67,71a1,1,0,0,1,1.41.57A1,1,0,0,1,52.5,73Zm-9-4.17v-4c0-1.44.61-2,2.05-2h4.39c1.4,0,2.05.61,2.05,2v4c0,1.44-.65,2-2.05,2H45.52C44.08,70.81,43.47,70.24,43.47,68.8Zm3.2-.83a.36.36,0,0,0,.4.4h1.4a.39.39,0,0,0,.43-.4V65.56a.39.39,0,0,0-.43-.4h-1.4a.36.36,0,0,0-.4.4Z"/><path class="cls-1" d="M81.66,68.26c-.21-.72-.47-1.4-.68-2v16c0,1.33-.83,2-2.34,2s-2.38-.72-2.38-2V70.31A22.09,22.09,0,0,1,74,74.74c-.47.72-1.11.93-1.65.5A1.24,1.24,0,0,1,72,73.51,41.37,41.37,0,0,0,75.8,60.84H73.92a1.39,1.39,0,0,1,0-2.77h2.34V52.42c0-1.4.83-2.09,2.38-2.09S81,51,81,52.42v5.65h1.83a1.39,1.39,0,0,1,0,2.77H81v1.41a19.47,19.47,0,0,1,3.38,4.39,1.51,1.51,0,0,1-.54,2.3C82.85,69.48,82,69.23,81.66,68.26Zm22.68,12.45a2.18,2.18,0,0,1-3.42.72,17.36,17.36,0,0,1-5.15-6v6.59c0,1.44-.86,2.19-2.44,2.19s-2.45-.75-2.45-2.19V75.89a20.81,20.81,0,0,1-7.27,5.8,1.21,1.21,0,0,1-1.69-.44c-.36-.61-.22-1.15.46-1.69A23.76,23.76,0,0,0,89.22,72H84a1.21,1.21,0,0,1-1.3-1.33A1.18,1.18,0,0,1,84,69.38h6.91v-.9c0-1.41.86-2.09,2.45-2.09s2.44.68,2.44,2.09v.9h7a1.33,1.33,0,0,1,0,2.66h-6.3a21.31,21.31,0,0,0,6.84,5.33A2.22,2.22,0,0,1,104.34,80.71ZM82.89,56.6a1.12,1.12,0,0,1-.11-1.52,1,1,0,0,1,1.37-.32,17.24,17.24,0,0,1,3.52,1.91,1.52,1.52,0,0,1,.26,2.48c-.83.94-1.77,1-2.49.11A34.64,34.64,0,0,0,82.89,56.6ZM84.54,63a24.77,24.77,0,0,0,3.71-3.17,1.16,1.16,0,0,1,1.8,1.44,19.6,19.6,0,0,1-3.28,4.43,1.56,1.56,0,0,1-2.59-.14A1.61,1.61,0,0,1,84.54,63Zm0-10.47a1.09,1.09,0,0,1-.15-1.52,1.14,1.14,0,0,1,1.51-.43A13.91,13.91,0,0,1,89,52.49,1.74,1.74,0,1,1,86.63,55,20,20,0,0,0,84.51,52.57Zm19.65,10.87A1.4,1.4,0,0,1,102,62.5c-.15-.47-.29-1-.4-1.4-.07,1.11-.14,1.9-.21,2.59C101,66.82,98.22,67.61,95,66a1.31,1.31,0,0,1-.51-1.55,1.05,1.05,0,0,1,1.23-.72c1.47.18,1.83.14,1.94-.61.18-1.73.36-5.33.4-8.32a.4.4,0,0,0-.44-.43H96.49c-.54,6.26-2,10.58-7.27,13.1-.72.36-1.22.25-1.58-.36A1.12,1.12,0,0,1,88,65.42a11.24,11.24,0,0,0,3.68-4.65,28,28,0,0,0-2.78-3.2,1.06,1.06,0,0,1,0-1.44,1.09,1.09,0,0,1,1.4-.22,13.38,13.38,0,0,1,2.16,1.48c.11-.94.22-2,.26-3.06H91.35a1.33,1.33,0,1,1,0-2.66h8.24c1.55,0,2.34.9,2.3,2.52,0,.79,0,1.47-.07,2.15a34.52,34.52,0,0,1,3,4.86A1.46,1.46,0,0,1,104.16,63.44Z"/><path class="cls-1" d="M140.3,66.21c-.57,1.55-2.05,1.91-3.74,1.15a22.22,22.22,0,0,1-4.39-2.59,2.41,2.41,0,0,1,.25,1.19v16c0,1.47-.9,2.27-2.55,2.27s-2.56-.8-2.56-2.27V66c0-1.48.9-2.31,2.56-2.31a3.14,3.14,0,0,1,1.07.15,23.77,23.77,0,0,1-6-7.71,28.49,28.49,0,0,1-15,11.63c-.79.29-1.4.07-1.65-.58a1.14,1.14,0,0,1,.57-1.62,29.47,29.47,0,0,0,12.75-13.89c.64-1.48,1.94-1.84,3.52-1.15a2.22,2.22,0,0,1,1.23,3.2,25.7,25.7,0,0,0,12.31,8.82C140.41,63.11,141,64.37,140.3,66.21ZM121.48,66V68.3c0,8.31-3.21,13.39-10.19,15.8a1.26,1.26,0,0,1-1.65-.58,1.22,1.22,0,0,1,.5-1.62c4.93-3.45,6.23-6.87,6.23-13.78V66c0-1.47,1-2.27,2.62-2.27S121.48,64.52,121.48,66Z"/><path class="cls-1" d="M149,74.52a25.92,25.92,0,0,1-.61,7,2,2,0,0,1-2.88,1.54c-1.4-.54-1.69-1.58-.86-3a21.14,21.14,0,0,0,2.09-5.87c.14-.75.61-1.11,1.22-1S148.91,73.62,149,74.52ZM147.29,68a34.68,34.68,0,0,0,3.28-5.15,18.86,18.86,0,0,1-3.42.87c-1.37.25-2.38-.25-2.52-1.66s.47-2.09,2.05-2.05h.14a48.38,48.38,0,0,0,2.2-7.56c.32-1.62,1.29-2.23,2.81-1.83s2,1.47,1.33,3a29.76,29.76,0,0,1-3.46,6.33c.8,0,1.59-.07,2.34-.14.4-.9.76-1.8,1.12-2.7a2,2,0,0,1,3-1.3c1.29.54,1.54,1.77.82,3.21a32.82,32.82,0,0,1-6.47,8.78c1.22-.07,2.44-.21,3.63-.39a11,11,0,0,0-.47-1.26,1.07,1.07,0,0,1,.4-1.48c.54-.32,1-.14,1.47.36a14.8,14.8,0,0,1,2.7,4.36c.47,1.15.22,2-.82,2.41a1.56,1.56,0,0,1-2.31-1.16l-.25-1A28.65,28.65,0,0,1,147.29,72c-1.51.21-2.63-.29-2.81-1.73S145,68,146.64,68Zm6.59,12.2c.14,1.41-.4,2.2-1.8,2.34S150,82,150,80.5a54.34,54.34,0,0,0,0-6.37c0-.72.29-1.16.9-1.23a1.13,1.13,0,0,1,1.26.83A25,25,0,0,1,153.88,80.17Zm4.46-2.8a1.74,1.74,0,0,1-.9,2.59,1.66,1.66,0,0,1-2.52-1.26,31.17,31.17,0,0,0-1.58-5.15c-.25-.68-.15-1.15.43-1.48a1.23,1.23,0,0,1,1.51.36A15.82,15.82,0,0,1,158.34,77.37Zm1.08-9.43a1,1,0,0,1-1.51-.33,1.14,1.14,0,0,1,.22-1.58c2.73-2.77,4.06-6,4.42-11.2h-3.63a1.24,1.24,0,0,1-1.37-1.33,1.25,1.25,0,0,1,1.37-1.37h14.54c1.4,0,2.12.83,2.12,2.31a66.18,66.18,0,0,1-.68,9.36c-.58,3.6-4.64,4.06-8.82,1.72a1.25,1.25,0,0,1-.68-1.58,1.11,1.11,0,0,1,1.37-.76c3,.54,3.42.36,3.56-1.11.14-1.73.36-4.43.36-6.77,0-.29-.11-.47-.4-.47h-3C166.66,60.84,164.35,65.31,159.42,67.94Zm15.84,2.73V81.94c0,1.44-.86,2.19-2.45,2.19s-2.45-.75-2.45-2.19v-.61h-6.51v.72c0,1.4-.83,2.12-2.41,2.12S159,83.45,159,82.05V70.67a2,2,0,0,1,2.19-2.19h11.84A2,2,0,0,1,175.26,70.67Zm-4.9,7.92v-7a.42.42,0,0,0-.43-.44h-5.65a.42.42,0,0,0-.43.44v7Z"/></g></g></svg>