<svg xmlns="http://www.w3.org/2000/svg" viewBox="0 0 168.47 221.87"><defs><style>.cls-1{fill:#40a6a3;}.cls-2{fill:#7bb3d6;}.cls-3{fill:#f9d5b0;}.cls-4{fill:#d99c50;}.cls-5{fill:#ca734c;}</style></defs><title>14_government_03</title><g id="圖層_2" data-name="圖層 2"><g id="hand"><polygon class="cls-1" points="69.73 121.55 0 176.65 11.42 202.66 84.24 153.77 69.73 121.55"/><path class="cls-2" d="M154,221.08l-113.57.79L40,161.1c-.17-24.63,25.11-44.78,56.47-45h0c31.36-.22,56.93,19.58,57.1,44.22Z"/><path class="cls-3" d="M95.62,36c19.74.31,36.74,10.32,45.26,24.78a20.88,20.88,0,1,1,6.37,40.65,20.42,20.42,0,0,1-5.16-.75c-8.25,16-26.66,27-47.9,26.67-28.61-.45-51.48-21.26-51.08-46.49S67,35.58,95.62,36Z"/><rect class="cls-3" x="49.24" y="36.14" width="94.64" height="29.5"/><path class="cls-1" d="M116,0H75.55C57.65,0,43.14,14,43.14,31.31l1.18,40.32,3.2-9.38,6.65-21.61c.7-2.37,2.09-4.5,4.65-4.5h73.93c2.57,0,3.66,1.73,4.65,4.5L143,64.12l5.4.19v-33C148.43,14,133.92,0,116,0Z"/><path class="cls-1" d="M104.62,75.17a3.82,3.82,0,1,1-3.8-3.84A3.82,3.82,0,0,1,104.62,75.17Z"/><path class="cls-1" d="M81.57,75.47a3.83,3.83,0,1,1-3.8-3.84A3.83,3.83,0,0,1,81.57,75.47Z"/><path class="cls-1" d="M80.81,87.24H65.12a6.59,6.59,0,0,1-6.58-6.59V65a6.59,6.59,0,0,1,6.58-6.58H80.81A6.59,6.59,0,0,1,87.39,65V80.65A6.59,6.59,0,0,1,80.81,87.24ZM65.12,60.65A4.32,4.32,0,0,0,60.81,65V80.65A4.31,4.31,0,0,0,65.12,85H80.81a4.32,4.32,0,0,0,4.31-4.31V65a4.32,4.32,0,0,0-4.31-4.31Z"/><path class="cls-1" d="M113.44,87.24H97.76a6.6,6.6,0,0,1-6.59-6.59V65a6.59,6.59,0,0,1,6.59-6.58h15.68A6.59,6.59,0,0,1,120,65V80.65A6.6,6.6,0,0,1,113.44,87.24ZM97.76,60.65A4.33,4.33,0,0,0,93.44,65V80.65A4.32,4.32,0,0,0,97.76,85h15.68a4.31,4.31,0,0,0,4.31-4.31V65a4.32,4.32,0,0,0-4.31-4.31Z"/><path class="cls-4" d="M92.31,96h-.17l-6.93-1a1.15,1.15,0,0,1-.95-1.38l4.38-19.38a1.14,1.14,0,0,1,2.22.5L86.75,92.93l5.72.83A1.14,1.14,0,0,1,92.31,96Z"/><path class="cls-3" d="M43.14,80l6.44-40.52a4.21,4.21,0,0,1,4.29-3.34H74.59Z"/><path class="cls-5" d="M91.17,109a1.15,1.15,0,0,1-1.07-.74,1.14,1.14,0,0,1,.67-1.46l9.63-3.62a1.13,1.13,0,1,1,.8,2.12l-9.63,3.63A1.12,1.12,0,0,1,91.17,109Z"/></g></g></svg>