<svg xmlns="http://www.w3.org/2000/svg" viewBox="0 0 133.6 227.58"><defs><style>.cls-1{fill:#7bb3d6;}.cls-2{fill:#f9d5b0;}.cls-3{fill:#40a6a3;}.cls-4{fill:#ca734c;}.cls-5{fill:#d99c50;}</style></defs><title>14_government_01</title><g id="圖層_2" data-name="圖層 2"><g id="hand"><path class="cls-1" d="M14.49,226.8l113.57.78.42-60.76c.17-24.64-25.12-44.79-56.48-45h0C40.64,121.6,15.08,141.39,14.91,166Z"/><path class="cls-2" d="M72.84,41.75C53.1,42.06,36.1,52.06,27.58,66.52a21.17,21.17,0,0,0-7-1.12,20.89,20.89,0,0,0,.66,41.78,21.36,21.36,0,0,0,5.16-.75c8.25,16,26.65,27,47.89,26.66,28.61-.45,51.48-21.26,51.09-46.48S101.45,41.3,72.84,41.75Z"/><path class="cls-3" d="M50.71,0H91.19c17.89,0,56,21.36,37.42,68.64l-4.47,8.7L120.94,68l-6.65-21.62c-.7-2.36-2.08-4.49-4.65-4.49H35.72c-2.57,0-3.66,1.73-4.65,4.49L25.43,69.84,20.56,65.4,16.11,53.94C10.9,32.64,22.32,4.89,43.84.69A36.21,36.21,0,0,1,50.71,0Z"/><path class="cls-3" d="M74.46,83.38a3.82,3.82,0,1,0,4-3.59A3.82,3.82,0,0,0,74.46,83.38Z"/><path class="cls-3" d="M97.45,85.18a3.82,3.82,0,1,0,4-3.59A3.81,3.81,0,0,0,97.45,85.18Z"/><path class="cls-2" d="M125.33,85.69l-6.45-40.53a4.21,4.21,0,0,0-4.28-3.34H93.87Z"/><path class="cls-4" d="M74.53,112.76a6.07,6.07,0,0,1-4.21-1.69l-3.59-3.44A1.14,1.14,0,1,1,68.3,106l3.59,3.44a3.82,3.82,0,0,0,2.9,1l4.06-.28a1.12,1.12,0,0,1,1.21,1.06,1.14,1.14,0,0,1-1,1.21l-4.07.28Z"/><path class="cls-3" d="M47.13,61.15c-5.22,9-14.39,13.51-20.49,10s-6.81-13.7-1.59-22.74,14.39-13.51,20.49-10S52.34,52.11,47.13,61.15Z"/><path class="cls-3" d="M69.73,50c-5.22,9-14.39,13.51-20.49,10s-6.81-13.7-1.59-22.74S62,23.71,68.14,27.23,75,40.93,69.73,50Z"/><path class="cls-3" d="M89,50c-5.22,9-14.39,13.51-20.49,10s-6.8-13.7-1.59-22.74,14.39-13.51,20.49-10S94.19,40.93,89,50Z"/><path class="cls-3" d="M107,50c-5.22,9-14.39,13.51-20.49,10S79.74,46.26,85,37.22s14.39-13.51,20.49-10S112.26,40.93,107,50Z"/><path class="cls-3" d="M119.44,52.56c-5.22,9-14.39,13.51-20.49,10s-6.81-13.7-1.59-22.74,14.39-13.51,20.49-10S124.66,43.52,119.44,52.56Z"/><path class="cls-3" d="M131.28,56.14c.38,10.43-5,19.1-12,19.35s-13-8-13.43-18.41,5-19.1,12-19.35S130.9,45.72,131.28,56.14Z"/><path class="cls-5" d="M56,102.88a1.09,1.09,0,0,1-.64-.21,1.13,1.13,0,0,1-.29-1.58c2.23-3.23,11.15-5.47,12.16-5.71a1.14,1.14,0,1,1,.53,2.21c-3.48.85-9.51,2.9-10.82,4.79A1.15,1.15,0,0,1,56,102.88Z"/><path class="cls-5" d="M92.8,90.38A4.11,4.11,0,1,1,89,86,4.11,4.11,0,0,1,92.8,90.38Z"/><path class="cls-3" d="M65,193.24h0c-8.47,7-19.74,7.8-26.8-.64L15,164.77a20,20,0,0,1,2.59-28.13h0a20,20,0,0,1,28.13,2.59L68.88,167C76,175.44,73.54,186.17,65,193.24Z"/></g></g></svg>