<svg xmlns="http://www.w3.org/2000/svg" viewBox="0 0 160.54 211.27"><defs><style>.cls-1{fill:#7bb3d6;}.cls-2{fill:#f9d5b0;}.cls-3{fill:#40a6a3;}.cls-4{fill:#d99c50;}.cls-5{fill:#ca734c;}.cls-6{fill:#edc156;}</style></defs><title>15_join_02</title><g id="圖層_2" data-name="圖層 2"><g id="hand"><path class="cls-1" d="M55.05,211.27h79.86l-1-49.62c-.4-18.87-17.85-33.81-39-33.36h0c-21.12.45-37.92,16.12-37.52,35Z"/><polygon class="cls-2" points="64.57 148.81 38.56 19.41 7.56 27.66 60.59 159.9 64.57 148.81"/><polygon class="cls-1" points="59.8 163.81 40.16 127.72 64.57 115.31 73.18 141.65 59.8 163.81"/><circle class="cls-2" cx="22.72" cy="22.72" r="22.72" transform="translate(-4.63 5.86) rotate(-13.34)"/><path class="cls-1" d="M58.75,57c-9.11,22.27,3.86,48.65,29,58.92s52.84.53,62-21.74-3.86-48.65-29-58.92S67.87,34.71,58.75,57Z"/><path class="cls-2" d="M59,67.34A18.26,18.26,0,0,1,64.7,71.1c11.43-7.46,27.07-9.46,42.08-4.06,16.47,5.91,27.86,19.18,30.86,33.75a18.53,18.53,0,1,1-10.43,33.81c-11.5,11.06-30.09,15-47.81,8.64-19.29-6.93-31.62-24-31.64-41.33a16.7,16.7,0,0,1-2.63-.83A18.23,18.23,0,0,1,59,67.34Z"/><path class="cls-3" d="M83.07,92.33a3.86,3.86,0,1,0,5-2.13A3.86,3.86,0,0,0,83.07,92.33Z"/><path class="cls-3" d="M100.85,100.22a3.86,3.86,0,1,0,5-2.14A3.86,3.86,0,0,0,100.85,100.22Z"/><path class="cls-4" d="M90,102.36a2.48,2.48,0,1,0,3.35-1A2.49,2.49,0,0,0,90,102.36Z"/><path class="cls-1" d="M121,81.18a15.7,15.7,0,1,0,20.48-8.59A15.69,15.69,0,0,0,121,81.18Z"/><path class="cls-1" d="M101.74,71.13a15.7,15.7,0,1,0,20.48-8.58A15.7,15.7,0,0,0,101.74,71.13Z"/><path class="cls-1" d="M80.13,63.1a15.7,15.7,0,1,0,20.48-8.59A15.71,15.71,0,0,0,80.13,63.1Z"/><path class="cls-1" d="M58,58.86a15.7,15.7,0,1,0,20.48-8.58A15.71,15.71,0,0,0,58,58.86Z"/><path class="cls-5" d="M154.29,80.92c10.87-16.64,7.38-39.19-9-52.58C129.14,15.12,106,15.42,90.91,28.13l-.37-.74c-.58-1.28-.23,1.25-1.55,1.78s-3.8-1.15-3.22.14l4.59,9.28.06,0c4.83,9.26,12.75,18.91,23.13,27.4a95.37,95.37,0,0,0,29.84,16.86l6.39,2C151.18,85.11,154.29,80.92,154.29,80.92Z"/><path class="cls-6" d="M87.1,26c-4.52,2.1,2.06,14.92,14.26,29s25.48,24.37,30,21.61C134,75,124.94,61.68,120.76,56,106.41,36.24,90.42,24.49,87.1,26Z"/><path class="cls-4" d="M55.05,125.78a1.1,1.1,0,0,1-.92-.49,41.9,41.9,0,0,1-7.47-22.52,16.42,16.42,0,0,1-1.95-.67,19.33,19.33,0,0,1-3.4-34,1.11,1.11,0,0,1,1.54.3A1.1,1.1,0,0,1,42.54,70a17.13,17.13,0,0,0,3,30.1,18.14,18.14,0,0,0,2.47.78,1.1,1.1,0,0,1,.84,1.07A39.64,39.64,0,0,0,56,124.05a1.12,1.12,0,0,1-.29,1.54A1.18,1.18,0,0,1,55.05,125.78Z"/><path class="cls-5" d="M92.18,118.29a4.7,4.7,0,1,1-4.7-4.7A4.7,4.7,0,0,1,92.18,118.29Z"/></g></g></svg>