<svg xmlns="http://www.w3.org/2000/svg" viewBox="0 0 53.2 101.12"><defs><style>.cls-1{fill:#fff;}.cls-2{fill:#ca734c;}.cls-3{fill:#40a6a3;}</style></defs><title>16_down_02</title><g id="圖層_2" data-name="圖層 2"><g id="hand"><path class="cls-1" d="M38,85.53A18.15,18.15,0,1,1,22.58,65,18.15,18.15,0,0,1,38,85.53Z"/><path class="cls-1" d="M43.33,44.76l9.53-30.59A7.54,7.54,0,1,0,38.47,9.69L30.13,36.45a29.21,29.21,0,0,0-3.42-.73,28.89,28.89,0,0,0-3.45-.25L22.55,7.35A7.54,7.54,0,0,0,14.83,0h0A7.55,7.55,0,0,0,7.48,7.73l.81,32A18.31,18.31,0,0,0,.17,52.2C-1.39,63.17,8,73.56,21.06,75.43S46,69.91,47.6,59A18.28,18.28,0,0,0,43.33,44.76Z"/><path class="cls-2" d="M31.43,55.65a2.13,2.13,0,1,1-1.87-2.36A2.14,2.14,0,0,1,31.43,55.65Z"/><path class="cls-2" d="M20.74,54.77a2.13,2.13,0,0,1-4.23-.5,2.13,2.13,0,1,1,4.23.5Z"/><path class="cls-3" d="M25.39,60.08c-.07.66-1.07,1.08-2.21.94s-2-.78-1.94-1.43,1.07-1.08,2.22-1S25.47,59.42,25.39,60.08Z"/></g></g></svg>