<svg xmlns="http://www.w3.org/2000/svg" viewBox="0 0 119.12 181.97"><defs><style>.cls-1{fill:#7bb3d6;}.cls-2{fill:#f9d5b0;}.cls-3{fill:#d99c50;}.cls-4{fill:#ca734c;}.cls-5{fill:#f6c855;}.cls-6{fill:#40a6a3;}.cls-7{fill:#fff;}</style></defs><title>16_down_01</title><g id="圖層_2" data-name="圖層 2"><g id="hand"><path class="cls-1" d="M35.47,115.2,84.6,125.53l7-33.46A25.11,25.11,0,0,0,72.23,62.34h0A25.1,25.1,0,0,0,42.5,81.74Z"/><path class="cls-1" d="M79,9.18c11.23,3.2,19.41,17.55,19.24,24.17-.17,6.86.12,6.71.12,6.71l-3.48-4.44c-6.8,3.58-22.77,9.9-45.63,6,0,0-1.67-4-7.75-3.56v0A29.46,29.46,0,0,1,79,9.18Z"/><path class="cls-2" d="M44.45,37.15a10.84,10.84,0,0,1,3.66.35C52,29.76,60.45,24,70.62,23.22,85.36,22,98.15,31.62,99.19,44.61S89.13,69.09,74.39,70.27c-10.94.88-20.8-4.18-25.58-12.16a10.42,10.42,0,0,1-2.64.56,10.79,10.79,0,0,1-1.72-21.52Z"/><path class="cls-1" d="M73.84,48.42a2.17,2.17,0,1,0,1.77-2.51A2.18,2.18,0,0,0,73.84,48.42Z"/><path class="cls-3" d="M79.8,50.56a1.45,1.45,0,1,0,1.56-1.34A1.46,1.46,0,0,0,79.8,50.56Z"/><path class="cls-1" d="M82.91,47.09a2.17,2.17,0,1,0,1.77-2.51A2.18,2.18,0,0,0,82.91,47.09Z"/><path class="cls-4" d="M80.29,56.34c.2,1.17,1,2,1.91,1.85a1.93,1.93,0,0,0,1.19-2.38c-.2-1.16-1.06-2-1.91-1.84A1.92,1.92,0,0,0,80.29,56.34Z"/><path class="cls-1" d="M42.32,29.34A29.42,29.42,0,0,1,78.69,9.1c11.23,3.2,19.88,14.74,19.54,24.25-.09.07-.57.4-1.39.9a3.32,3.32,0,0,1-2.79,5.69,3.21,3.21,0,0,1-1.3-.5,3.31,3.31,0,0,1-5.64.81,3.32,3.32,0,0,1-3.61,2.13,3.23,3.23,0,0,1-1.65-.76,3.3,3.3,0,0,1-5.95.8,3.3,3.3,0,0,1-6,.91,3.31,3.31,0,0,1-5.65.46,3.31,3.31,0,0,1-5.63,0,3.31,3.31,0,0,1-3,1.16,3.24,3.24,0,0,1-1.88-1,3.31,3.31,0,0,1-4.93-2.74c-.48-.86-2.46-3.65-7.62-3.3v0A29.52,29.52,0,0,1,42.32,29.34Z"/><path class="cls-5" d="M40.14,30.76C38.51,17,47.67,4,62,.76,76.18-2.47,90.5,4.88,96,17.47l.45-.34c.76-.62-.23.85.42,1.59s2.72.46,2,1.08l-5.73,4.36,0,0A63.48,63.48,0,0,1,70.16,34a66.57,66.57,0,0,1-23.82,1.28l-4.59-.77C40.77,34.33,40.14,30.76,40.14,30.76Z"/><path class="cls-6" d="M99,17.34C101.18,20.05,93.11,26,81.15,31s-23.43,7.3-25.39,4.18c-1.15-1.83,8.62-7.33,13-9.61C83.81,17.73,97.42,15.36,99,17.34Z"/><path class="cls-6" d="M42.47,80.68c0,.36.1.71.16,1.06a16.09,16.09,0,0,0-2-2.3,15.91,15.91,0,0,0-21.87,23.1c.26.24.53.46.81.69a15.9,15.9,0,1,0-4.31,31.36h.2c0,.14.07.29.1.43a17.15,17.15,0,0,0-1.79,1.22,15.9,15.9,0,0,0,19.31,25.25l.86.58c-.1.4-.21.79-.28,1.2A15.91,15.91,0,0,0,65,168.86c0-.19,0-.38.07-.58l.24,0a15.88,15.88,0,0,0,30.65-6.18,15.91,15.91,0,0,0,8.87-29.9c-.32-.17-.64-.31-1-.45a16.57,16.57,0,0,0,3-.4,15.91,15.91,0,0,0-7.29-31c-.35.08-.68.19-1,.3a16.33,16.33,0,0,0,2-2.29A15.9,15.9,0,1,0,74.71,79.81c-.21.29-.39.59-.58.89a15.43,15.43,0,0,0,0-3,15.91,15.91,0,0,0-31.67,3Z"/><path class="cls-7" d="M24.15,149c-2.43,0-4.4-1.55-5.94-2.75-1.2-.94-2.33-1.82-3.31-1.87a2.05,2.05,0,0,1,.2-4.1c2.28.12,4.07,1.51,5.64,2.74,2,1.54,2.93,2.16,4.07,1.75s1.46-1.54,1.94-4,1.15-5.76,4.55-7,6.06.83,8,2.36,2.95,2.16,4.07,1.74,1.46-1.53,1.95-4,1.15-5.76,4.54-7,6.07.83,8,2.36S60.83,131.43,62,131s1.47-1.54,2-4a11.74,11.74,0,0,1,1.81-5A2,2,0,1,1,69,124.49a9,9,0,0,0-1.07,3.33c-.48,2.43-1.14,5.76-4.54,7s-6.07-.83-8-2.36-2.94-2.16-4.07-1.74-1.46,1.54-1.95,4-1.14,5.76-4.54,7-6.07-.83-8-2.36-2.93-2.16-4.07-1.74-1.46,1.53-1.95,4-1.14,5.76-4.53,7A6,6,0,0,1,24.15,149Z"/><path class="cls-7" d="M26.69,126.72c-2.42,0-4.4-1.55-5.93-2.75-1.2-.94-2.33-1.82-3.31-1.87a2,2,0,1,1,.2-4.09c2.28.11,4.06,1.51,5.64,2.74,2,1.53,2.94,2.16,4.06,1.74s1.47-1.53,1.95-4,1.15-5.76,4.54-7,6.07.83,8,2.36,2.93,2.16,4.07,1.75,1.46-1.54,2-4,1.14-5.77,4.54-7,6.07.83,8,2.36,2.94,2.17,4.08,1.74,1.47-1.53,2-4a12.07,12.07,0,0,1,1.81-5,2.05,2.05,0,0,1,3.28,2.46,9.11,9.11,0,0,0-1.07,3.33c-.48,2.43-1.14,5.76-4.54,7s-6.08-.83-8-2.35S55,108,53.85,108.44s-1.47,1.53-2,4-1.15,5.76-4.54,7-6.07-.83-8-2.36-2.94-2.16-4.07-1.75-1.46,1.54-2,4-1.14,5.76-4.54,7A6,6,0,0,1,26.69,126.72Z"/><path class="cls-7" d="M38.62,102.45c-2.42,0-4.4-1.55-5.93-2.75-1.2-.94-2.33-1.82-3.31-1.87a2.05,2.05,0,0,1,.2-4.1c2.28.12,4.06,1.51,5.63,2.74,2,1.54,2.94,2.18,4.07,1.75s1.46-1.54,1.95-4,1.14-5.76,4.54-7,6.07.83,8,2.36,2.93,2.16,4.07,1.74,1.46-1.53,1.94-4,1.15-5.76,4.55-7,6.07.83,8,2.36,2.93,2.17,4.08,1.74,1.46-1.54,2-4a12.07,12.07,0,0,1,1.81-5,2.05,2.05,0,0,1,3.28,2.46,8.93,8.93,0,0,0-1.07,3.33c-.49,2.43-1.15,5.76-4.54,7s-6.08-.83-8-2.35-2.93-2.17-4.08-1.75-1.46,1.54-1.95,4-1.14,5.76-4.54,7-6.07-.84-8-2.37-2.93-2.15-4.07-1.74-1.46,1.53-1.94,4-1.14,5.76-4.54,7A6,6,0,0,1,38.62,102.45Z"/><path class="cls-2" d="M50.34,79.29a7.91,7.91,0,1,1-7.91-7.91A7.91,7.91,0,0,1,50.34,79.29Z"/></g></g></svg>