<svg xmlns="http://www.w3.org/2000/svg" viewBox="0 0 192.84 210.12"><defs><style>.cls-1{fill:#f9d5b0;}.cls-2{fill:#40a6a3;}.cls-3{fill:#d99c50;}</style></defs><title>2_dad_01</title><g id="圖層_2" data-name="圖層 2"><g id="hand"><path class="cls-1" d="M189.18,68.66l-10.45-5.29a6.68,6.68,0,0,0-9,2.94L164,77.69l-3-1.54a4.43,4.43,0,0,0-6,1.95L144.8,98.27l7.34,3.71,2.76-5.45,22,11.14,15.21-30A6.68,6.68,0,0,0,189.18,68.66Z"/><path class="cls-2" d="M180.78,103.25,148.3,89s-25.86,19.79-40.15,29.05H59.31A50.32,50.32,0,0,0,9,168.39V197a13.1,13.1,0,0,0,13.11,13.1h102.5c7.24,0,8.34-3,8.34-3,15.24-16.73,31.52-52.73,38.41-74.32Z"/><rect class="cls-1" x="29.28" y="27.42" width="89.9" height="34.93"/><path class="cls-2" d="M93.75,0h-40A29.74,29.74,0,0,0,24,29.74v29.4h5l6.57-25.3c.64-2.25,1.91-4.27,4.27-4.27H107.6c2.36,0,3.36,1.64,4.27,4.27l6.57,25.3h5V29.74A29.74,29.74,0,0,0,93.75,0Z"/><path class="cls-1" d="M121.46,57.43a19.82,19.82,0,0,0-7.37,1.42C105.62,46.55,90.6,38,73.16,37.26,54,36.41,37,45.12,27.9,58.63A20.27,20.27,0,1,0,24.41,97.2c7.06,16,24.25,27.69,44.84,28.6,22.41,1,42-11.12,49.2-28.71a19.94,19.94,0,1,0,3-39.66Z"/><path class="cls-2" d="M86.67,71.4a3.63,3.63,0,1,1-3.61-3.65A3.62,3.62,0,0,1,86.67,71.4Z"/><path class="cls-2" d="M64.77,71.69A3.63,3.63,0,1,1,61.16,68,3.63,3.63,0,0,1,64.77,71.69Z"/><path class="cls-3" d="M75,91.21h-.15l-6.59-1a1.09,1.09,0,0,1-.73-.45,1.12,1.12,0,0,1-.17-.85l4.16-18.42A1.08,1.08,0,0,1,73.6,71L69.7,88.27l5.43.79A1.07,1.07,0,0,1,76,90.28,1.09,1.09,0,0,1,75,91.21Z"/></g></g></svg>