<svg xmlns="http://www.w3.org/2000/svg" viewBox="0 0 117.9 64.82"><defs><style>.cls-1{fill:#f9d5b0;}.cls-2{fill:#40a6a3;}.cls-3{fill:#7bc9c5;}</style></defs><title>2_dad_05</title><g id="圖層_2" data-name="圖層 2"><g id="hand"><path class="cls-1" d="M117.7,29.82l-3.08-13.23a7.76,7.76,0,0,0-9.31-5.79l-14.4,3.36L90,10.32a5.13,5.13,0,0,0-6.17-3.83L58.31,12.43l2.17,9.3,6.9-1.61L73.87,48l38-8.86A7.75,7.75,0,0,0,117.7,29.82Z"/><path class="cls-2" d="M35.08,8.32,25.36,10.5C8.37,14.3-2.72,29.35.58,44.11h0C3.89,58.86,20.34,67.74,37.32,63.93l9.73-2.17c.51-.12,36.93-8.32,37.43-8.46L72.54,0C72,.09,35.59,8.21,35.08,8.32Z"/><path class="cls-3" d="M29.43,63.23a35.39,35.39,0,0,1-7.51-.79,1.08,1.08,0,0,1,.46-2.11,34.44,34.44,0,0,0,14.71-.11L46.81,58c.33-.07,30.4-6.84,36.38-8.21L78.74,30a1.08,1.08,0,0,1,2.11-.48l4.68,20.9a1.08,1.08,0,0,1-.77,1.28c-.54.14-37.11,8.38-37.47,8.46l-9.73,2.18A37.3,37.3,0,0,1,29.43,63.23Z"/></g></g></svg>