<svg xmlns="http://www.w3.org/2000/svg" viewBox="0 0 58.4 27.41"><defs><style>.cls-1{fill:#40a6a3;}</style></defs><title>2_dad_04</title><g id="圖層_2" data-name="圖層 2"><g id="hand"><path class="cls-1" d="M21.15,27.41H6.26A6.27,6.27,0,0,1,0,21.15V6.26A6.27,6.27,0,0,1,6.26,0H21.15a6.27,6.27,0,0,1,6.26,6.26V21.15A6.27,6.27,0,0,1,21.15,27.41ZM6.26,2.16a4.11,4.11,0,0,0-4.1,4.1V21.15a4.11,4.11,0,0,0,4.1,4.1H21.15a4.11,4.11,0,0,0,4.1-4.1V6.26a4.11,4.11,0,0,0-4.1-4.1Z"/><path class="cls-1" d="M52.15,27.41H37.25A6.26,6.26,0,0,1,31,21.15V6.26A6.26,6.26,0,0,1,37.25,0h14.9A6.26,6.26,0,0,1,58.4,6.26V21.15A6.26,6.26,0,0,1,52.15,27.41ZM37.25,2.16a4.1,4.1,0,0,0-4.09,4.1V21.15a4.1,4.1,0,0,0,4.09,4.1h14.9a4.1,4.1,0,0,0,4.09-4.1V6.26a4.1,4.1,0,0,0-4.09-4.1Z"/></g></g></svg>