<svg xmlns="http://www.w3.org/2000/svg" viewBox="0 0 109.17 161.38"><defs><style>.cls-1{fill:#7bb3d6;}.cls-2{fill:#40a6a3;}.cls-3{fill:#ca734c;}.cls-4{fill:#fff;}</style></defs><title>03_work_03</title><g id="圖層_2" data-name="圖層 2"><g id="castle"><path class="cls-1" d="M22.09,16.41,53,5.05A1,1,0,0,1,54.33,6V28.7a1,1,0,0,1-1.33.93L22.09,18.27A1,1,0,0,1,22.09,16.41Z"/><path class="cls-2" d="M54.33,54.65a2.06,2.06,0,0,0,2.06-2.06V2.06a2.06,2.06,0,0,0-4.12,0V52.59A2.06,2.06,0,0,0,54.33,54.65Z"/><polygon class="cls-3" points="85.68 57.75 85.68 52.32 85.68 42.46 70.89 42.46 70.89 52.32 61.98 52.32 61.98 42.46 47.19 42.46 47.19 52.32 38.28 52.32 38.28 42.46 23.5 42.46 23.5 52.32 23.5 57.75 23.5 58.98 85.68 58.98 85.68 57.75"/><rect class="cls-4" x="23.5" y="58.98" width="62.18" height="48.4"/><polygon class="cls-3" points="109.17 111.17 109.17 106.31 109.17 95.87 94.78 95.87 94.78 106.31 85.87 106.31 85.87 95.87 71.09 95.87 71.09 106.31 62.18 106.31 62.18 95.87 47.39 95.87 47.39 106.31 38.48 106.31 38.48 95.87 23.7 95.87 23.7 106.31 14.79 106.31 14.79 95.87 0 95.87 0 106.31 0 111.17 0 116.57 109.17 116.57 109.17 111.17"/><path class="cls-4" d="M109.17,116.57H0v44.81H35.23V150.63a19.25,19.25,0,0,1,19.25-19.26h0a19.26,19.26,0,0,1,19.26,19.26v10.75h35.43Z"/><path class="cls-1" d="M54.48,131.37h0a19.25,19.25,0,0,0-19.25,19.26v10.75H73.74V150.63A19.26,19.26,0,0,0,54.48,131.37Z"/></g></g></svg>