<svg xmlns="http://www.w3.org/2000/svg" viewBox="0 0 140.97 194.14"><defs><style>.cls-1{fill:#7bb3d6;}.cls-2{fill:#40a6a3;}.cls-3{fill:#f9d5b0;}.cls-4{fill:#d99c50;}.cls-5{fill:#ca734c;}.cls-6{fill:#fff;}</style></defs><title>03_work_01</title><g id="圖層_2" data-name="圖層 2"><g id="圖層_1-2" data-name="圖層 1"><path class="cls-1" d="M122.1,181.91s0,0,0,.05h0Z"/><path class="cls-2" d="M17.88,84.82h98.41A24.68,24.68,0,0,1,141,109.5v32.94a51.7,51.7,0,0,1-51.7,51.7H51.7A51.7,51.7,0,0,1,0,142.44V102.7A17.88,17.88,0,0,1,17.88,84.82Z" transform="translate(140.97 278.96) rotate(180)"/><path class="cls-3" d="M62.5,34.32c15-1.34,28.72,4.9,36.34,15.19a15.74,15.74,0,0,1,5.24-1.4,15.94,15.94,0,1,1-1.15,31.6c-5,12.8-18.08,22.62-34.23,24.06-21.75,1.94-40.77-12-42.49-31.21S40.75,36.26,62.5,34.32Z"/><path class="cls-2" d="M19.66,42.76c-.41-6.77.14-13.63,1.81-17.4A40.38,40.38,0,0,1,39.67,7.12c11.39-5.71,14-5.74,22.94-6.77,26.37-3,50,13.92,52.72,37.85A49.72,49.72,0,0,1,114.75,51l-1.58-1a17.49,17.49,0,0,0-14.33-.5C94.6,51.11,88,56.93,86.28,57.45a8.59,8.59,0,0,1-1.76.34A8,8,0,0,1,78.68,56a5.69,5.69,0,0,0-4.27-1.34,5.8,5.8,0,0,0-4,2.11A8.11,8.11,0,0,1,65,59.6a8,8,0,0,1-5.84-1.74,5.82,5.82,0,0,0-8.25.77,8.13,8.13,0,0,1-5.46,2.79,8,8,0,0,1-5.85-1.74,5.7,5.7,0,0,0-4.28-1.34,5.82,5.82,0,0,0-4,2.11c-1.21,1.18-1.94,4.07-4.81,4.33l-.65-1.54C22.77,59.27,20.19,51.48,19.66,42.76Z"/><path class="cls-2" d="M47.41,71.31a2.81,2.81,0,1,0,2.52-3.07A2.8,2.8,0,0,0,47.41,71.31Z"/><path class="cls-4" d="M54.53,74.66a1.88,1.88,0,1,0,2.14-1.59A1.88,1.88,0,0,0,54.53,74.66Z"/><path class="cls-2" d="M59.25,70.42a2.81,2.81,0,1,0,2.52-3.07A2.81,2.81,0,0,0,59.25,70.42Z"/><path class="cls-5" d="M55.69,85.26c-4.08,0-7.63-1.84-8.94-4.75a1,1,0,1,1,1.8-.81c1.1,2.45,4.64,3.94,8.42,3.51s6.92-2.63,7.46-5.26a1,1,0,1,1,1.94.4c-.72,3.5-4.5,6.31-9.18,6.83A12.79,12.79,0,0,1,55.69,85.26Z"/><path class="cls-1" d="M31.71,93.31l0,0,0,0Z"/><path class="cls-2" d="M77.68,162.91c-2,.48-20.33,2.12-28.25,2.82a3.91,3.91,0,0,0-3.73,3.58l-.85,24.24H84.51Z"/><path class="cls-6" d="M73.77,104a1,1,0,0,1-.32-1.92c37.71-12.75,26.75-58.27,26.64-58.73a1,1,0,1,1,1.91-.48c.12.47,11.5,47.76-27.92,61.08A.84.84,0,0,1,73.77,104Z"/></g></g></svg>