<svg xmlns="http://www.w3.org/2000/svg" viewBox="0 0 37.01 37.3"><defs><style>.cls-1{fill:#ca734c;}.cls-2{fill:#f6c855;}</style></defs><title>10_ele_03</title><g id="圖層_2" data-name="圖層 2"><g id="hand"><path class="cls-1" d="M35.62,28.22c2.64-3.85,1.42-9.28-2.73-12.12a9.72,9.72,0,0,0-1.44-.8,8.48,8.48,0,0,0,1.37-1.49C35.46,10,34.23,4.53,30.09,1.69s-9.65-2-12.29,1.84a8,8,0,0,0-.94,2,9.74,9.74,0,0,0-1.74-1.58C11,1.09,5.47,1.92,2.83,5.77a8.42,8.42,0,0,0-.05,9.16,8,8,0,0,0-1.39,1.51C-1.25,20.29,0,25.72,4.12,28.56a9.46,9.46,0,0,0,6.48,1.6,9.4,9.4,0,0,0,3.83,5.46c4.15,2.84,9.65,2,12.29-1.84a8.13,8.13,0,0,0,1-2.12A8.35,8.35,0,0,0,35.62,28.22ZM22,16.45a8.48,8.48,0,0,0-1.37,1.49,8,8,0,0,0-1,2.12,9.22,9.22,0,0,0-2.1,0,9.53,9.53,0,0,0-1.06-2.49,7.65,7.65,0,0,0,1.38-1.51,7.77,7.77,0,0,0,.95-2,9.73,9.73,0,0,0,1.74,1.57A9.72,9.72,0,0,0,22,16.45Z"/><path class="cls-2" d="M24,20.12a5.72,5.72,0,1,1-1.48-8A5.71,5.71,0,0,1,24,20.12Z"/></g></g></svg>