<svg xmlns="http://www.w3.org/2000/svg" viewBox="0 0 520.52 112.48"><defs><style>.cls-1{fill:#7bb3d6;}.cls-2{fill:#f9d5b0;}.cls-3{fill:#d99c50;}.cls-4{fill:#ca734c;}.cls-5{fill:#cb714d;}.cls-6{fill:#40a6a3;}</style></defs><title>12_grass_01</title><g id="圖層_2" data-name="圖層 2"><g id="hand"><path class="cls-1" d="M74.26,12.77c14.5,4.95,24.26,24.29,23.59,33-.69,9-.29,8.8-.29,8.8L93.3,48.47c-9.15,4.24-30.51,11.44-60.19,4.75,0,0-1.92-5.31-9.91-5.18v0A38.63,38.63,0,0,1,74.26,12.77Z"/><path class="cls-2" d="M27.13,47.1a14.21,14.21,0,0,1,4.77.69C37.55,37.92,49,31,62.36,30.6c19.38-.56,35.5,12.85,36,29.94s-14.83,31.4-34.22,32c-14.39.41-27-6.88-32.69-17.65a14.38,14.38,0,0,1-3.49.56,14.16,14.16,0,1,1-.82-28.31Z"/><path class="cls-1" d="M64.88,63.83a2.85,2.85,0,1,0,2.49-3.16A2.86,2.86,0,0,0,64.88,63.83Z"/><path class="cls-3" d="M72.55,67a1.91,1.91,0,1,0,2.13-1.65A1.9,1.9,0,0,0,72.55,67Z"/><path class="cls-1" d="M76.86,62.69a2.84,2.84,0,1,0,2.49-3.16A2.84,2.84,0,0,0,76.86,62.69Z"/><path class="cls-4" d="M72.8,74.65c.18,1.54,1.25,2.67,2.38,2.54s1.9-1.49,1.71-3-1.25-2.68-2.38-2.54S72.61,73.11,72.8,74.65Z"/><path class="cls-1" d="M24.86,36.71a38.61,38.61,0,0,1,49-24.07c14.5,4.95,25.05,20.65,24,33.08-.13.09-.78.49-1.88,1.09a4.36,4.36,0,0,1-5.72,6.53,4.33,4.33,0,0,1-7.43.67,4.34,4.34,0,0,1-7,1.45,4.34,4.34,0,0,1-7.85.65,4.33,4.33,0,0,1-7.87.79A4.35,4.35,0,0,1,55.48,59a4.4,4.4,0,0,1-2.8-1.91,4.34,4.34,0,0,1-7.38-.36,4.32,4.32,0,0,1-6.46-.09,4.35,4.35,0,0,1-6.27-3.92c-.57-1.16-3-5-9.76-4.84v0A38.82,38.82,0,0,1,24.86,36.71Z"/><path class="cls-5" d="M21.91,38.43C20.7,20.32,33.57,3.93,52.59.6,71.37-2.69,89.64,7.9,96,24.77l.62-.42c1-.76-.37,1.1.45,2.11s3.53.79,2.49,1.55l-7.8,5.33,0,0c-8,5.2-18.6,9.34-30.66,11.45a87.44,87.44,0,0,1-31.3.07l-6-1.31C22.5,43.15,21.91,38.43,21.91,38.43Z"/><path class="cls-6" d="M99.94,24.8c2.67,3.69-8.31,11-24.32,16.7s-31.18,8-33.54,3.77c-1.38-2.47,11.79-9,17.69-11.72C80,24.29,98,22.09,99.94,24.8Z"/><circle class="cls-5" cx="197.57" cy="83.23" r="27.98" transform="translate(-16.81 81.94) rotate(-22.5)"/><path class="cls-6" d="M466.72,59.71a53.76,53.76,0,0,0-44.13,23,63.24,63.24,0,0,0-119.31.8,53.83,53.83,0,0,0-87.79-2.24,63.25,63.25,0,0,0-118.18.57A53.81,53.81,0,0,0,0,112.48H520.52A53.81,53.81,0,0,0,466.72,59.71Z"/></g></g></svg>