<svg xmlns="http://www.w3.org/2000/svg" viewBox="0 0 70.86 66.37"><defs><style>.cls-1{fill:#cb714d;}.cls-2{fill:#d99c50;}.cls-3{fill:#40a6a3;}</style></defs><title>12_grass_03</title><g id="圖層_2" data-name="圖層 2"><g id="hand"><path class="cls-1" d="M67.52,42.79C65.33,58.23,48.48,68.6,29.9,66S-2,48.66.24,33.22s19-25.81,37.62-23.17S69.72,27.35,67.52,42.79Z"/><circle class="cls-1" cx="19.62" cy="11.15" r="11.15"/><path class="cls-2" d="M42.59,56.43c-2.37,7.21-11.2,10.78-19.72,8S9.37,53.49,11.75,46.28s11.2-10.79,19.71-8S45,49.21,42.59,56.43Z"/><circle class="cls-1" cx="59.71" cy="22.3" r="11.15"/><circle class="cls-3" cx="26.46" cy="35.7" r="2.32"/><circle class="cls-3" cx="37.27" cy="39.98" r="2.32"/><path class="cls-1" d="M25.86,40.75c.4-1.23,2.23-1.73,4.08-1.12s3,2.1,2.62,3.32-2.23,1.73-4.08,1.12S25.45,42,25.86,40.75Z"/></g></g></svg>