<svg xmlns="http://www.w3.org/2000/svg" viewBox="0 0 56 30.72"><defs><style>.cls-1{fill:#f5d180;}.cls-2{fill:#cb714d;}.cls-3{fill:#f6c855;}.cls-4{fill:#fef5e4;}.cls-5{fill:#f9d5b0;}</style></defs><title>12_grass_02</title><g id="圖層_2" data-name="圖層 2"><g id="hand"><path class="cls-1" d="M21.92,7.87c-.73,3.87-3.24,6.65-5.61,6.21s-3.69-3.95-3-7.83S16.59-.4,19,.05,22.65,4,21.92,7.87Z"/><polygon class="cls-1" points="16.31 14.08 48.77 20.19 52.02 2.94 18.96 0.05 16.31 14.08"/><path class="cls-2" d="M55.76,12.58c-.9,4.76-4,8.17-7,7.61S44.12,15.32,45,10.56s4-8.18,7-7.62S56.66,7.82,55.76,12.58Z"/><path class="cls-3" d="M8.77,16.85C8,20.72,5.53,23.5,3.16,23.06s-3.69-3.95-3-7.83S3.44,8.58,5.81,9,9.5,13,8.77,16.85Z"/><polygon class="cls-3" points="3.16 23.06 35.61 29.17 38.87 11.92 5.81 9.03 3.16 23.06"/><path class="cls-2" d="M42.61,21.56c-.9,4.76-4,8.17-7,7.61S31,24.3,31.87,19.54s4-8.18,7-7.62S43.51,16.8,42.61,21.56Z"/><path class="cls-3" d="M25,13.18h0A1.57,1.57,0,0,1,24.86,11L27.57,8a1.57,1.57,0,0,1,2.22-.09h0a1.59,1.59,0,0,1,.09,2.22l-2.72,2.94A1.57,1.57,0,0,1,25,13.18Z"/><path class="cls-4" d="M41.8,21.53c-.65,3.42-2.9,5.86-5,5.46s-3.35-3.5-2.7-6.92,2.9-5.87,5-5.47S42.44,18.11,41.8,21.53Z"/><path class="cls-4" d="M55.07,12.46c-.64,3.42-2.89,5.87-5,5.47s-3.34-3.5-2.7-6.92,2.9-5.87,5-5.47S55.72,9,55.07,12.46Z"/><path class="cls-5" d="M14,30.71h0a6.24,6.24,0,0,1-5.87-6.56h0a6.25,6.25,0,0,1,6.56-5.86h0a6.24,6.24,0,0,1,5.86,6.56h0A6.24,6.24,0,0,1,14,30.71Z"/></g></g></svg>