<svg xmlns="http://www.w3.org/2000/svg" viewBox="0 0 150.09 237.66"><defs><style>.cls-1{fill:#7bb3d6;}.cls-2{fill:#40a6a3;}.cls-3{fill:#f9d5b0;}.cls-4{fill:#d99c50;}</style></defs><title>13_teen_01</title><g id="圖層_2" data-name="圖層 2"><g id="hand"><path class="cls-1" d="M21.5,236.92l106.66.74.43-61.62c.17-25-23.57-45.41-53-45.61h0c-29.45-.2-53.47,19.89-53.64,44.87Z"/><path class="cls-2" d="M133.3,62.18c.33,27.95-25,50.91-56.45,51.27s-57.31-22-57.64-49.95S44.16,12.59,75.67,12.23,133,34.22,133.3,62.18Z"/><path class="cls-3" d="M128.65,73.29a21.05,21.05,0,0,0-7.8,1.6C111.69,62,95.64,53.11,77.12,52.52,56.8,51.88,38.83,61.34,29.36,75.8a21.28,21.28,0,0,0-7.17-1.5,21.52,21.52,0,0,0-1.36,43,22,22,0,0,0,5.35-.53c7.7,16.86,26.1,29.07,48,29.77,23.8.75,44.38-12.37,51.84-31.13a22.53,22.53,0,0,0,3.2.23,21.18,21.18,0,0,0-.53-42.36Z"/><path class="cls-4" d="M79.12,97.86A2.88,2.88,0,1,1,76,95.29,2.88,2.88,0,0,1,79.12,97.86Z"/><path class="cls-2" d="M144.82,58a15.87,15.87,0,0,0-7.71-13.6,15.87,15.87,0,0,0-13.9-23.55,16.08,16.08,0,0,0-4.13.56A15.84,15.84,0,0,0,94.88,9.85a15.87,15.87,0,0,0-28-2.61A15.87,15.87,0,0,0,39.8,18.49a16.22,16.22,0,0,0,.26,2.81,15.87,15.87,0,0,0-22,22.25,15.86,15.86,0,0,0,5.53,30.27,18.22,18.22,0,0,0,31-5.84A18.17,18.17,0,0,0,78.1,64.64a18.17,18.17,0,0,0,19.4,4.87A18.21,18.21,0,0,0,131,73.73,15.87,15.87,0,0,0,144.82,58ZM104.1,39.12a16.14,16.14,0,0,0,3.35-.52A15.71,15.71,0,0,0,111.08,47c-.68.16-1.34.36-2,.58A18.14,18.14,0,0,0,104.1,39.12ZM77.81,40.26a18.2,18.2,0,0,0-30.58,6.28,18.25,18.25,0,0,0-4.06-1.93,15.77,15.77,0,0,0,3.75-10.24,16.43,16.43,0,0,0-.26-2.82A15.85,15.85,0,0,0,69,27.13a15.83,15.83,0,0,0,19.65,2.18,15.78,15.78,0,0,0,3.06,4.76c-.14,0-.28,0-.42,0A18.18,18.18,0,0,0,77.81,40.26Z"/><path class="cls-2" d="M84.56,93.09A1.14,1.14,0,0,1,84,91,19.9,19.9,0,0,1,96.86,89.7a1.14,1.14,0,1,1-.48,2.22A17.89,17.89,0,0,0,85.1,93,1.13,1.13,0,0,1,84.56,93.09Z"/><path class="cls-2" d="M66.4,93.09a1.06,1.06,0,0,1-.52-.13,18.2,18.2,0,0,0-11.3-1,1.13,1.13,0,1,1-.47-2.22A19.92,19.92,0,0,1,66.94,91a1.14,1.14,0,0,1-.54,2.14Z"/></g></g></svg>