<svg xmlns="http://www.w3.org/2000/svg" viewBox="0 0 38.17 78.5"><defs><style>.cls-1{fill:#7bb3d6;}.cls-2{fill:#f9d5b0;}</style></defs><title>13_teen_04</title><g id="圖層_2" data-name="圖層 2"><g id="hand"><path class="cls-1" d="M28.05,77.86h0a14.34,14.34,0,0,1-17.94-9.47L0,35.76A.63.63,0,0,1,.45,35l26.19-8.1a.64.64,0,0,1,.8.43L37.53,59.92A14.36,14.36,0,0,1,28.05,77.86Z"/><path class="cls-2" d="M8.42,14.75h10V6.9A6.9,6.9,0,0,1,25.38,0H27a2.32,2.32,0,0,1,2.32,2.32V34.93a2.44,2.44,0,0,1-2.44,2.44H8.42A4.4,4.4,0,0,1,4,33V19.15A4.4,4.4,0,0,1,8.42,14.75Z"/></g></g></svg>