<svg xmlns="http://www.w3.org/2000/svg" viewBox="0 0 149.38 225.21"><defs><style>.cls-1{fill:#40a6a3;}.cls-2{fill:#edc156;}.cls-3{fill:#f9d5b0;}.cls-4{fill:#d99c50;}</style></defs><title>13_teen_03</title><g id="圖層_2" data-name="圖層 2"><g id="hand"><path class="cls-1" d="M64.94.69h16.9a48.6,48.6,0,0,1,48.6,48.6v79.57a39.61,39.61,0,0,1-39.61,39.61H55.94a39.61,39.61,0,0,1-39.61-39.61V49.29A48.6,48.6,0,0,1,64.94.69Z" transform="translate(9.12 -7.12) rotate(5.92)"/><path class="cls-2" d="M126,224.47l-106.66.74-.42-60.77c-.17-24.64,23.57-44.77,53-45h0c29.45-.2,53.47,19.61,53.64,44.24Z"/><path class="cls-1" d="M20.15,44.94C16.94,72.71,39.71,98.15,71,101.77s59.27-16,62.48-43.74S113.93,4.82,82.63,1.2,23.35,17.17,20.15,44.94Z"/><path class="cls-3" d="M23.63,56.47a21,21,0,0,1,7.59,2.4C41.67,46.94,58.54,39.8,77,41.13c20.28,1.45,37.18,12.72,45.11,28.08a21.52,21.52,0,1,1-1.06,41.1c-9.4,16-29,26.22-50.78,24.65-23.76-1.7-42.87-16.87-48.36-36.31a21.52,21.52,0,0,1-3.2-.1,21.18,21.18,0,1,1,4.9-42.08Z"/><path class="cls-1" d="M58.43,76.86a4.49,4.49,0,1,0,5-4A4.49,4.49,0,0,0,58.43,76.86Z"/><path class="cls-1" d="M80.79,80.11a4.49,4.49,0,1,0,5-4A4.49,4.49,0,0,0,80.79,80.11Z"/><path class="cls-4" d="M69.31,85.91a2.88,2.88,0,1,0,3.42-2.22A2.89,2.89,0,0,0,69.31,85.91Z"/><path class="cls-1" d="M24.93,53l8.28,7.82a5.3,5.3,0,0,0,4.67,1.33L51,59.52A16.46,16.46,0,0,1,61.72,61l9.37,4.74a5.23,5.23,0,0,0,3.84.37l6.31-1.82a16.51,16.51,0,0,1,11.45.87l8.22,3.79a5.26,5.26,0,0,0,3.64.29l5.14-1.45a14.8,14.8,0,0,1,8.81.23l3.63,1.23,8.11-14.31L99.48,32.38,69.26,21.55,45.87,32.89Z"/></g></g></svg>