<svg xmlns="http://www.w3.org/2000/svg" viewBox="0 0 28.7 30.48"><defs><style>.cls-1{fill:#edc156;}</style></defs><title>14_government_05</title><g id="圖層_2" data-name="圖層 2"><g id="hand"><path class="cls-1" d="M3.19,30.48a1.18,1.18,0,0,1-.64-.2,1.13,1.13,0,0,1-.3-1.58c.37-.55,9.27-13.58,24.86-20.37a1.13,1.13,0,0,1,.9,2.08C13.05,16.93,4.22,29.84,4.13,30A1.13,1.13,0,0,1,3.19,30.48Z"/><path class="cls-1" d="M16,29.87a1.13,1.13,0,0,1-.8-.33L.34,15.05a1.14,1.14,0,1,1,1.59-1.63l14.86,14.5a1.14,1.14,0,0,1,0,1.61A1.16,1.16,0,0,1,16,29.87Z"/><path class="cls-1" d="M22.28,22.86a1.15,1.15,0,0,1-1.06-.71L13,1.56A1.14,1.14,0,0,1,15.12.71L23.34,21.3a1.14,1.14,0,0,1-.64,1.48A1,1,0,0,1,22.28,22.86Z"/></g></g></svg>