<svg xmlns="http://www.w3.org/2000/svg" viewBox="0 0 63.9 77.44"><defs><style>.cls-1{fill:#40a6a3;}.cls-2{fill:#acd5eb;}.cls-3{fill:#f9d5b0;}.cls-4{fill:#d99c50;}</style></defs><title>14_government_02</title><g id="圖層_2" data-name="圖層 2"><g id="hand"><path class="cls-1" d="M14.7,13.72,52.59,26.41,40.06,63.8A20,20,0,0,1,14.77,76.4h0A20,20,0,0,1,2.18,51.11Z"/><path class="cls-2" d="M5.47,71a1.16,1.16,0,0,1-.89-.43A21.08,21.08,0,0,1,1.1,50.75l8.48-25.3a1.13,1.13,0,1,1,2.15.72L3.26,51.48a18.77,18.77,0,0,0,3.1,17.69,1.14,1.14,0,0,1-.18,1.6A1.12,1.12,0,0,1,5.47,71Z"/><path class="cls-3" d="M20.36,15.62,31.09,5.7a13.39,13.39,0,0,1,9.12-3.57H42a1.87,1.87,0,0,1,1.83,2.26l-.78,3.52a1.69,1.69,0,0,0,2.21,2L57.14,5.75a4.12,4.12,0,0,1,3.64.47h0a6.38,6.38,0,0,1-.7,11l-14,7Z"/><path class="cls-4" d="M24.21,13.19a1.12,1.12,0,0,1-.71-.25,1.14,1.14,0,0,1-.18-1.6L29.23,4a14.54,14.54,0,0,1,10-4h1.83A3,3,0,0,1,44,3.65l-.78,3.52a.53.53,0,0,0,.18.53.52.52,0,0,0,.55.11L55.8,3.69a5.24,5.24,0,0,1,4.64.6,1,1,0,0,1,.2.16l3,3.14a1.14,1.14,0,0,1-1.66,1.56l-2.86-3a3,3,0,0,0-2.53-.27L44.71,10A2.84,2.84,0,0,1,41,6.68l.78-3.52a.73.73,0,0,0-.15-.61.72.72,0,0,0-.57-.28H39.24a12.29,12.29,0,0,0-8.35,3.27l-5.8,7.23A1.11,1.11,0,0,1,24.21,13.19Z"/></g></g></svg>