<svg xmlns="http://www.w3.org/2000/svg" viewBox="0 0 197 78.38"><defs><style>.cls-1{fill:#fff;}.cls-2{fill:#f9d5b0;}.cls-3{fill:#40a6a3;}</style></defs><title>14_government_04</title><g id="圖層_2" data-name="圖層 2"><g id="hand"><polygon class="cls-1" points="97.69 76.44 32.24 76.44 0 8.21 65.45 8.21 97.69 76.44"/><polygon class="cls-2" points="81.57 42.33 84.37 48.27 103.12 48.27 103.12 42.33 81.57 42.33"/><path class="cls-2" d="M75.39,48.27h27.73a0,0,0,0,1,0,0V73.57a0,0,0,0,1,0,0H75.39a5.24,5.24,0,0,1-5.24-5.24V53.51A5.24,5.24,0,0,1,75.39,48.27Z"/><path class="cls-3" d="M190.22,5h0A20,20,0,0,0,162,6.78L134.31,38.13l-38.25,2a.87.87,0,0,0-.81.9l2,36.51a.85.85,0,0,0,.9.8l48.52-2.58A19.06,19.06,0,0,0,160,69.27a.92.92,0,0,0,.47-.26L192,33.26A20,20,0,0,0,190.22,5Z"/><rect class="cls-2" x="18.41" y="52.85" width="15.66" height="21.52" rx="5.34" transform="translate(-20.72 13.31) rotate(-20.62)"/></g></g></svg>