<svg xmlns="http://www.w3.org/2000/svg" viewBox="0 0 41.82 43.4"><defs><style>.cls-1{fill:#edc156;}</style></defs><title>15_join_05</title><g id="圖層_2" data-name="圖層 2"><g id="hand"><path class="cls-1" d="M18.93,1l6.34,6.27a3.54,3.54,0,0,0,3.17,1L37.2,6.62A3.56,3.56,0,0,1,41,11.73l-4,8A3.61,3.61,0,0,0,37.09,23l4.29,7.81a3.57,3.57,0,0,1-3.67,5.24L28.9,34.71a3.55,3.55,0,0,0-3.14,1.08l-6.11,6.49a3.56,3.56,0,0,1-6.11-1.87l-1.44-8.8a3.55,3.55,0,0,0-2-2.65L2,25.15a3.57,3.57,0,0,1-.11-6.39l7.93-4.08A3.59,3.59,0,0,0,11.76,12l1.13-8.84A3.56,3.56,0,0,1,18.93,1Z"/></g></g></svg>