<svg xmlns="http://www.w3.org/2000/svg" viewBox="0 0 23.87 23.61"><defs><style>.cls-1{fill:#edc156;}</style></defs><title>15_join_03</title><g id="圖層_2" data-name="圖層 2"><g id="hand"><path class="cls-1" d="M18.69,2.08,18.43,7a2,2,0,0,0,.76,1.67l3.91,3a2,2,0,0,1-.7,3.46l-4.76,1.27a2,2,0,0,0-1.35,1.25L14.63,22.3a2,2,0,0,1-3.51.41L8.44,18.57a2,2,0,0,0-1.59-.9l-4.93-.14A2,2,0,0,1,.44,14.32l3.11-3.83a1.94,1.94,0,0,0,.36-1.8L2.52,4a2,2,0,0,1,2.6-2.39l4.6,1.77a1.93,1.93,0,0,0,1.82-.21L15.61.35A2,2,0,0,1,18.69,2.08Z"/></g></g></svg>