<svg xmlns="http://www.w3.org/2000/svg" viewBox="0 0 34.07 34.82"><defs><style>.cls-1{fill:#edc156;}</style></defs><title>15_join_04</title><g id="圖層_2" data-name="圖層 2"><g id="hand"><path class="cls-1" d="M22.35,2.24l1.56,7a2.88,2.88,0,0,0,1.72,2L32.28,14a2.86,2.86,0,0,1,.38,5.12l-6.17,3.65A2.88,2.88,0,0,0,25.09,25l-.5,7.15a2.86,2.86,0,0,1-4.75,2l-5.38-4.74a2.87,2.87,0,0,0-2.59-.64L4.92,30.46a2.87,2.87,0,0,1-3.33-3.92L4.44,20a2.83,2.83,0,0,0-.2-2.65L.44,11.23a2.87,2.87,0,0,1,2.7-4.38l7.14.68a2.88,2.88,0,0,0,2.47-1L17.35,1A2.87,2.87,0,0,1,22.35,2.24Z"/></g></g></svg>