<svg xmlns="http://www.w3.org/2000/svg" viewBox="0 0 171.4 210.99"><defs><style>.cls-1{fill:#40a6a3;}.cls-2{fill:#7bb3d6;}.cls-3{fill:#f9d5b0;}.cls-4{fill:#d99c50;}.cls-5{fill:#ca734c;}</style></defs><title>15_join_01</title><g id="圖層_2" data-name="圖層 2"><g id="hand"><path class="cls-1" d="M110.55,56.9c9.11,22.27-3.86,48.65-29,58.92s-52.83.54-61.95-21.74,3.86-48.65,29-58.92S101.43,34.63,110.55,56.9Z"/><path class="cls-2" d="M100,211H25.54l11.71-63.88c4.63-18.3,25-28.94,45.47-23.76h0c20.49,5.17,33.35,24.21,28.72,42.51Z"/><polygon class="cls-3" points="106.83 148.81 132.84 19.41 163.84 27.66 110.81 159.9 106.83 148.81"/><polygon class="cls-2" points="111.61 163.81 131.25 127.72 106.83 115.31 86.21 138.31 111.61 163.81"/><circle class="cls-3" cx="148.69" cy="22.72" r="22.72" transform="translate(18.35 97.8) rotate(-38.63)"/><path class="cls-3" d="M60.69,65.39C44.54,71.25,33.4,84.3,30.5,98.61a18.17,18.17,0,1,0,6.31,35.24,18.49,18.49,0,0,0,4-2.08c11.32,10.81,29.58,14.63,47,8.33,23.4-8.49,36.3-32.1,28.82-52.73S84.08,56.9,60.69,65.39Z"/><path class="cls-1" d="M42.2,42.32A21.79,21.79,0,1,1,14.14,29.57,21.8,21.8,0,0,1,42.2,42.32Z"/><path class="cls-1" d="M71.24,97.59a3.86,3.86,0,1,1-5-2.14A3.85,3.85,0,0,1,71.24,97.59Z"/><path class="cls-4" d="M82.1,99.73a2.48,2.48,0,1,1-3.34-1A2.48,2.48,0,0,1,82.1,99.73Z"/><path class="cls-5" d="M91.41,107.61a8.1,8.1,0,1,1-15,6.14c-1.7-4.15,1.29-5.13,5.43-6.82S89.72,103.47,91.41,107.61Z"/><path class="cls-1" d="M48.1,82.05a15.7,15.7,0,1,1-20.48-8.59A15.69,15.69,0,0,1,48.1,82.05Z"/><path class="cls-1" d="M66.75,66.06a15.7,15.7,0,1,1-20.48-8.59A15.69,15.69,0,0,1,66.75,66.06Z"/><path class="cls-1" d="M88.32,57.23a15.7,15.7,0,1,1-20.48-8.59A15.71,15.71,0,0,1,88.32,57.23Z"/><path class="cls-1" d="M111.16,59.73a15.7,15.7,0,1,1-20.48-8.58A15.71,15.71,0,0,1,111.16,59.73Z"/><path class="cls-5" d="M29.66,54l-1.5-1.31c-1.2-1-1.65-2.57-1-3.5l9.78-14.62c.71-1.06,2.5-1,3.87.24l4.38,3.83c1.35,1.17,1.72,2.89.82,3.75L33.31,54.54C32.49,55.33,30.89,55.11,29.66,54Z"/><path class="cls-5" d="M28.68,55.16l-1.5-1.3c-1.2-1-2.77-1.28-3.61-.54L10.42,65c-.95.85-.59,2.61.77,3.8l4.39,3.82c1.34,1.17,3.1,1.31,3.83.29L29.67,58.71C30.34,57.79,29.91,56.24,28.68,55.16Z"/><path class="cls-4" d="M32.52,57.89c-2.67,3.06-6.74,3.88-9.1,1.82s-2.11-6.2.55-9.26,6.74-3.87,9.1-1.82S35.18,54.84,32.52,57.89Z"/><path class="cls-1" d="M84,95.33a1.11,1.11,0,0,1-1-1.59,15.32,15.32,0,0,1,7.38-6.5,1.11,1.11,0,0,1,.88,2A13.25,13.25,0,0,0,85,94.72,1.11,1.11,0,0,1,84,95.33Z"/></g></g></svg>