<svg xmlns="http://www.w3.org/2000/svg" viewBox="0 0 116.22 126.03"><defs><style>.cls-1{fill:#7bb3d6;}.cls-2{fill:#f9d5b0;}.cls-3{fill:#40a6a3;}.cls-4{fill:#d99c50;}.cls-5{fill:#ca734c;}.cls-6{fill:#f6c855;}</style></defs><title>16_down_04</title><g id="圖層_2" data-name="圖層 2"><g id="hand"><path class="cls-1" d="M44.67,10.73A12.51,12.51,0,1,1,30.51.13,12.51,12.51,0,0,1,44.67,10.73Z"/><path class="cls-2" d="M114.09,27.53,109,25.85a3.08,3.08,0,0,0-3.89,2l-1.83,5.59-1.49-.49a2.05,2.05,0,0,0-2.58,1.31l-3.24,9.91,3.61,1.18.88-2.68,10.81,3.54,4.83-14.77A3.07,3.07,0,0,0,114.09,27.53Z"/><path class="cls-2" d="M.9,49.44l3.8-3.83a3.08,3.08,0,0,1,4.36,0l4.18,4.15,1.1-1.11a2,2,0,0,1,2.89,0L24.62,56,22,58.66l-2-2-8,8.07L.91,53.8A3.08,3.08,0,0,1,.9,49.44Z"/><path class="cls-1" d="M113.15,45.19l-18-5.43L78.86,63.26a29.9,29.9,0,0,0-31.29,6.1l-24-17.13L9.59,65.59,35.72,91A9.9,9.9,0,0,1,38.5,96.4v0L43.66,126l59.19-10.31-5.16-29.6v-.05A17.12,17.12,0,0,1,99,76Z"/><path class="cls-1" d="M84.91,28.09C87.28,41.7,76.77,54.9,61.43,57.57s-29.69-6.2-32.06-19.8S37.51,11,52.85,8.29,82.53,14.49,84.91,28.09Z"/><path class="cls-2" d="M83.51,33.88a10.57,10.57,0,0,0-3.67,1.4c-5.49-5.59-14-8.63-23.1-7.45-10,1.29-18,7.33-21.45,15.13a10.62,10.62,0,1,0-.87,20.92A10.72,10.72,0,0,0,37,63.2c5.09,7.61,15,12.11,25.75,10.72C74.4,72.4,83.4,64.38,85.55,54.64a9.37,9.37,0,0,0,1.57-.15,10.46,10.46,0,1,0-3.61-20.61Z"/><path class="cls-3" d="M66.93,44.93a2.22,2.22,0,1,1-2.56-1.82A2.22,2.22,0,0,1,66.93,44.93Z"/><path class="cls-3" d="M56,47.16a2.22,2.22,0,1,1-2.56-1.81A2.23,2.23,0,0,1,56,47.16Z"/><path class="cls-4" d="M61.82,49.7a1.43,1.43,0,1,1-1.75-1A1.42,1.42,0,0,1,61.82,49.7Z"/><path class="cls-5" d="M66.07,55.26a4.65,4.65,0,0,1-9.16,1.6c-.44-2.53,1.35-2.72,3.88-3.16S65.63,52.73,66.07,55.26Z"/><path class="cls-1" d="M47,34a9,9,0,1,1-10.42-7.33A9,9,0,0,1,47,34Z"/><path class="cls-1" d="M59.43,27.33A9,9,0,1,1,49,20,9,9,0,0,1,59.43,27.33Z"/><path class="cls-1" d="M72.61,25A9,9,0,1,1,62.19,17.7,9,9,0,0,1,72.61,25Z"/><path class="cls-1" d="M85.11,29.25a9,9,0,1,1-10.43-7.34A9,9,0,0,1,85.11,29.25Z"/><path class="cls-6" d="M39.23,17.6l-.68-.92a1.66,1.66,0,0,1-.14-2.09l7.28-7c.53-.51,1.52-.22,2.14.61l2,2.68c.61.83.61,1.84,0,2.21l-8.59,5.23A1.64,1.64,0,0,1,39.23,17.6Z"/><path class="cls-6" d="M38.54,18.11l-.67-.92a1.65,1.65,0,0,0-2-.74L27.1,21.39c-.64.36-.66,1.38,0,2.22l2,2.68c.61.82,1.58,1.11,2.12.64l7.5-6.71A1.63,1.63,0,0,0,38.54,18.11Z"/><path class="cls-4" d="M40.36,20.11C38.49,21.5,36.11,21.45,35,20s-.42-3.74,1.45-5.12,4.25-1.35,5.32.1S42.23,18.73,40.36,20.11Z"/></g></g></svg>