<svg xmlns="http://www.w3.org/2000/svg" viewBox="0 0 136.39 112.32"><defs><style>.cls-1{fill:#f9d5b0;}.cls-2{fill:#40a6a3;}.cls-3{fill:#7bc9c5;}</style></defs><title>1_about_02</title><g id="圖層_2" data-name="圖層 2"><g id="hand"><path class="cls-1" d="M110.71,85.88h19.87a0,0,0,0,1,0,0V112a5.24,5.24,0,0,1-5.24,5.24h-9.39a5.24,5.24,0,0,1-5.24-5.24V85.88a0,0,0,0,1,0,0Z" transform="translate(17.07 220.47) rotate(-89.04)"/><path class="cls-1" d="M107.68,78h6.52a0,0,0,0,1,0,0V95.54A3.47,3.47,0,0,1,110.72,99h-3a0,0,0,0,1,0,0V78A0,0,0,0,1,107.68,78Z" transform="translate(20.57 197.95) rotate(-89.04)"/><path class="cls-2" d="M106.73,80.88,51.37,73.62l8.69-62.2A10,10,0,0,0,50.12,0h0a50,50,0,0,0-39.7,19.55h0A49.9,49.9,0,0,0,0,50.12V76a36.32,36.32,0,0,0,36.32,36.32h72.61a2.84,2.84,0,0,0,2.84-2.95v-.06l-.71-23.64A5,5,0,0,0,106.73,80.88Z"/><path class="cls-3" d="M72.42,77.25h-.14L51.22,74.36a1,1,0,0,1-.84-1.09l1.46-11.74a1,1,0,0,1,1.1-.85,1,1,0,0,1,.85,1.1L52.44,72.55,72.55,75.3a1,1,0,0,1-.13,2Z"/></g></g></svg>