<svg xmlns="http://www.w3.org/2000/svg" viewBox="0 0 106.5 58.59"><defs><style>.cls-1{fill:#f9d5b0;}.cls-2{fill:#7bb3d6;}.cls-3{fill:#acd5eb;}</style></defs><title>1_about_04</title><g id="圖層_2" data-name="圖層 2"><g id="hand"><path class="cls-1" d="M11.26.54h9.49A5.42,5.42,0,0,1,26.16,6V33.25a0,0,0,0,1,0,0H5.84a0,0,0,0,1,0,0V6A5.41,5.41,0,0,1,11.26.54Z" transform="translate(-7.07 13.9) rotate(-39.15)"/><path class="cls-1" d="M29.41,5.65h3.08a3.59,3.59,0,0,1,3.59,3.59V27.56a0,0,0,0,1,0,0H29.41a0,0,0,0,1,0,0V5.65A0,0,0,0,1,29.41,5.65Z" transform="translate(-3.13 24.41) rotate(-39.15)"/><path class="cls-2" d="M63,57.67a74.12,74.12,0,0,1-8.85-.54c-19.48-2.38-31.38-13.06-38.91-22a3.35,3.35,0,0,1,.47-4.8l19-15.08a3.33,3.33,0,0,1,4.57.4c5.85,6.74,11.25,9.8,18.58,10.69C67.44,27.53,75,25,78.13,23a3.83,3.83,0,0,1,3.54-.24l22.55,9.73A3.8,3.8,0,0,1,106,38C98.69,50.08,82,57.67,63,57.67Z"/><path class="cls-3" d="M62.44,58.59c-1.71,0-3.44-.06-5.15-.17a59.65,59.65,0,0,1-13.62-2.53A1,1,0,0,1,43,54.66,1,1,0,0,1,44.26,54a57.9,57.9,0,0,0,13.16,2.44c1.84.13,3.69.18,5.53.17h0a1,1,0,0,1,1,1,1,1,0,0,1-1,1Z"/><path class="cls-3" d="M63,58.59a1,1,0,0,1-1-1,1,1,0,0,1,1-1c1.08,0,2.16,0,3.22-.09,14.33-.75,27.23-5.8,35.39-13.85a1,1,0,0,1,1.38,1.4c-8.5,8.38-21.86,13.63-36.66,14.4-1.1.06-2.21.1-3.32.1Z"/></g></g></svg>