<svg xmlns="http://www.w3.org/2000/svg" viewBox="0 0 110.87 144.87"><defs><style>.cls-1{fill:#7bb3d6;}.cls-2{fill:#f9d5b0;}.cls-3{fill:#d99c50;}.cls-4{fill:#ca734c;}</style></defs><title>1_about_03</title><g id="圖層_2" data-name="圖層 2"><g id="hand"><path class="cls-1" d="M32.59,22.23l0,0,0-.07Z"/><path class="cls-1" d="M67.51,0C52,0,36.26,15.38,34.05,23.92c-2.28,8.85-2.6,8.55-2.6,8.55l6.08-4.42c7.4,7.07,25.55,21,56.24,24.28,0,0,3.59-4.46,11.22-1.72v0A39.17,39.17,0,0,0,67.51,0Z"/><path class="cls-1" d="M69.63,144.87H0V125.09a50.15,50.15,0,0,1,50-50h7.59a27.38,27.38,0,0,1,27.3,27.31v27.2A15.31,15.31,0,0,1,69.63,144.87Z"/><path class="cls-2" d="M101.52,48.42a14.2,14.2,0,0,0-4.8-.9C94.53,36.19,85.82,25.78,73.1,21c-18.44-6.89-38.3.7-44.38,17s4,35,22.39,41.9C64.8,85,79.26,82.13,88.3,73.66a14.09,14.09,0,0,0,3.17,1.68,14.37,14.37,0,1,0,10-26.92Z"/><path class="cls-1" d="M62,53.58a2.89,2.89,0,1,1-1.35-3.85A2.89,2.89,0,0,1,62,53.58Z"/><path class="cls-3" d="M53.6,54.15a1.93,1.93,0,1,1-1.51-2.28A1.93,1.93,0,0,1,53.6,54.15Z"/><path class="cls-1" d="M50.88,48.57a2.89,2.89,0,1,1-1.35-3.86A2.88,2.88,0,0,1,50.88,48.57Z"/><path class="cls-4" d="M53.44,64.9a13.14,13.14,0,0,1-5.73-1.39c-4.32-2.13-7-6.15-6.44-9.78a1,1,0,0,1,1.11-.83A1,1,0,0,1,43.21,54c-.4,2.75,1.86,6,5.37,7.73S56.05,63.3,58,61.3a1,1,0,1,1,1.41,1.37A8.18,8.18,0,0,1,53.44,64.9Z"/><path class="cls-1" d="M67.92,0C52.38,0,37.09,11.62,34.05,23.92c0,0,0,0,0,0,.67.84,19.31,24,60.14,28.41,0,0,3.59-4.46,11.22-1.72v0A39.19,39.19,0,0,0,67.92,0Z"/></g></g></svg>