<svg xmlns="http://www.w3.org/2000/svg" viewBox="0 0 40.78 37.81"><defs><style>.cls-1{fill:#ca734c;}.cls-2{fill:#f6c855;}</style></defs><title>2_dad_03</title><g id="圖層_2" data-name="圖層 2"><g id="hand"><path class="cls-1" d="M40.78,19.26c0-4.79-4.18-8.68-9.34-8.68a10.39,10.39,0,0,0-1.68.16,8.26,8.26,0,0,0,.29-2.06C30.05,3.89,25.87,0,20.71,0s-9.33,3.89-9.33,8.68a7.75,7.75,0,0,0,.35,2.22,9.91,9.91,0,0,0-2.39-.32C4.18,10.58,0,14.47,0,19.26A8.63,8.63,0,0,0,5.26,27,8.44,8.44,0,0,0,5,29.13c0,4.79,4.18,8.68,9.34,8.68a9.64,9.64,0,0,0,6.41-2.4,9.68,9.68,0,0,0,6.42,2.4c5.15,0,9.33-3.89,9.33-8.68a8.11,8.11,0,0,0-.39-2.37A8.56,8.56,0,0,0,40.78,19.26ZM22.4,17.21a8.18,8.18,0,0,0-.29,2.05,8.11,8.11,0,0,0,.39,2.37,9.54,9.54,0,0,0-1.79,1.21,9.14,9.14,0,0,0-2.34-1.49,8,8,0,0,0,.3-2.09A8.23,8.23,0,0,0,18.33,17a9.76,9.76,0,0,0,2.38.33A10.41,10.41,0,0,0,22.4,17.21Z"/><path class="cls-2" d="M26.24,19.14a5.87,5.87,0,1,1-5.87-5.86A5.87,5.87,0,0,1,26.24,19.14Z"/></g></g></svg>