<svg xmlns="http://www.w3.org/2000/svg" viewBox="0 0 63.94 58"><defs><style>.cls-1{fill:#f9d5b0;}.cls-2{fill:#f6c855;}</style></defs><title>4_kids_04</title><g id="圖層_2" data-name="圖層 2"><g id="hand"><path class="cls-1" d="M5.84,56.26,1,50.32a4,4,0,0,1,.55-5.8L7.89,39.9,6.48,38.18a2.63,2.63,0,0,1,.37-3.84l11.22-8.18,3.41,4.17-3,2.21,10.2,12.51L11.92,57.23A4.54,4.54,0,0,1,5.84,56.26Z"/><path class="cls-2" d="M26.66,50l32-25.24A13.9,13.9,0,0,0,61,5.29h0A13.88,13.88,0,0,0,41.45,3l-32,25.24Z"/></g></g></svg>