<svg xmlns="http://www.w3.org/2000/svg" viewBox="0 0 111.63 146.99"><defs><style>.cls-1{fill:#40a6a3;}.cls-2{fill:#7bb3d6;}.cls-3{fill:#f6c855;}.cls-4{fill:#f9d5b0;}.cls-5{fill:#d99c50;}.cls-6{fill:#ca734c;}</style></defs><title>4_kids_01</title><g id="圖層_2" data-name="圖層 2"><g id="hand"><path class="cls-1" d="M22.14,104l-.66-4.92a14.61,14.61,0,0,0-.61-2.79,7.74,7.74,0,0,0-2.05-3,4,4,0,0,0-5.64.69,4.21,4.21,0,0,0-.28.45c-.17.09-.35.17-.52.28a72.09,72.09,0,0,0-7.89,5.14,14.45,14.45,0,0,0-3.17,3.45,7.69,7.69,0,0,0-1.28,3,4.69,4.69,0,0,0,2.89,4.82,5.05,5.05,0,0,0,2.61.38,10.47,10.47,0,0,0,.72,4.45,4,4,0,0,0,2.63,2.31,4.14,4.14,0,0,0,3.52-.64,10,10,0,0,0,2.87-2.71A6.56,6.56,0,0,0,17,116.2,4,4,0,0,0,21.76,115a7.79,7.79,0,0,0,1.06-5.92C22.59,107.38,22.36,105.68,22.14,104Z"/><path class="cls-1" d="M34.91,74a6,6,0,1,1-6-6A6,6,0,0,1,34.91,74Z"/><path class="cls-1" d="M28.94,82.07a6,6,0,1,1-6-6A6,6,0,0,1,28.94,82.07Z"/><circle class="cls-1" cx="18.82" cy="90.55" r="5.98"/><path class="cls-2" d="M89.9,63.94l0,0,0,0Z"/><path class="cls-2" d="M111.63,64.07l0,0,0,0Z"/><path class="cls-3" d="M89.25,147H33.62a14,14,0,0,1-13.35-18.17l14-40.11a16.94,16.94,0,0,1,16-11.37H74A17,17,0,0,1,90.12,89.2l12.48,39.62A14,14,0,0,1,89.25,147Z"/><path class="cls-2" d="M111.06,66.67l0,0,0,0Z"/><ellipse class="cls-1" cx="54.21" cy="35.84" rx="41.01" ry="35.7" transform="translate(-4.77 8.55) rotate(-8.64)"/><path class="cls-4" d="M53.65,22.5c-12.47,2.68-22,11.17-25.56,21.4a13.49,13.49,0,1,0,1.09,26.57,13.26,13.26,0,0,0,3.17-1.13c7.25,9.1,20.3,13.75,33.71,10.86,18.08-3.88,30-20,26.52-35.89S71.72,18.61,53.65,22.5Z"/><path class="cls-1" d="M75.14,48.62a2.38,2.38,0,1,1-2.81-1.85A2.38,2.38,0,0,1,75.14,48.62Z"/><path class="cls-5" d="M71.16,53A1.59,1.59,0,1,1,69,52.2,1.58,1.58,0,0,1,71.16,53Z"/><path class="cls-1" d="M65.34,50.88A2.38,2.38,0,1,1,62.53,49,2.38,2.38,0,0,1,65.34,50.88Z"/><path class="cls-6" d="M68.52,62.47c-3,0-5.74-1.27-6.92-3.42A.8.8,0,1,1,63,58.28c1.11,2,4.22,3,7.38,2.4s5.68-2.71,6-5a.79.79,0,0,1,.89-.7.81.81,0,0,1,.7.9c-.36,3-3.34,5.61-7.24,6.37A11.74,11.74,0,0,1,68.52,62.47Z"/><path class="cls-1" d="M77.17,15.39c-11.75-4.75-23.23-3.77-25.64,2.19a5.15,5.15,0,0,0-.16.56,41.88,41.88,0,0,0-9.44,2.95C30.35,26.23,23.07,35.17,25.68,41s14.12,6.47,25.7,1.32a38.87,38.87,0,0,0,11.83-7.92A46.14,46.14,0,0,0,68.44,37c11.75,4.75,23.23,3.77,25.64-2.19S88.92,20.14,77.17,15.39Z"/></g></g></svg>