<svg xmlns="http://www.w3.org/2000/svg" viewBox="0 0 94.4 148.08"><defs><style>.cls-1{fill:#7bb3d6;}.cls-2{fill:#40a6a3;}.cls-3{fill:#f9d5b0;}.cls-4{fill:#d99c50;}.cls-5{fill:#ca734c;}</style></defs><title>4_kids_02</title><g id="圖層_2" data-name="圖層 2"><g id="hand"><path class="cls-1" d="M.56,64.15l0,0,0,0Z"/><path class="cls-1" d="M21.9,63.94l0,0,0,0Z"/><path class="cls-1" d="M0,66.76l0,0,0-.05Z"/><path class="cls-1" d="M16.42,148.08H72.05A14,14,0,0,0,85.4,129.91l-14-40.11a16.94,16.94,0,0,0-16-11.37H31.72A17,17,0,0,0,15.55,90.29L3.07,129.91A14,14,0,0,0,16.42,148.08Z"/><ellipse class="cls-2" cx="53.03" cy="35.84" rx="35.7" ry="41.01" transform="translate(9.63 82.88) rotate(-81.36)"/><path class="cls-3" d="M53.59,22.5c12.47,2.68,22,11.17,25.56,21.4a13.51,13.51,0,1,1-4.26,25.44c-7.25,9.1-20.3,13.75-33.71,10.86-18.08-3.88-29.95-20-26.52-35.89S35.52,18.61,53.59,22.5Z"/><path class="cls-2" d="M32.1,48.62a2.38,2.38,0,1,0,2.81-1.85A2.38,2.38,0,0,0,32.1,48.62Z"/><path class="cls-4" d="M36.08,53a1.59,1.59,0,1,0,2.12-.75A1.59,1.59,0,0,0,36.08,53Z"/><path class="cls-2" d="M41.91,50.88A2.38,2.38,0,1,0,44.71,49,2.36,2.36,0,0,0,41.91,50.88Z"/><path class="cls-5" d="M38.72,62.47a11.74,11.74,0,0,1-2.18-.21c-3.9-.76-6.88-3.38-7.24-6.37A.81.81,0,0,1,30,55a.79.79,0,0,1,.89.7c.28,2.28,2.78,4.37,6,5s6.28-.4,7.38-2.4a.8.8,0,1,1,1.41.77C44.46,61.19,41.77,62.47,38.72,62.47Z"/><path class="cls-2" d="M14.07,39.91s35.32-4.11,59.26,6.81c0,0,1.44-1.66,5.82-2.82s0-21,0-21L41.86,10.55,19.77,25.27Z"/></g></g></svg>