<svg xmlns="http://www.w3.org/2000/svg" viewBox="0 0 29.16 30.16"><defs><style>.cls-1{fill:#f6c855;}.cls-2{fill:#40a6a3;}.cls-3{fill:#d99c50;}.cls-4{fill:#ca734c;}</style></defs><title>4_kids_05</title><g id="圖層_2" data-name="圖層 2"><g id="hand"><path class="cls-1" d="M20.38,2.2l.7,6.16a2.46,2.46,0,0,0,1.3,1.9l5.47,2.91a2.48,2.48,0,0,1-.14,4.44l-5.63,2.57A2.49,2.49,0,0,0,20.66,22l-1.07,6.1a2.48,2.48,0,0,1-4.27,1.24l-4.19-4.57A2.45,2.45,0,0,0,9,24l-6.13.86a2.48,2.48,0,0,1-2.5-3.68L3.38,15.8a2.51,2.51,0,0,0,.07-2.31L.73,7.92A2.48,2.48,0,0,1,3.45,4.41L9.52,5.65A2.49,2.49,0,0,0,11.74,5L16.2.7A2.47,2.47,0,0,1,20.38,2.2Z"/><path class="cls-2" d="M20.44,13.17a1.81,1.81,0,1,1-1.13-2.29A1.8,1.8,0,0,1,20.44,13.17Z"/><path class="cls-3" d="M16.34,16.16c0,.68-.77,1.12-1.75,1s-1.77-.81-1.78-1.5.77-1.12,1.75-1S16.33,15.47,16.34,16.16Z"/><path class="cls-2" d="M13,11.94a1.8,1.8,0,1,1-1.13-2.29A1.8,1.8,0,0,1,13,11.94Z"/><path class="cls-4" d="M13.37,20.92a4.88,4.88,0,0,1-1.61-.28A3.83,3.83,0,0,1,9,17.25a.8.8,0,1,1,1.6,0,2.31,2.31,0,0,0,1.74,1.84,2.3,2.3,0,0,0,2.5-.36.81.81,0,0,1,1.28,1A3.35,3.35,0,0,1,13.37,20.92Z"/></g></g></svg>