<svg xmlns="http://www.w3.org/2000/svg" width="62.051" height="58.836" viewBox="0 0 62.051 58.836">
  <g id="Group_1498" data-name="Group 1498" transform="translate(11127.48 3326.264)">
    <g id="Group_821" data-name="Group 821" transform="translate(-11127.48 -3326.264)">
      <g id="Group_820" data-name="Group 820">
        <path id="Path_1618" data-name="Path 1618" d="M440.524,67.258c-.93-7.274-8.021-12.357-15.842-11.357a15.385,15.385,0,0,0-2.525.565,12.406,12.406,0,0,0,.045-3.176c-.93-7.274-8.025-12.357-15.845-11.357S392.95,49.639,393.88,56.913a12.291,12.291,0,0,0,.956,3.3,14.882,14.882,0,0,0-3.685-.026c-7.82,1-13.406,7.705-12.476,14.979a13.2,13.2,0,0,0,9.494,10.777,12.542,12.542,0,0,0-.052,3.217c.93,7.27,8.025,12.357,15.845,11.357a14.784,14.784,0,0,0,9.263-4.883,14.775,14.775,0,0,0,10.189,2.395c7.82-1,13.41-7.705,12.476-14.979a12.137,12.137,0,0,0-1.056-3.507A13.09,13.09,0,0,0,440.524,67.258Zm-28.277.446a12.252,12.252,0,0,0-.041,3.176,12.4,12.4,0,0,0,1.052,3.507,14.207,14.207,0,0,0-2.473,2.187,14.231,14.231,0,0,0-3.841-1.811,11.211,11.211,0,0,0-.9-6.519,15.249,15.249,0,0,0,3.685.026A15.429,15.429,0,0,0,412.246,67.7Z" transform="translate(-378.573 -41.808)" fill="#afdbf2"/>
      </g>
    </g>
    <g id="Group_823" data-name="Group 823" transform="translate(-11105.472 -3306.012)">
      <g id="Group_822" data-name="Group 822">
        <path id="Path_1619" data-name="Path 1619" d="M402.355,55.085a8.968,8.968,0,1,1-10.033-7.757A8.968,8.968,0,0,1,402.355,55.085Z" transform="translate(-384.491 -47.254)" fill="#e09f4f"/>
      </g>
    </g>
  </g>
</svg>
