<svg xmlns="http://www.w3.org/2000/svg" viewBox="0 0 166.58 119.12"><defs><style>.cls-1{fill:#40a6a3;}</style></defs><title>5_side_01</title><g id="圖層_2" data-name="圖層 2"><g id="hand"><path class="cls-1" d="M165.67,52.85a11.68,11.68,0,0,0-14-6.72,11.68,11.68,0,0,0-14.95-17.75,11.68,11.68,0,0,0-19.57-12.47,11.68,11.68,0,0,0-22.4-6.05,11.68,11.68,0,0,0-23.18.93,11.68,11.68,0,0,0-21.85,7.8,11.69,11.69,0,0,0-18.52,14A11.68,11.68,0,0,0,17.71,51.46a11.68,11.68,0,0,0-7.23,22,11.69,11.69,0,0,0-.31,23.21,11.68,11.68,0,0,0,8,21.92c.29-.09.58-.19.86-.3,0,.06.07.13.1.2l142-51.29A11.67,11.67,0,0,0,165.67,52.85Z"/></g></g></svg>