<svg xmlns="http://www.w3.org/2000/svg" width="62.051" height="58.836" viewBox="0 0 62.051 58.836">
  <g id="Group_1499" data-name="Group 1499" transform="translate(11044.999 3306.633)">
    <g id="Group_817" data-name="Group 817" transform="translate(-11044.999 -3306.633)">
      <g id="Group_816" data-name="Group 816">
        <path id="Path_1616" data-name="Path 1616" d="M462.7,72.537c-.93-7.274-8.025-12.357-15.845-11.357a15.57,15.57,0,0,0-2.525.565,12.239,12.239,0,0,0,.045-3.176c-.93-7.27-8.021-12.357-15.842-11.357S415.13,54.918,416.06,62.192a12.3,12.3,0,0,0,.956,3.3,14.882,14.882,0,0,0-3.685-.026c-7.82,1-13.406,7.705-12.476,14.979a13.2,13.2,0,0,0,9.494,10.777,12.228,12.228,0,0,0-.052,3.217c.93,7.27,8.025,12.357,15.845,11.357a14.785,14.785,0,0,0,9.26-4.883,14.765,14.765,0,0,0,10.193,2.395c7.82-1,13.406-7.709,12.476-14.979a12.257,12.257,0,0,0-1.056-3.507A13.1,13.1,0,0,0,462.7,72.537Zm-28.277.446a11.2,11.2,0,0,0,1.011,6.683,14.209,14.209,0,0,0-2.473,2.187,14.451,14.451,0,0,0-3.841-1.811,11.174,11.174,0,0,0-.907-6.519,13.832,13.832,0,0,0,6.21-.539Z" transform="translate(-400.753 -47.087)" fill="#7cbadf"/>
      </g>
    </g>
    <g id="Group_819" data-name="Group 819" transform="translate(-11022.993 -3286.381)">
      <g id="Group_818" data-name="Group 818">
        <path id="Path_1617" data-name="Path 1617" d="M424.533,60.364A8.968,8.968,0,1,1,414.5,52.607,8.968,8.968,0,0,1,424.533,60.364Z" transform="translate(-406.67 -52.533)" fill="#e09f4f"/>
      </g>
    </g>
  </g>
</svg>
