<svg xmlns="http://www.w3.org/2000/svg" viewBox="0 0 107.87 127.75"><defs><style>.cls-1{fill:#7bb3d6;}.cls-2{fill:#f9d5b0;}.cls-3{fill:#d99c50;}.cls-4{fill:#ca734c;}.cls-5{fill:#fff;}.cls-6{fill:#40a6a3;}</style></defs><title>5_side_03</title><g id="圖層_2" data-name="圖層 2"><g id="hand"><path class="cls-1" d="M96.41,124.63,44,127.75l-2.13-35.7A26.25,26.25,0,0,1,66.52,64.29h0A26.25,26.25,0,0,1,94.29,88.94Z"/><path class="cls-1" d="M67.71,8.27C55.6,9.85,44.93,23.43,44.09,30.3c-.88,7.13-1.16,6.92-1.16,6.92l4.28-4.06c6.49,4.76,22,13.75,46.28,13.19,0,0,2.34-3.84,8.57-2.48v0A30.78,30.78,0,0,0,67.71,8.27Z"/><path class="cls-2" d="M99.13,42.52a11.05,11.05,0,0,0-3.83-.21C92.44,33.7,84.6,26.48,74.21,24.08,59.15,20.59,44.44,28.52,41.37,41.8S48,68.67,63.07,72.16C74.25,74.75,85.22,71,91.4,63.52a11.14,11.14,0,0,0,2.64,1,11.29,11.29,0,1,0,5.09-22Z"/><path class="cls-1" d="M67,49.64a2.27,2.27,0,1,1-1.45-2.86A2.28,2.28,0,0,1,67,49.64Z"/><path class="cls-3" d="M60.5,50.94a1.52,1.52,0,1,1-1.4-1.62A1.51,1.51,0,0,1,60.5,50.94Z"/><path class="cls-1" d="M57.82,46.87A2.27,2.27,0,1,1,56.37,44,2.27,2.27,0,0,1,57.82,46.87Z"/><path class="cls-4" d="M59.11,56.85c-.39,1.17-1.4,1.89-2.26,1.61A2,2,0,0,1,56,55.82c.38-1.17,1.4-1.89,2.26-1.61A2,2,0,0,1,59.11,56.85Z"/><path class="cls-4" d="M49,57.4l1.43-.32a2.78,2.78,0,0,0,2.1-1.91c.17-.59.33-1.2.48-1.84s.26-1.21.36-1.78a2.77,2.77,0,0,0-1-2.65L51.16,48C37.85,37.31,14.07,18.31,13.81,18.25c-3.14-.73-8.25,9.69-11.42,23.28S-.8,66.73,2.34,67.47l.34.08Z"/><path class="cls-2" d="M27.7,45.15h6.37a3.63,3.63,0,0,1,3.63,3.63V67.09a0,0,0,0,1,0,0H24.06a0,0,0,0,1,0,0V48.78A3.63,3.63,0,0,1,27.7,45.15Z" transform="translate(-15.17 11.59) rotate(-17.14)"/><path class="cls-2" d="M39.13,52.8H41.2a2.41,2.41,0,0,1,2.41,2.41V67.5a0,0,0,0,1,0,0H39.13a0,0,0,0,1,0,0V52.8A0,0,0,0,1,39.13,52.8Z" transform="translate(-15.89 14.86) rotate(-17.14)"/><path class="cls-1" d="M49.83,93.28a48.61,48.61,0,0,1-5.37-2.56c-11.53-6.38-16.24-16-18.68-23.48a2.24,2.24,0,0,1,1.51-2.84l15.62-4.6a2.25,2.25,0,0,1,2.75,1.43c1.94,5.64,4.53,8.9,8.86,11.29,6.91,3.83,13.27,3.46,14.64,2.67a1.71,1.71,0,0,0-.34.29L83.7,89.92C76.49,97.39,62.88,98.56,49.83,93.28Z"/><path class="cls-1" d="M102.54,34.76A30.78,30.78,0,0,0,68,8.22C55.92,9.81,45.2,20.41,44.09,30.3c.09.09.53.51,1.3,1.15a3.47,3.47,0,0,0,2,6.31,3.35,3.35,0,0,0,1.42-.31,3.46,3.46,0,0,0,5.71,1.7,3.47,3.47,0,0,0,3.4,2.76,3.44,3.44,0,0,0,1.83-.53,3.48,3.48,0,0,0,3.43,2.93,3.44,3.44,0,0,0,2.6-1.19,3.45,3.45,0,0,0,6,1.86,3.47,3.47,0,0,0,5.77,1.35,3.48,3.48,0,0,0,3.19,2.1,3.42,3.42,0,0,0,2.63-1.23,3.46,3.46,0,0,0,5.07.95A3.46,3.46,0,0,0,94,46.07c.63-.81,3.11-3.39,8.39-2.24v0A30.42,30.42,0,0,0,102.54,34.76Z"/><path class="cls-5" d="M104.58,36.56c3.8-14-3.68-28.79-18-34.39C72.41-3.36,56.47,2,48.86,14.23l-.42-.43c-.69-.76.11.91-.68,1.58s-2.89.06-2.19.81l5.25,5.4,0,0A66.35,66.35,0,0,0,73,35.34a69.41,69.41,0,0,0,24.44,5l4.86-.08C103.37,40.16,104.58,36.56,104.58,36.56Z"/><path class="cls-6" d="M45.75,13.62c-2.67,2.47,4.77,9.86,16.37,16.88s23.11,11.16,25.62,8.23c1.47-1.71-7.79-8.91-12-11.94C61.41,16.37,47.7,11.81,45.75,13.62Z"/></g></g></svg>