<svg xmlns="http://www.w3.org/2000/svg" viewBox="0 0 230.69 162.29"><defs><style>.cls-1{fill:#fff;}.cls-2{fill:#7bb3d6;}.cls-3{fill:#f6c855;}.cls-4{fill:#d99c50;}</style></defs><title>5_side_05</title><g id="圖層_2" data-name="圖層 2"><g id="hand"><path class="cls-1" d="M206.38,127.51a49.3,49.3,0,0,0-8.67-1.54l.64-2.46a10.2,10.2,0,0,1,2.79-4.8A12,12,0,0,0,205,111a12.12,12.12,0,1,0-20.3,7.78l-1.28,3.93a14.32,14.32,0,0,1-5.18,7.33,11.56,11.56,0,0,0-4.7,6.36c-2.47,9.13,8.26,20,23.95,24.22s30.42.28,32.89-8.86S222.08,131.75,206.38,127.51Z"/><path class="cls-2" d="M190.58,107.48a1.33,1.33,0,1,1-.69-1.76A1.34,1.34,0,0,1,190.58,107.48Z"/><path class="cls-3" d="M182.24,106.83h0l.17,0-17.25-3.15a3.81,3.81,0,0,0-4.21,3.34l-.15,1.6,20.05,1.84h0l2,.18a6.27,6.27,0,0,0,.11-.79C183.18,108.25,182.83,106.89,182.24,106.83Z"/><path class="cls-4" d="M182.92,110.67l-2-.18h0l-20-1.84a3.81,3.81,0,0,0,3.54,4l17.36,0h0C182.2,112.75,182.68,111.89,182.92,110.67Z"/><path class="cls-3" d="M21.36,95.57c-2.48,0-3.91-1.95-5-3.39-.69-.93-1.33-1.82-2-2.05a1.54,1.54,0,1,1,1-2.93,7.8,7.8,0,0,1,3.56,3.16c1.12,1.53,1.68,2.19,2.63,2.12s1.4-.83,2.26-2.53,2-4,4.75-4.2,4.26,1.85,5.38,3.37,1.71,2.19,2.63,2.12,1.4-.83,2.26-2.53a12.4,12.4,0,0,1,1.56-2.54,1.54,1.54,0,0,1,2.33,2,10.14,10.14,0,0,0-1.14,1.91c-.85,1.68-2,4-4.75,4.21s-4.26-1.85-5.38-3.37-1.68-2.19-2.64-2.12-1.39.83-2.25,2.53-2,4-4.75,4.2Z"/><path class="cls-3" d="M15.81,22.67a4.53,4.53,0,0,1-3.18-1.2c-2-1.85-1.54-4.38-1.19-6.23s.45-2.75-.24-3.37-1.56-.46-3.38.06-4.29,1.23-6.31-.62S0,6.92.32,5.08a5.5,5.5,0,0,0,.11-2.9A1.54,1.54,0,0,1,3.24.9a7.76,7.76,0,0,1,.1,4.76C3,7.52,2.9,8.41,3.59,9S5.14,9.49,7,9s4.28-1.23,6.31.62,1.54,4.38,1.19,6.23-.44,2.75.24,3.38,1.56.46,3.39-.07A12.92,12.92,0,0,1,21,18.55,1.57,1.57,0,0,1,22.61,20a1.54,1.54,0,0,1-1.49,1.59,9.77,9.77,0,0,0-2.18.47A11.61,11.61,0,0,1,15.81,22.67Z"/></g></g></svg>