<svg xmlns="http://www.w3.org/2000/svg" viewBox="0 0 78.61 54.58"><defs><style>.cls-1{fill:#7bb3d6;}.cls-2{fill:#f9d5b0;}.cls-3{fill:#ca734c;}.cls-4{fill:#d99c50;}</style></defs><title>6_side_03</title><g id="圖層_2" data-name="圖層 2"><g id="hand"><path class="cls-1" d="M78.55,0l0,0,0,0Z"/><path class="cls-2" d="M48.53,5.09h5a2.6,2.6,0,0,1,2.71,2.68L56,12.88h1.45a1.73,1.73,0,0,1,1.8,1.78l-.49,9.07H55.21l.13-2.46H44.79l.74-13.5A3,3,0,0,1,48.53,5.09Z"/><path class="cls-3" d="M42.27,18.08l.61,27.37a9.1,9.1,0,0,0,9,9.13h0a9.11,9.11,0,0,0,8.65-9.52L60,17.69Z"/><path class="cls-2" d="M53,11.66,49.3,6.6a3.25,3.25,0,0,0-4.72-.75l-5,4.09L38.54,8.47A2.17,2.17,0,0,0,35.41,8l-8.79,7.24,2.62,3.56,2.38-2,7.85,10.65L52.56,16.68A3.72,3.72,0,0,0,53,11.66Z"/><path class="cls-4" d="M49.42,20.23a1,1,0,0,1-.61-1.7l3.13-2.59a2.73,2.73,0,0,0,.31-3.71L48.53,7.17a2.53,2.53,0,0,0-1.72-1,2.07,2.07,0,0,0-1.62.47l-4.95,4.08a1,1,0,0,1-.74.22,1,1,0,0,1-.65-.39L37.77,9a1.41,1.41,0,0,0-.92-.56,1.13,1.13,0,0,0-.83.24L33.9,10.47A1,1,0,1,1,32.67,9L34.8,7.24a2.92,2.92,0,0,1,2.29-.67A3.32,3.32,0,0,1,39.32,7.9l.48.65L44,5.11a4,4,0,0,1,3.08-.9,4.5,4.5,0,0,1,3,1.82l3.72,5.06a4.68,4.68,0,0,1-.63,6.34L50,20A.94.94,0,0,1,49.42,20.23Z"/><path class="cls-3" d="M30.66,8.41,4.36,29A11.4,11.4,0,0,0,2.43,45h0a11.4,11.4,0,0,0,16,1.93l26.3-20.63Z"/></g></g></svg>