<svg xmlns="http://www.w3.org/2000/svg" viewBox="0 0 125 230.17"><defs><style>.cls-1{fill:#ca734c;}.cls-2{fill:#d99c50;}.cls-3{fill:#f9d5b0;}.cls-4{fill:#40a6a3;}.cls-5{fill:#7bb3d6;}</style></defs><title>6_side_02</title><g id="圖層_2" data-name="圖層 2"><g id="hand"><path class="cls-1" d="M17.55,157.44H77.12a0,0,0,0,1,0,0v61.13a0,0,0,0,1,0,0H17.55A12.52,12.52,0,0,1,5,206V170a12.52,12.52,0,0,1,12.52-12.52Z" transform="matrix(0.6, -0.8, 0.8, 0.6, -133.92, 107.96)"/><path class="cls-2" d="M68.69,208.07,10.84,178.63c-4.18-2.13-5.37-8-2.57-12.67l19.65-33.07C38,116,57.39,108.77,72.44,116.43l10.26,5.22c15,7.66,20.68,27.57,12.91,45.69L80.44,202.68C78.29,207.71,72.87,210.19,68.69,208.07Z"/><path class="cls-3" d="M86.2,65.2C73,66.41,62.13,74,57.17,84.1A14,14,0,1,0,55,111.64a13.73,13.73,0,0,0,3.42-.77c6.34,10.29,19.22,16.71,33.42,15.41,19.13-1.76,33.38-16.86,31.83-33.73S105.33,63.44,86.2,65.2Z"/><path class="cls-4" d="M105.12,94.83a2.47,2.47,0,1,1-2.67-2.27A2.47,2.47,0,0,1,105.12,94.83Z"/><path class="cls-2" d="M100.48,98.79a1.66,1.66,0,1,1-2.1-1A1.65,1.65,0,0,1,100.48,98.79Z"/><path class="cls-4" d="M94.72,95.93a2.47,2.47,0,1,1-2.66-2.26A2.47,2.47,0,0,1,94.72,95.93Z"/><path class="cls-1" d="M96.57,108.29c-3.15-.38-5.77-2-6.72-4.39a.84.84,0,0,1,1.56-.63c.89,2.21,4,3.64,7.31,3.4s6.19-2.09,6.76-4.4a.84.84,0,0,1,1.63.4c-.75,3-4.15,5.38-8.27,5.67A11.4,11.4,0,0,1,96.57,108.29Z"/><path class="cls-5" d="M122.18,111.38l0,0,0,0Z"/><path class="cls-4" d="M124.87,68.82c0-.15,0-.31,0-.46a.76.76,0,0,1,0-.15s0,0,0-.06c-.06-.8-.12-1.6-.22-2.42C123.9,59.81,122.33,54,120.29,51a35.45,35.45,0,0,0-18.63-12.91c-10.76-3.14-13-2.76-20.91-2.23a45.92,45.92,0,0,0-13.86,3.09A12.62,12.62,0,0,0,56.3,30,12.64,12.64,0,0,0,41.18,14.44,12.63,12.63,0,1,0,29,25.27a12.14,12.14,0,0,0,2.57-.33,12.54,12.54,0,0,0,11,14.34,12.91,12.91,0,0,0-.41,3.54,12.65,12.65,0,0,0,6,10.41,35.94,35.94,0,0,0-7,23.68,43.43,43.43,0,0,0,2.53,11l1.21-1.11A15.33,15.33,0,0,1,57.17,84.1,35.17,35.17,0,0,1,64.72,87a9.7,9.7,0,0,1,5.15,5.59,7,7,0,0,1,.24.83s25.07-2,26.62-13.4c0,0,2.11,11.92,26.38,9.1A70.6,70.6,0,0,0,124.87,68.82Z"/></g></g></svg>