<svg xmlns="http://www.w3.org/2000/svg" viewBox="0 0 56.1 58.48"><defs><style>.cls-1{fill:#fff;}.cls-2{fill:#3f9e9b;}.cls-3{fill:#d29750;}</style></defs><title>7_stars_01</title><g id="圖層_2" data-name="圖層 2"><g id="hand"><path class="cls-1" d="M26,1.45,34.35,10a4.82,4.82,0,0,0,4.26,1.38l11.83-2a4.8,4.8,0,0,1,5.07,7L49.93,27a4.81,4.81,0,0,0,0,4.47l5.59,10.62a4.8,4.8,0,0,1-5.05,7L38.64,47a4.83,4.83,0,0,0-4.25,1.39L26,57a4.81,4.81,0,0,1-8.2-2.66L16.09,42.48a4.83,4.83,0,0,0-2.63-3.61L2.68,33.56a4.8,4.8,0,0,1,0-8.61l10.77-5.32A4.83,4.83,0,0,0,16.06,16L17.78,4.12A4.79,4.79,0,0,1,26,1.45Z"/><path class="cls-2" d="M39.1,18.18A3.5,3.5,0,1,1,34.65,16,3.51,3.51,0,0,1,39.1,18.18Z"/><path class="cls-3" d="M36.36,27.63c.83,1,.15,2.63-1.52,3.57s-3.68.85-4.51-.18-.14-2.63,1.52-3.57S35.54,26.59,36.36,27.63Z"/><path class="cls-2" d="M26.28,25.11A3.5,3.5,0,1,1,21.83,23,3.52,3.52,0,0,1,26.28,25.11Z"/></g></g></svg>