<svg xmlns="http://www.w3.org/2000/svg" viewBox="0 0 86.73 88.41"><defs><style>.cls-1{fill:#edc156;}.cls-2{fill:#3f9e9b;}.cls-3{fill:#d29750;}.cls-4{fill:#c26f4a;}</style></defs><title>7_stars_03</title><g id="圖層_2" data-name="圖層 2"><g id="hand"><path class="cls-1" d="M23.7,6.86,22.62,25a7.31,7.31,0,0,1-3.51,5.8L3.52,40.25a7.28,7.28,0,0,0,1.1,13l17,6.65A7.28,7.28,0,0,1,26,65l4.13,17.73a7.28,7.28,0,0,0,12.72,3L54.42,71.68A7.29,7.29,0,0,1,60.67,69l18.14,1.55a7.28,7.28,0,0,0,6.76-11.17L75.76,44.07a7.28,7.28,0,0,1-.57-6.75l7.08-16.78a7.28,7.28,0,0,0-8.54-9.88L56.1,15.25a7.29,7.29,0,0,1-6.6-1.54L35.74,1.79A7.28,7.28,0,0,0,23.7,6.86Z"/><path class="cls-2" d="M25.25,39.07a5.31,5.31,0,1,0,3-6.9A5.31,5.31,0,0,0,25.25,39.07Z"/><path class="cls-3" d="M37.77,47.18c.08,2,2.45,3.17,5.29,2.59s5.08-2.68,5-4.69-2.45-3.16-5.29-2.58S37.69,45.18,37.77,47.18Z"/><path class="cls-2" d="M46.84,34.29a5.3,5.3,0,1,0,2.95-6.9A5.32,5.32,0,0,0,46.84,34.29Z"/><path class="cls-4" d="M54.09,57.29a3.82,3.82,0,1,1-3.82-3.82A3.82,3.82,0,0,1,54.09,57.29Z"/></g></g></svg>