<svg xmlns="http://www.w3.org/2000/svg" viewBox="0 0 128.13 93.97"><defs><style>.cls-1{fill:#f9d5b0;}.cls-2{fill:#ca734c;}.cls-3{fill:#7bb3d6;}.cls-4{fill:#d99c50;}.cls-5{fill:#40a6a3;}</style></defs><title>9_flower_02</title><g id="圖層_2" data-name="圖層 2"><g id="hand"><path class="cls-1" d="M0,61.37l.54-5.12a2.94,2.94,0,0,1,3.23-2.61l5.58.6.16-1.49A1.94,1.94,0,0,1,11.67,51l9.88,1-.38,3.6-2.67-.28L17.35,66.17,2.63,64.6A2.92,2.92,0,0,1,0,61.37Z"/><path class="cls-2" d="M55.62,71.27,16.31,67.76l1.54-17.22,39.3,3.51A8.65,8.65,0,0,1,65,63.43h0A8.66,8.66,0,0,1,55.62,71.27Z"/><path class="cls-3" d="M52.46,1.42C41,4.93,32.81,19.85,33.11,26.67c.3,7.07,0,6.91,0,6.91l3.5-4.64c7.07,3.56,23.64,9.77,47.1,5.28,0,0,1.65-4.11,7.91-3.81v0a30.29,30.29,0,0,0-39.16-29Z"/><path class="cls-1" d="M4.69,91.49,3.37,86a3.23,3.23,0,0,1,2.4-3.89l6-1.44-.38-1.59A2.14,2.14,0,0,1,13,76.46l10.64-2.54.92,3.88-2.88.68L24.43,90.1,8.58,93.88A3.23,3.23,0,0,1,4.69,91.49Z"/><rect class="cls-2" x="43.04" y="50.92" width="85.08" height="33.45" rx="16.72"/><path class="cls-2" d="M62.71,84.05,23.23,93,18.4,71.65l39.48-8.94A11,11,0,0,1,71,71h0A11,11,0,0,1,62.71,84.05Z"/><path class="cls-1" d="M88.56,29.57A11.16,11.16,0,0,0,84.8,30c-4.17-7.89-13-13.62-23.45-14.27-15.2-.94-28.19,9.17-29,22.57s10.82,25,26,25.95c11.28.7,21.33-4.7,26.11-13a11.11,11.11,0,1,0,4.09-21.67Z"/><path class="cls-3" d="M60.49,42.31a2.24,2.24,0,1,1-1.87-2.54A2.24,2.24,0,0,1,60.49,42.31Z"/><path class="cls-4" d="M54.39,44.63a1.5,1.5,0,1,1-1.63-1.35A1.5,1.5,0,0,1,54.39,44.63Z"/><path class="cls-3" d="M51.12,41.11a2.24,2.24,0,1,1-1.87-2.54A2.24,2.24,0,0,1,51.12,41.11Z"/><path class="cls-2" d="M56.7,52.62a10,10,0,0,1-4.55.26c-3.68-.6-6.55-3-7-5.78a.74.74,0,0,1,.64-.86.76.76,0,0,1,.86.64c.32,2.12,2.73,4,5.72,4.51s5.88-.55,6.86-2.46a.77.77,0,0,1,1-.33.76.76,0,0,1,.32,1A6.29,6.29,0,0,1,56.7,52.62Z"/><path class="cls-5" d="M52.77,1.33C41.26,4.84,32.58,16.89,33.11,26.67h0c.68.47,19.7,13.43,50.91,7.45,0,0,1.64-4.11,7.91-3.8v0a30,30,0,0,0-1.32-8.81A30.31,30.31,0,0,0,52.77,1.33Z"/></g></g></svg>