<svg xmlns="http://www.w3.org/2000/svg" viewBox="0 0 133.61 123.64"><defs><style>.cls-1{fill:#f9d5b0;}.cls-2{fill:#d99c50;}.cls-3{fill:#40a6a3;}.cls-4{fill:#ca734c;}</style></defs><title>9_flower_03</title><g id="圖層_2" data-name="圖層 2"><g id="hand"><path class="cls-1" d="M70.59.48l-4.82,3a3.23,3.23,0,0,0-1.06,4.45L68,13.16l-1.4.86a2.14,2.14,0,0,0-.7,2.95l5.74,9.31L75,24.19l-1.55-2.51,10.16-6.27L75,1.54A3.23,3.23,0,0,0,70.59.48Z"/><path class="cls-1" d="M11.44,106,11,100.35a3.24,3.24,0,0,1,2.94-3.5L20,96.32l-.14-1.64a2.14,2.14,0,0,1,2-2.32l10.9-.94.34,4-2.94.26,1,11.9-16.24,1.4A3.22,3.22,0,0,1,11.44,106Z"/><path class="cls-2" d="M84.1,13.21,67.57,23.93l7.77,29A31.36,31.36,0,0,0,59,82.11L29,89.75,30.27,110l38-3.74a10.41,10.41,0,0,1,6.25,1.46l0,0,27.2,15.92,31.84-54.4-27.2-15.92,0,0a17.85,17.85,0,0,1-7.2-7.89Z"/><path class="cls-3" d="M16,87.4a4.67,4.67,0,1,1-6.39,1.67A4.66,4.66,0,0,1,16,87.4Z"/><path class="cls-3" d="M47.83,19.15a6.77,6.77,0,1,0-2.42-9.26A6.77,6.77,0,0,0,47.83,19.15Z"/><path class="cls-3" d="M58.06,15.58a4.67,4.67,0,1,0-1.68-6.39A4.66,4.66,0,0,0,58.06,15.58Z"/><path class="cls-3" d="M51.27,24.24C63.77,31.56,67.22,48.93,59,63S33.89,82.6,21.39,75.28s-16-24.68-7.7-38.77S38.76,16.92,51.27,24.24Z"/><path class="cls-1" d="M55,29.28a11,11,0,0,0-1.37,3.89C45.4,33.79,37.18,38.55,32,46.62c-5.71,8.86-6.3,19.37-2.41,27.44A10.9,10.9,0,0,0,27,76.84a11.15,11.15,0,1,0,19.94,9.58c9.55,1.08,19.88-3.83,26-13.36,6.69-10.37,6.36-23,0-31.35a12.06,12.06,0,0,0,1-1.35A11,11,0,1,0,55,29.28Z"/><path class="cls-3" d="M52.57,50.05a2.32,2.32,0,1,1-3.18.82A2.33,2.33,0,0,1,52.57,50.05Z"/><path class="cls-3" d="M47,60.33a2.32,2.32,0,1,1-3.19.81A2.32,2.32,0,0,1,47,60.33Z"/><path class="cls-2" d="M52.93,57.38a1.49,1.49,0,1,1-2,.72A1.48,1.48,0,0,1,52.93,57.38Z"/><path class="cls-4" d="M60.27,57.74a4.88,4.88,0,0,1-4.93,8.42c-2.33-1.36-1.26-2.92.1-5.25S57.94,56.38,60.27,57.74Z"/><path class="cls-3" d="M30.33,58.6A9.46,9.46,0,1,1,17.39,62,9.46,9.46,0,0,1,30.33,58.6Z"/><path class="cls-3" d="M33.4,44.13a9.46,9.46,0,1,1-12.94,3.38A9.46,9.46,0,0,1,33.4,44.13Z"/><path class="cls-3" d="M40.49,32A9.45,9.45,0,1,1,27.55,35.4,9.45,9.45,0,0,1,40.49,32Z"/><path class="cls-3" d="M52.33,24.86a9.46,9.46,0,1,1-12.94,3.39A9.46,9.46,0,0,1,52.33,24.86Z"/><path class="cls-3" d="M13.72,64A9.12,9.12,0,1,1,1.25,67.28,9.13,9.13,0,0,1,13.72,64Z"/><path class="cls-3" d="M14.12,76.73a6.77,6.77,0,1,1-9.26,2.43A6.77,6.77,0,0,1,14.12,76.73Z"/><path class="cls-3" d="M36.55,25a9.11,9.11,0,1,0-3.27-12.47A9.1,9.1,0,0,0,36.55,25Z"/><path class="cls-4" d="M14,67.63l-.82.56a1.41,1.41,0,0,1-1.8.06L5.61,61.74c-.42-.47-.15-1.31.59-1.82l2.38-1.63c.73-.49,1.6-.46,1.9.08L14.71,66A1.4,1.4,0,0,1,14,67.63Z"/><path class="cls-4" d="M14.43,68.24l-.81.56a1.41,1.41,0,0,0-.7,1.66l4,7.76c.28.56,1.17.6,1.91.1l2.38-1.63c.72-.5,1-1.32.61-1.8l-5.53-6.68A1.41,1.41,0,0,0,14.43,68.24Z"/><path class="cls-2" d="M16.22,66.74c1.13,1.66,1,3.71-.26,4.59s-3.24.24-4.37-1.42-1-3.71.26-4.58S15.08,65.09,16.22,66.74Z"/><path class="cls-4" d="M40.53,22.19l-.09,1a1.41,1.41,0,0,0,.84,1.6l8.5,1.87c.62.13,1.22-.52,1.3-1.41l.25-2.87c.08-.88-.37-1.62-1-1.62l-8.68,0C41.1,20.76,40.6,21.39,40.53,22.19Z"/><path class="cls-4" d="M39.79,22.12l-.09,1c-.07.79-.54,1.41-1.1,1.43l-8.7.34c-.63,0-1.11-.73-1-1.62l.26-2.87c.08-.88.66-1.53,1.27-1.42l8.53,1.56C39.49,20.62,39.86,21.32,39.79,22.12Z"/><path class="cls-2" d="M40.23,19.83c-2-.18-3.74.93-3.87,2.47s1.37,2.94,3.37,3.12,3.73-.93,3.87-2.47S42.23,20,40.23,19.83Z"/></g></g></svg>