<svg xmlns="http://www.w3.org/2000/svg" viewBox="0 0 160.42 162.07"><defs><style>.cls-1{fill:#f6c855;}</style></defs><title>9_flower_01</title><g id="圖層_2" data-name="圖層 2"><g id="hand"><path class="cls-1" d="M156.07,23a12.8,12.8,0,0,0-17,.11,12.81,12.81,0,0,0-23.26-10.31A12.81,12.81,0,0,0,90.51,9.89a12.8,12.8,0,0,0-25,4.8,12.8,12.8,0,0,0-22.4,12A12.8,12.8,0,0,0,25.35,44.93,12.81,12.81,0,0,0,13.82,67.61,12.81,12.81,0,0,0,9.6,92.7a12.81,12.81,0,0,0,3.47,25.2,12.8,12.8,0,0,0,10.84,23A12.81,12.81,0,0,0,42.3,158.69c.25-.23.47-.47.7-.72l.2.15L158.48,39.35A12.79,12.79,0,0,0,156.07,23Z"/></g></g></svg>