<svg xmlns="http://www.w3.org/2000/svg" viewBox="0 0 233.47 232.65"><defs><style>.cls-1{fill:#7bb3d6;}</style></defs><title>9_flower_04</title><g id="圖層_2" data-name="圖層 2"><g id="hand"><path class="cls-1" d="M83.24,34.13c.07.7.19,1.38.3,2.07A31.17,31.17,0,1,0,36.76,77c.51.48,1.05.91,1.59,1.36a31.89,31.89,0,0,0-5.9-.83,31.18,31.18,0,0,0-2.55,62.3h.41c.05.29.13.57.18.85A31.14,31.14,0,1,0,64.84,192.5c.56.38,1.11.78,1.68,1.15-.2.77-.4,1.54-.55,2.34a31.18,31.18,0,0,0,61.38,11c.06-.38.09-.76.14-1.14l.46-.08a32.08,32.08,0,0,0,2.21,4.53A31.15,31.15,0,0,0,188,193.63,31.18,31.18,0,0,0,205.41,135c-.62-.33-1.25-.6-1.89-.88a31.75,31.75,0,0,0,5.91-.79,31.17,31.17,0,0,0-14.28-60.69c-.69.16-1.34.38-2,.58a31.17,31.17,0,1,0-46.73-40.82c-.41.57-.77,1.16-1.13,1.75a30.42,30.42,0,0,0,0-6,31.17,31.17,0,0,0-62.06,5.92Z"/></g></g></svg>