<svg xmlns="http://www.w3.org/2000/svg" viewBox="0 0 28.5 40.46"><defs><style>.cls-1{fill:#d99c50;}</style></defs><title>9_flower_06</title><g id="圖層_2" data-name="圖層 2"><g id="hand"><path class="cls-1" d="M15.46,25.38l3.19,1.17a1.36,1.36,0,0,0,1.25-.17l2.77-2a1.36,1.36,0,0,1,2.14,1.16L24.69,29a1.34,1.34,0,0,0,.54,1.14l2.73,2a1.36,1.36,0,0,1-.44,2.4l-3.26.93a1.36,1.36,0,0,0-.92.87l-1.08,3.21a1.36,1.36,0,0,1-2.41.33L18,37a1.37,1.37,0,0,0-1.11-.6l-3.39,0a1.36,1.36,0,0,1-1.06-2.2l2.1-2.67a1.38,1.38,0,0,0,.23-1.24l-1-3.24A1.36,1.36,0,0,1,15.46,25.38Z"/><path class="cls-1" d="M9.86,1l.68,3.09a1.28,1.28,0,0,0,.76.9l2.93,1.19a1.26,1.26,0,0,1,.17,2.26L11.67,10a1.25,1.25,0,0,0-.62,1l-.22,3.15a1.27,1.27,0,0,1-2.1.86l-2.37-2.1a1.25,1.25,0,0,0-1.14-.28l-3.07.76A1.26,1.26,0,0,1,.69,11.69L2,8.79a1.25,1.25,0,0,0-.09-1.17L.19,4.93A1.26,1.26,0,0,1,1.39,3l3.15.3a1.24,1.24,0,0,0,1.08-.44l2-2.42A1.26,1.26,0,0,1,9.86,1Z"/></g></g></svg>