<svg xmlns="http://www.w3.org/2000/svg" width="76.98" height="76.98" viewBox="0 0 76.98 76.98">
  <g id="Group_976" data-name="Group 976" transform="translate(154.63 -90.334)">
    <path id="Rectangle_1287" data-name="Rectangle 1287" d="M23.341,0h30.3A23.34,23.34,0,0,1,76.98,23.34v30.3A23.341,23.341,0,0,1,53.639,76.981h-30.3A23.339,23.339,0,0,1,0,53.641v-30.3A23.341,23.341,0,0,1,23.341,0Z" transform="translate(-154.63 90.334)" fill="#395398"/>
    <path id="Path_1715" data-name="Path 1715" d="M-77.824,176.75V147.195H-67.9l1.485-11.518H-77.824v-7.355c0-3.334,11.807-5.609,11.807-5.609v-10.3a81.587,81.587,0,0,0-8.889-.454c-8.792,0-14.814,5.368-14.814,15.226v8.494h-9.945v11.518h9.945V176.75Z" transform="translate(-23.986 -9.436)" fill="#fff"/>
  </g>
</svg>
