<svg xmlns="http://www.w3.org/2000/svg" xmlns:xlink="http://www.w3.org/1999/xlink" width="960" height="575" viewBox="0 0 960 575">
  <defs>
    <clipPath id="clip-path">
      <rect id="Rectangle_1319" data-name="Rectangle 1319" width="960" height="575" transform="translate(0 4225)" fill="#fff" stroke="#707070" stroke-width="1"/>
    </clipPath>
  </defs>
  <g id="Mask_Group_1" data-name="Mask Group 1" transform="translate(0 -4225)" clip-path="url(#clip-path)">
    <path id="Path_1939" data-name="Path 1939" d="M1555.249-124.052a123.284,123.284,0,0,1,123.286-123.283,123.242,123.242,0,0,1,109.717,67.083,108.739,108.739,0,0,1,69.443-24.927,109.115,109.115,0,0,1,94.869,55.165,125.573,125.573,0,0,1,111.107-67.009A124.973,124.973,0,0,1,2131.682-197a168.6,168.6,0,0,1,152.029-95.643A168.589,168.589,0,0,1,2452.3-124.052a168.5,168.5,0,0,1-7.75,50.637,132.715,132.715,0,0,1,62.19-15.39A133.285,133.285,0,0,1,2623.3-20.229a114.23,114.23,0,0,1,186.288,122.908,95.338,95.338,0,1,1,43.8,180.015H1567.929l-12.457-399.571C1555.335-119.252,1555.249-121.64,1555.249-124.052Z" transform="translate(-1988.249 4517.305)" fill="#fff"/>
  </g>
</svg>
