<svg xmlns="http://www.w3.org/2000/svg" width="561.446" height="431.905" viewBox="0 0 561.446 431.905">
  <g id="Group_1498" data-name="Group 1498" transform="translate(-2503.136 -2681.929)">
    <path id="Path_1892" data-name="Path 1892" d="M804.717-65.753c-38.319-38.316-102.6-36.725-146.8,2.41L802.31,81.049C841.442,36.847,843.036-27.434,804.717-65.753Z" transform="translate(1845.222 3032.785)" fill="#afdbf2"/>
    <path id="Path_1894" data-name="Path 1894" d="M806.654-97.019A68.486,68.486,0,0,0,825.3-192.062,68.488,68.488,0,0,0,730.26-210.71a68.488,68.488,0,0,0-18.65,95.04A68.486,68.486,0,0,0,806.654-97.019Zm-59.146-88.026a37.563,37.563,0,0,1,52.132,10.23,37.565,37.565,0,0,1-10.23,52.132,37.563,37.563,0,0,1-52.132-10.23A37.563,37.563,0,0,1,747.507-185.045Z" transform="translate(2227.63 2904.287)" fill="#ffcd52"/>
  </g>
</svg>
