<svg xmlns="http://www.w3.org/2000/svg" xmlns:xlink="http://www.w3.org/1999/xlink" width="1229" height="611" viewBox="0 0 1229 611">
  <defs>
    <clipPath id="clip-path">
      <rect id="Rectangle_1319" data-name="Rectangle 1319" width="1229" height="611" transform="translate(691 6706)" fill="#fff" stroke="#707070" stroke-width="1"/>
    </clipPath>
  </defs>
  <g id="Group_1499" data-name="Group 1499" transform="translate(-3408 -3002)">
    <g id="Mask_Group_2" data-name="Mask Group 2" transform="translate(2717 -3704)" clip-path="url(#clip-path)">
      <path id="Path_1794" data-name="Path 1794" d="M1980.286,622.449q0,13.109,15.825,15.825l9.042-2.267h88.642q17.651-3.167,17.642-16.733,0-34.393-65.575-24.875a182.919,182.919,0,0,0-45.226,12.217q-20.363,8.592-20.35,15.833M1602.641,384.53q0-43.854-14.025-73.7-28.046-59.246-104.484-57.91-54.249,1.389-104.017,38-29.4,21.259-43.858,47.492-30.746-28.955-83.676-27.583-37.092.454-82.318,25.325c-2.406,1.514-4.672,3.011-6.775,4.516a210.485,210.485,0,0,0-27.142-62.859q-52.913-80.038-174.576-77.792-76.43,1.8-149.7,49.75-84.126,55.171-85.026,130.242-18.546-8.579-46.125-8.125-59.26,1.363-103.576,53.808a300.958,300.958,0,0,0-42.967,65.117q-19.442-36.612-53.817-34.358-34.38,1.8-59.242,45.217-23.517,40.272-19.442,77.343-23.075-4.53-75.093,12.667t-50.65,56.534q124.826-.9,334.687-5.425,209.393-4.062,517.387-.467,307.536,4.088,486.187,1.367,178.648-2.7,316.136-4.984,22.608-40.246-18.991-55.176-41.609-15.353-55.176-9.033c-8.445,3.919-12.805,5.866-13.117,5.866a6.4,6.4,0,0,1-2.708-.433v-.917q-1.83-23.5-9.05-40.7-13.563-33.938-53.817-33.008-26.684.454-42.976,14.008-4.062-28.475-15.366-49.75-28.928-54.275-101.318-52.9a85.073,85.073,0,0,0-17.633.891,210.325,210.325,0,0,0,2.267-33.026m605.58,247.853c2.1-2.12,3.167-5.425,3.167-9.933q0-14.938-26.683-17.192-26.67-2.271-26.684,17.192c0,3.6.752,6.472,2.258,8.574q5.892,7.242,24.425,7.251,17.637,0,23.517-5.892" transform="translate(433.905 6550.481)" fill="#fff"/>
      <path id="Path_1893" data-name="Path 1893" d="M1381.948,505.067c1.809-1.416,3.595-2.877,5.325-4.435a101.759,101.759,0,0,0-136.021-151.386c-1.734,1.558-3.376,3.177-4.977,4.826Z" transform="translate(278.464 6801.335)" fill="#3dadaa"/>
    </g>
  </g>
</svg>
