<svg xmlns="http://www.w3.org/2000/svg" xmlns:xlink="http://www.w3.org/1999/xlink" width="1522" height="965" viewBox="0 0 1522 965">
  <defs>
    <clipPath id="clip-path">
      <rect id="Rectangle_1318" data-name="Rectangle 1318" width="1522" height="965" transform="translate(398 2371)" fill="#fff"/>
    </clipPath>
  </defs>
  <g id="Mask_Group_1" data-name="Mask Group 1" transform="translate(-398 -2371)" clip-path="url(#clip-path)">
    <g id="Group_1497" data-name="Group 1497">
      <path id="Path_1792" data-name="Path 1792" d="M1935.9,350.483c-35.091-11.378-64.447-31.685-97.667-46.835-29.142-13.31-59.17-17.652-90.448-17.347,5.1-96.884-38.274-196.524-149.038-198.792-99.65-2.034-182.115,73.212-214.349,163.05-95.867-37.989-197.327-33.179-280.281,30.841-53.9-58.854-118.848-92.583-199.3-102.873-82.994-10.616-183.01-22.9-262.913,7.718-50.425,19.32-75.469,60.166-116.723,90.915-28.39,21.16-69.023,27.729-102.426,37.135-49.225,13.89-98.887,26.245-148.621,38.131-73.954,17.683-148.184,34.217-222.29,51.249-18.2,4.2-21.171,28.634-4.688,37.44l.519.275c55.092,4.566,110.133,10.107,164.961,15.009,162.287,14.52,324.5,29.865,486.963,42.351,173.92,13.371,348.165,23.845,522.6,26.021,148.143,1.84,298.065-.559,444.642-24.221,93.437-15.08,224.578-39.646,277.606-129.047,4.891-8.247.122-18.212-8.552-21.018" transform="translate(397.017 2283.637)" fill="#fff"/>
      <path id="Path_1891" data-name="Path 1891" d="M1547.583-1162.36a22.615,22.615,0,0,0-30.059.194,22.619,22.619,0,0,0-12.437-27.368,22.616,22.616,0,0,0-28.626,9.172,22.62,22.62,0,0,0-20.048-22.4,22.616,22.616,0,0,0-24.576,17.308,22.615,22.615,0,0,0-25.828-15.383,22.619,22.619,0,0,0-18.28,23.861,22.615,22.615,0,0,0-29.241-6.959,22.618,22.618,0,0,0-10.314,28.235,22.616,22.616,0,0,0-29.987,2.094,22.622,22.622,0,0,0-1.4,30.029,22.617,22.617,0,0,0-27.989,10.964,22.62,22.62,0,0,0,7.635,29.075A22.619,22.619,0,0,0,1273-1064.713a22.621,22.621,0,0,0,15.977,25.464,22.615,22.615,0,0,0-16.732,24.97,22.613,22.613,0,0,0,22.855,19.523,22.621,22.621,0,0,0-8.505,28.832,22.621,22.621,0,0,0,27.65,11.8,22.612,22.612,0,0,0,.5,30.054,22.622,22.622,0,0,0,31.966,1.331c.44-.4.84-.83,1.237-1.261.115.094.236.176.352.267l203.542-209.7A22.6,22.6,0,0,0,1547.583-1162.36Z" transform="translate(446.558 4252.679)" fill="#ffcd52"/>
      <path id="Path_1897" data-name="Path 1897" d="M1307.746-1374.269h0a22.492,22.492,0,0,0,9.972,30.2L1418.53-1293.3a22.486,22.486,0,0,0,30.2-9.969h0a22.49,22.49,0,0,0-9.97-30.2l-100.811-50.768A22.491,22.491,0,0,0,1307.746-1374.269Z" transform="translate(514.21 3879.486)" fill="#7cbadf"/>
      <circle id="Ellipse_61" data-name="Ellipse 61" cx="40.777" cy="40.777" r="40.777" transform="translate(1633.979 2741.318)" fill="#afdbf2"/>
    </g>
  </g>
</svg>
