<svg xmlns="http://www.w3.org/2000/svg" viewBox="0 0 197.04 206.67"><defs><style>.cls-1{fill:#7bb3d6;}.cls-2{fill:#40a6a3;}.cls-3{fill:#f9d5b0;}.cls-4{fill:#d99c50;}.cls-5{fill:#ca734c;}.cls-6{fill:#fff;}.cls-7{fill:#f6c855;}.cls-8{fill:#7bc9c5;}</style></defs><title>03_work_00</title><g id="圖層_2" data-name="圖層 2"><g id="圖層_1-2" data-name="圖層 1"><path class="cls-1" d="M178.17,194.43s0,0,0,.06h0Z"/><path class="cls-2" d="M74,97.34h98.41A24.68,24.68,0,0,1,197,122V155a51.7,51.7,0,0,1-51.7,51.7H107.77A51.7,51.7,0,0,1,56.07,155V115.23A17.88,17.88,0,0,1,74,97.34Z" transform="translate(253.11 304.01) rotate(180)"/><path class="cls-3" d="M118.57,46.84c15-1.34,28.72,4.9,36.34,15.2A15.94,15.94,0,1,1,163,92.4a16.45,16.45,0,0,1-4-.16c-5,12.8-18.08,22.61-34.23,24.05C103,118.24,84,104.26,82.28,85.08S96.82,48.78,118.57,46.84Z"/><path class="cls-2" d="M75.73,55.28c-.41-6.76.14-13.63,1.81-17.39a40.38,40.38,0,0,1,18.2-18.25c11.39-5.71,14-5.74,22.94-6.76,26.37-3,50,13.91,52.72,37.84a49.72,49.72,0,0,1-.58,12.81l-1.58-1a17.44,17.44,0,0,0-14.33-.5C150.67,63.63,144,69.45,142.35,70a8.59,8.59,0,0,1-1.76.34,8,8,0,0,1-5.84-1.74,5.65,5.65,0,0,0-4.27-1.34,5.72,5.72,0,0,0-4,2.11,8.15,8.15,0,0,1-5.46,2.79,8,8,0,0,1-5.84-1.74A5.7,5.7,0,0,0,110.94,69a5.82,5.82,0,0,0-4,2.11,8.22,8.22,0,0,1-11.31,1.06,5.71,5.71,0,0,0-4.28-1.35,5.78,5.78,0,0,0-4,2.11c-1.22,1.19-2,4.07-4.82,4.34l-.65-1.54C78.84,71.79,76.26,64,75.73,55.28Z"/><path class="cls-2" d="M103.48,83.84A2.81,2.81,0,1,0,106,80.76,2.81,2.81,0,0,0,103.48,83.84Z"/><path class="cls-4" d="M110.6,87.19a1.88,1.88,0,1,0,2.14-1.59A1.88,1.88,0,0,0,110.6,87.19Z"/><path class="cls-2" d="M115.32,83a2.81,2.81,0,1,0,2.52-3.08A2.82,2.82,0,0,0,115.32,83Z"/><path class="cls-5" d="M111.76,97.79c-4.08,0-7.63-1.84-8.94-4.76a1,1,0,0,1,1.8-.81c1.1,2.46,4.64,3.94,8.42,3.52s6.92-2.63,7.46-5.27a1,1,0,1,1,1.94.4c-.72,3.51-4.5,6.32-9.18,6.83A12.83,12.83,0,0,1,111.76,97.79Z"/><path class="cls-1" d="M87.78,105.84l0,0,0,0Z"/><path class="cls-2" d="M133.75,175.43c-2,.48-20.33,2.13-28.25,2.82a3.91,3.91,0,0,0-3.73,3.59l-.85,24.24h39.66Z"/><path class="cls-6" d="M129.84,116.53a1,1,0,0,1-.94-.67,1,1,0,0,1,.62-1.25c37.71-12.75,26.75-58.28,26.64-58.74a1,1,0,1,1,1.91-.48c.12.48,11.5,47.76-27.92,61.09A1.12,1.12,0,0,1,129.84,116.53Z"/></g><g id="hat"><path class="cls-7" d="M177.63,49.88a3.11,3.11,0,0,0-4-1.8l-.46.16A49.87,49.87,0,0,0,75,37.44l-.86-.51a3.12,3.12,0,0,0-3.35,5.26l10.85,6.4,0-.06c11.07,6.2,25.43,10.7,41.39,12.31,15,1.51,29.06.22,40.73-3.15l12-3.79A3.11,3.11,0,0,0,177.63,49.88Z"/></g><g id="castle"><path class="cls-1" d="M22.09,58.34,53,47a1,1,0,0,1,1.33.93V70.63a1,1,0,0,1-1.33.93L22.09,60.2A1,1,0,0,1,22.09,58.34Z"/><path class="cls-2" d="M54.33,96.58a2.06,2.06,0,0,0,2.06-2.06V44a2.06,2.06,0,1,0-4.12,0V94.52A2.06,2.06,0,0,0,54.33,96.58Z"/><polygon class="cls-5" points="85.68 99.69 85.68 94.25 85.68 84.39 70.89 84.39 70.89 94.25 61.98 94.25 61.98 84.39 47.19 84.39 47.19 94.25 38.28 94.25 38.28 84.39 23.5 84.39 23.5 94.25 23.5 99.69 23.5 100.92 85.68 100.92 85.68 99.69"/><rect class="cls-6" x="23.5" y="100.92" width="62.18" height="48.4"/><polygon class="cls-5" points="109.17 153.1 109.17 148.24 109.17 137.8 94.78 137.8 94.78 148.24 85.87 148.24 85.87 137.8 71.09 137.8 71.09 148.24 62.18 148.24 62.18 137.8 47.39 137.8 47.39 148.24 38.48 148.24 38.48 137.8 23.7 137.8 23.7 148.24 14.79 148.24 14.79 137.8 0 137.8 0 148.24 0 153.1 0 158.5 109.17 158.5 109.17 153.1"/><path class="cls-6" d="M109.17,158.5H0v44.81H35.23V192.56A19.25,19.25,0,0,1,54.48,173.3h0a19.26,19.26,0,0,1,19.26,19.26v10.75h35.43Z"/><path class="cls-1" d="M54.48,173.3h0a19.25,19.25,0,0,0-19.25,19.26v10.75H73.74V192.56A19.26,19.26,0,0,0,54.48,173.3Z"/></g><g id="hand"><path class="cls-3" d="M85.3,180.94H99.48a2.58,2.58,0,0,1,2.58,2.58v27.93a0,0,0,0,1,0,0H82.72a0,0,0,0,1,0,0V183.52A2.58,2.58,0,0,1,85.3,180.94Z" transform="translate(-102.22 291.87) rotate(-90.96)"/><path class="cls-3" d="M94.79,173.28h4.64a1.71,1.71,0,0,1,1.71,1.71v18.73a0,0,0,0,1,0,0H94.79a0,0,0,0,1,0,0V173.28A0,0,0,0,1,94.79,173.28Z" transform="translate(-83.86 284.53) rotate(-90.96)"/><polygon class="cls-2" points="105.86 179.6 104.92 206.17 176.81 205.18 174.17 169.85 105.86 179.6"/><path class="cls-8" d="M126.55,177.86a1,1,0,0,1-1-.85,1,1,0,0,1,.84-1.12L146,173.22l-1.31-10.45a1,1,0,0,1,2-.25L148,173.94a1,1,0,0,1-.84,1.11l-20.51,2.8Z"/></g></g></svg>