<svg xmlns="http://www.w3.org/2000/svg" viewBox="0 0 99.79 44.51"><defs><style>.cls-1{fill:#f9d5b0;}.cls-2{fill:#40a6a3;}.cls-3{fill:#7bc9c5;}</style></defs><title>03_work_04</title><g id="圖層_2" data-name="圖層 2"><g id="hand"><path class="cls-1" d="M8.28,19.28H22.46A2.58,2.58,0,0,1,25,21.86V49.79a0,0,0,0,1,0,0H5.7a0,0,0,0,1,0,0V21.86a2.58,2.58,0,0,1,2.58-2.58Z" transform="translate(-18.9 50.49) rotate(-90.96)"/><path class="cls-1" d="M17.77,11.62H22.4a1.71,1.71,0,0,1,1.71,1.71V32.06a0,0,0,0,1,0,0H17.77a0,0,0,0,1,0,0V11.62a0,0,0,0,1,0,0Z" transform="translate(-0.54 43.14) rotate(-90.96)"/><polygon class="cls-2" points="28.84 17.95 27.91 44.51 99.79 43.52 97.15 8.19 28.84 17.95"/><path class="cls-3" d="M49.54,16.2a1,1,0,0,1-1-.85,1,1,0,0,1,.84-1.11l19.54-2.68L67.64,1.11a1,1,0,1,1,2-.24L71,12.29a1,1,0,0,1-.84,1.1l-20.51,2.8Z"/></g></g></svg>