<svg xmlns="http://www.w3.org/2000/svg" viewBox="0 0 252.27 153.01"><defs><style>.cls-1{fill:#ca734c;}.cls-2{fill:#f6c855;}.cls-3{fill:#7bb3d6;}.cls-4{fill:#acd5eb;}.cls-5{fill:#f9d5b0;}</style></defs><title>10_ele_00</title><g id="圖層_2" data-name="圖層 2"><g id="hand"><path class="cls-1" d="M250.88,96.51c2.64-3.85,1.42-9.28-2.73-12.12a10.72,10.72,0,0,0-1.44-.8,7.49,7.49,0,0,0,1.37-1.49c2.64-3.86,1.42-9.28-2.73-12.12s-9.64-2-12.28,1.84a7.67,7.67,0,0,0-.95,2,9.41,9.41,0,0,0-1.74-1.58c-4.15-2.83-9.65-2-12.29,1.85a8.43,8.43,0,0,0-.05,9.15,7.65,7.65,0,0,0-1.38,1.51c-2.64,3.85-1.42,9.28,2.72,12.12a9.42,9.42,0,0,0,6.48,1.6,9.42,9.42,0,0,0,3.84,5.46c4.14,2.84,9.64,2,12.28-1.84a7.85,7.85,0,0,0,1-2.12A8.34,8.34,0,0,0,250.88,96.51ZM237.24,84.74a7.78,7.78,0,0,0-1.37,1.49,8.16,8.16,0,0,0-1,2.12,9.22,9.22,0,0,0-2.1,0,9.2,9.2,0,0,0-1.06-2.49,7.11,7.11,0,0,0,2.33-3.48,10.08,10.08,0,0,0,1.74,1.57A9.82,9.82,0,0,0,237.24,84.74Z"/><path class="cls-2" d="M239.26,88.41a5.72,5.72,0,1,1-1.49-7.94A5.73,5.73,0,0,1,239.26,88.41Z"/><path class="cls-3" d="M228.18,115.37l-14-12a.71.71,0,0,0-.92,0c-22.63,17.81-29.28,10-34.39,2.31-4.44-6.67-1.25-18.22-1.44-24.74a.25.25,0,0,1,0-.08l.63-7.61c2.18-26-20.2-65-43.53-67h0l-13.15-1.1L77.47,1.46,62.05.17h0A50,50,0,0,0,28.32,9.89,60.72,60.72,0,0,0,6.06,42.25,67.41,67.41,0,0,0,3.68,55.13l-3.6,43a21.87,21.87,0,0,0,.67,7.54c1.94,7.25,7.53,12.79,14.62,13.83v.06L13.5,141.86a.82.82,0,0,0,.69.92l20.91,1.75a.81.81,0,0,0,.82-.71l2.91-17.4a.76.76,0,0,1,1.52,0l2.72,18.15a.79.79,0,0,0,.68.7l21.75,1.82a.85.85,0,0,0,.84-1l-2.21-18.5a.84.84,0,0,1,.83-1l25,2.1a.84.84,0,0,1,.66,1.12L83.8,147.54a.85.85,0,0,0,.66,1.13l19.42,1.62a.75.75,0,0,0,.74-.44l9.64-18.8a.75.75,0,0,1,1.43.38l.48,19.13a.8.8,0,0,0,.7.82L136.34,153a.82.82,0,0,0,.84-.76l3.87-32.76a.76.76,0,0,1,1.4-.4c3.68,5.84,13.15,14.77,23.16,20.12,16.13,8.62,48.6,3.57,62.76-22.71A.93.93,0,0,0,228.18,115.37Z"/><path class="cls-4" d="M181.74,121.41a.84.84,0,0,1-.34-.08.78.78,0,0,1-.36-1l4-8.2a.79.79,0,0,1,1-.37.8.8,0,0,1,.37,1l-4,8.2A.77.77,0,0,1,181.74,121.41Z"/><path class="cls-4" d="M187.57,123.72a.66.66,0,0,1-.23,0,.77.77,0,0,1-.51-1l2.68-8.7a.76.76,0,0,1,1-.52.78.78,0,0,1,.52,1l-2.68,8.71A.78.78,0,0,1,187.57,123.72Z"/><path class="cls-4" d="M195.46,123.88a.78.78,0,0,1-.77-.68l-1.13-9a.79.79,0,1,1,1.56-.2l1.12,9.05a.79.79,0,0,1-.68.87Z"/><path class="cls-5" d="M143.45,76.51a3.28,3.28,0,1,1-3.28-3.28A3.27,3.27,0,0,1,143.45,76.51Z"/><ellipse class="cls-4" cx="94.78" cy="59.66" rx="27.76" ry="43.53"/></g></g></svg>