<svg xmlns="http://www.w3.org/2000/svg" viewBox="0 0 182.64 250.6"><defs><style>.cls-1{fill:#40a6a3;}.cls-2{fill:#ca734c;}.cls-3{fill:#c6e5e4;}.cls-4{fill:#7bb3d6;}.cls-5{fill:#f6c855;}</style></defs><title>11_castle_02</title><g id="圖層_2" data-name="圖層 2"><g id="hand"><path class="cls-1" d="M106.91,76.17A2.88,2.88,0,0,1,104,73.3V2.87a2.87,2.87,0,0,1,5.74,0V73.3A2.87,2.87,0,0,1,106.91,76.17Z"/><polygon class="cls-2" points="63.23 80.5 63.23 72.92 63.23 59.17 83.84 59.17 83.84 72.92 96.25 72.92 96.25 59.17 116.86 59.17 116.86 72.92 129.28 72.92 129.28 59.17 149.89 59.17 149.89 72.92 149.89 80.5 149.89 82.21 63.23 82.21 63.23 80.5"/><rect class="cls-3" x="63.23" y="82.21" width="86.66" height="67.46"/><polygon class="cls-2" points="30.48 154.94 30.48 148.16 30.48 133.62 50.54 133.62 50.54 148.16 62.95 148.16 62.95 133.62 83.56 133.62 83.56 148.16 95.98 148.16 95.98 133.62 116.59 133.62 116.59 148.16 129 148.16 129 133.62 149.61 133.62 149.61 148.16 162.03 148.16 162.03 133.62 182.64 133.62 182.64 148.16 182.64 154.94 182.64 162.47 30.48 162.47 30.48 154.94"/><path class="cls-3" d="M30.48,162.47H182.64V250.6h-49.1V209.93a26.83,26.83,0,0,0-26.83-26.83h0a26.83,26.83,0,0,0-26.84,26.83V250.6H30.48Z"/><path class="cls-4" d="M106.71,183.1h0a26.83,26.83,0,0,1,26.83,26.83V250.6H79.87V209.93A26.83,26.83,0,0,1,106.71,183.1Z"/><path class="cls-1" d="M90.14,250.6V209.93a16.57,16.57,0,0,1,33.13,0V250.6Z"/><path class="cls-4" d="M.15,208.48c.87,4.29,5.31,7,9.92,6.07a8.75,8.75,0,0,0,1.48-.44,7.56,7.56,0,0,0,.11,1.89c.87,4.29,5.32,7,9.93,6.07s7.65-5.17,6.78-9.46a7.38,7.38,0,0,0-.72-1.92,9.16,9.16,0,0,0,2.2-.15c4.61-.93,7.64-5.17,6.77-9.46a7.86,7.86,0,0,0-6.12-6,7.34,7.34,0,0,0-.11-1.92c-.87-4.29-5.31-7-9.92-6.07a8.81,8.81,0,0,0-5.31,3.31,8.75,8.75,0,0,0-6.17-1c-4.61.93-7.64,5.17-6.77,9.46a7.3,7.3,0,0,0,.78,2A7.79,7.79,0,0,0,.15,208.48ZM17,207a7.12,7.12,0,0,0-.11-1.89,7.38,7.38,0,0,0-.78-2,9.19,9.19,0,0,0,1.38-1.41,8.32,8.32,0,0,0,2.36.91,6.71,6.71,0,0,0,.82,3.84,9,9,0,0,0-2.19.15A8.75,8.75,0,0,0,17,207Z"/><path class="cls-5" d="M13.06,204.06a5.36,5.36,0,1,1,6.31,4.18A5.36,5.36,0,0,1,13.06,204.06Z"/></g></g></svg>