<svg xmlns="http://www.w3.org/2000/svg" viewBox="0 0 38.62 39.04"><defs><style>.cls-1{fill:#c26f4a;}.cls-2{fill:#f6c855;}</style></defs><title>12_grass_06</title><g id="圖層_2" data-name="圖層 2"><g id="hand"><path class="cls-1" d="M4.31,5c-3.77,3.15-4.08,9-.69,13A10.89,10.89,0,0,0,4.85,19.3,8.13,8.13,0,0,0,3,20.42c-3.77,3.15-4.08,9-.69,13s9.19,4.78,13,1.63a8.28,8.28,0,0,0,1.52-1.73,10.32,10.32,0,0,0,1.32,2.09c3.38,4,9.18,4.78,13,1.63a8.83,8.83,0,0,0,2.65-9.24,8.36,8.36,0,0,0,1.84-1.13c3.76-3.15,4.07-9,.69-13a9.94,9.94,0,0,0-6.1-3.47,9.89,9.89,0,0,0-2.33-6.61C24.46-.46,18.66-1.19,14.89,2a8.31,8.31,0,0,0-1.6,1.86A8.77,8.77,0,0,0,4.31,5ZM14.76,20.83a8.13,8.13,0,0,0,1.81-1.12,8.06,8.06,0,0,0,1.6-1.86,9.41,9.41,0,0,0,2.13.61,9.38,9.38,0,0,0,.36,2.82,7.53,7.53,0,0,0-3.35,2.86A10.32,10.32,0,0,0,16,22.05,9.45,9.45,0,0,0,14.76,20.83Z"/><path class="cls-2" d="M15.57,15.43a6,6,0,1,1-.76,8.46A6,6,0,0,1,15.57,15.43Z"/></g></g></svg>