<svg xmlns="http://www.w3.org/2000/svg" viewBox="0 0 520.52 112.48"><defs><style>.cls-1{fill:#7bb3d6;}.cls-2{fill:#f9d5b0;}.cls-3{fill:#d99c50;}.cls-4{fill:#ca734c;}.cls-5{fill:#cb714d;}.cls-6{fill:#40a6a3;}.cls-7{fill:#f6c855;}.cls-8{fill:#c26f4a;}.cls-9{fill:#f5d180;}.cls-10{fill:#fef5e4;}</style></defs><title>12_grass_00</title><g id="圖層_2" data-name="圖層 2"><g id="hand"><path class="cls-1" d="M74.26,12.77c14.5,4.95,24.26,24.29,23.59,33-.69,9-.29,8.8-.29,8.8L93.3,48.47c-9.15,4.24-30.51,11.44-60.19,4.75,0,0-1.92-5.31-9.91-5.18v0A38.63,38.63,0,0,1,74.26,12.77Z"/><path class="cls-2" d="M27.13,47.1a14.21,14.21,0,0,1,4.77.69C37.55,37.92,49,31,62.36,30.6c19.38-.56,35.5,12.85,36,29.94s-14.83,31.4-34.22,32c-14.39.41-27-6.88-32.69-17.65a14.38,14.38,0,0,1-3.49.56,14.16,14.16,0,1,1-.82-28.31Z"/><path class="cls-1" d="M64.88,63.83a2.85,2.85,0,1,0,2.49-3.16A2.86,2.86,0,0,0,64.88,63.83Z"/><path class="cls-3" d="M72.55,67a1.91,1.91,0,1,0,2.13-1.65A1.9,1.9,0,0,0,72.55,67Z"/><path class="cls-1" d="M76.86,62.69a2.84,2.84,0,1,0,2.49-3.16A2.84,2.84,0,0,0,76.86,62.69Z"/><path class="cls-4" d="M72.8,74.65c.18,1.54,1.25,2.67,2.38,2.54s1.9-1.49,1.71-3-1.25-2.68-2.38-2.54S72.61,73.11,72.8,74.65Z"/><path class="cls-1" d="M24.86,36.71a38.61,38.61,0,0,1,49-24.07c14.5,4.95,25.05,20.65,24,33.08-.13.09-.78.49-1.88,1.09a4.36,4.36,0,0,1-5.72,6.53,4.33,4.33,0,0,1-7.43.67,4.34,4.34,0,0,1-7,1.45,4.34,4.34,0,0,1-7.85.65,4.33,4.33,0,0,1-7.87.79A4.35,4.35,0,0,1,55.48,59a4.4,4.4,0,0,1-2.8-1.91,4.34,4.34,0,0,1-7.38-.36,4.32,4.32,0,0,1-6.46-.09,4.35,4.35,0,0,1-6.27-3.92c-.57-1.16-3-5-9.76-4.84v0A38.82,38.82,0,0,1,24.86,36.71Z"/><path class="cls-5" d="M21.91,38.43C20.7,20.32,33.57,3.93,52.59.6,71.37-2.69,89.64,7.9,96,24.77l.62-.42c1-.76-.37,1.1.45,2.11s3.53.79,2.49,1.55l-7.8,5.33,0,0c-8,5.2-18.6,9.34-30.66,11.45a87.44,87.44,0,0,1-31.3.07l-6-1.31C22.5,43.15,21.91,38.43,21.91,38.43Z"/><path class="cls-6" d="M99.94,24.8c2.67,3.69-8.31,11-24.32,16.7s-31.18,8-33.54,3.77c-1.38-2.47,11.79-9,17.69-11.72C80,24.29,98,22.09,99.94,24.8Z"/><circle class="cls-5" cx="197.57" cy="83.23" r="27.98" transform="translate(-16.81 81.94) rotate(-22.5)"/><path class="cls-6" d="M466.72,59.71a53.76,53.76,0,0,0-44.13,23,63.24,63.24,0,0,0-119.31.8,53.83,53.83,0,0,0-87.79-2.24,63.25,63.25,0,0,0-118.18.57A53.81,53.81,0,0,0,0,112.48H520.52A53.81,53.81,0,0,0,466.72,59.71Z"/><path class="cls-3" d="M294.05,84a6.79,6.79,0,0,0-.39-10.14,5.77,5.77,0,0,0,1.29-.8,6.82,6.82,0,0,0-8.73-10.44,6,6,0,0,0-1.08,1.24,7.16,7.16,0,0,0-.94-1.49A6.57,6.57,0,0,0,275,61.2a6.3,6.3,0,0,0-1.89,6.58,5.88,5.88,0,0,0-1.3.81,6.58,6.58,0,0,0-.49,9.28,7.06,7.06,0,0,0,4.34,2.46,7,7,0,0,0,1.66,4.7,6.56,6.56,0,0,0,9.21,1.16,6,6,0,0,0,1.14-1.32A6.24,6.24,0,0,0,294.05,84Zm-7.44-11.23a6,6,0,0,0-1.29.8,5.66,5.66,0,0,0-1.13,1.32,6.9,6.9,0,0,0-1.52-.43,6.61,6.61,0,0,0-.26-2,5.76,5.76,0,0,0,1.31-.8,6.27,6.27,0,0,0,1.08-1.23,7,7,0,0,0,.93,1.48A7.22,7.22,0,0,0,286.61,72.76Z"/><path class="cls-7" d="M286,76.61a4.28,4.28,0,1,1,.53-6A4.28,4.28,0,0,1,286,76.61Z"/><path class="cls-8" d="M339.13,68c-3.77,3.15-4.08,9-.7,13a10.11,10.11,0,0,0,1.23,1.22,8.7,8.7,0,0,0-1.8,1.12c-3.77,3.15-4.08,9-.69,13s9.18,4.78,12.95,1.63a8,8,0,0,0,1.52-1.73A10,10,0,0,0,353,98.43c3.39,4,9.19,4.78,12.95,1.64a8.85,8.85,0,0,0,2.66-9.25,8.29,8.29,0,0,0,1.83-1.13c3.77-3.15,4.08-9,.69-13A9.87,9.87,0,0,0,365,73.19a9.9,9.9,0,0,0-2.33-6.62c-3.39-4-9.19-4.78-13-1.63a8.06,8.06,0,0,0-1.6,1.86A8.77,8.77,0,0,0,339.13,68Zm10.45,15.8a8.77,8.77,0,0,0,1.81-1.12A8.44,8.44,0,0,0,353,80.84a9.69,9.69,0,0,0,2.13.6,9.72,9.72,0,0,0,.37,2.82,7.34,7.34,0,0,0-3.35,2.87,9.32,9.32,0,0,0-2.55-3.31Z"/><path class="cls-7" d="M350.39,78.41a6,6,0,1,1-.76,8.46A6,6,0,0,1,350.39,78.41Z"/><path class="cls-5" d="M238.62,49.32c-2.19,15.44-19,25.81-37.61,23.17s-31.87-17.3-29.67-32.74,19-25.81,37.62-23.17S240.82,33.88,238.62,49.32Z"/><circle class="cls-5" cx="190.72" cy="17.68" r="11.15"/><path class="cls-3" d="M213.69,63c-2.37,7.22-11.2,10.79-19.72,8S180.48,60,182.85,52.8s11.2-10.78,19.72-8S216.07,55.74,213.69,63Z"/><circle class="cls-5" cx="230.81" cy="28.83" r="11.15"/><circle class="cls-6" cx="197.57" cy="42.23" r="2.32"/><circle class="cls-6" cx="208.38" cy="46.5" r="2.32"/><path class="cls-5" d="M197,47.28c.4-1.23,2.23-1.73,4.08-1.12s3,2.1,2.62,3.32-2.23,1.73-4.08,1.12S196.56,48.5,197,47.28Z"/><path class="cls-5" d="M222.6,82a7.11,7.11,0,1,1-7.11-7.12A7.11,7.11,0,0,1,222.6,82Z"/><path class="cls-9" d="M101.6,64.12c-.73,3.87-3.24,6.65-5.6,6.2s-3.7-3.94-3-7.82,3.24-6.65,5.61-6.21S102.33,60.24,101.6,64.12Z"/><polygon class="cls-9" points="96 70.33 128.45 76.44 131.7 59.19 98.64 56.29 96 70.33"/><path class="cls-5" d="M135.44,68.83c-.9,4.76-4,8.17-7,7.61s-4.64-4.87-3.74-9.64,4-8.17,7-7.61S136.34,64.06,135.44,68.83Z"/><path class="cls-7" d="M88.45,73.1c-.73,3.87-3.24,6.65-5.6,6.2s-3.7-3.94-3-7.82,3.24-6.65,5.61-6.21S89.18,69.22,88.45,73.1Z"/><polygon class="cls-7" points="82.85 79.3 115.3 85.42 118.55 68.17 85.49 65.27 82.85 79.3"/><path class="cls-5" d="M122.29,77.81c-.9,4.76-4,8.17-7,7.61s-4.64-4.87-3.74-9.64,4-8.17,7-7.61S123.19,73,122.29,77.81Z"/><path class="cls-7" d="M104.63,69.42h0a1.56,1.56,0,0,1-.09-2.21l2.71-2.95a1.59,1.59,0,0,1,2.22-.09h0a1.57,1.57,0,0,1,.09,2.22l-2.71,2.94A1.57,1.57,0,0,1,104.63,69.42Z"/><path class="cls-10" d="M121.48,77.77c-.64,3.43-2.9,5.87-5,5.47s-3.34-3.5-2.7-6.92,2.9-5.87,5-5.47S122.13,74.35,121.48,77.77Z"/><path class="cls-10" d="M134.76,68.71c-.65,3.42-2.9,5.87-5,5.46s-3.34-3.5-2.69-6.92,2.89-5.87,5-5.46S135.4,65.29,134.76,68.71Z"/><path class="cls-2" d="M93.7,87h0a6.24,6.24,0,0,1-5.86-6.55h0a6.24,6.24,0,0,1,6.55-5.86h0a6.23,6.23,0,0,1,5.86,6.55h0A6.22,6.22,0,0,1,93.7,87Z"/></g></g></svg>