<svg xmlns="http://www.w3.org/2000/svg" viewBox="0 0 27.48 27.78"><defs><style>.cls-1{fill:#d99c50;}.cls-2{fill:#f6c855;}</style></defs><title>12_grass_05</title><g id="圖層_2" data-name="圖層 2"><g id="hand"><path class="cls-1" d="M24.42,24.18A6.79,6.79,0,0,0,24,14a6,6,0,0,0,1.29-.8A6.58,6.58,0,0,0,25.8,4a6.56,6.56,0,0,0-9.21-1.15A5.46,5.46,0,0,0,15.51,4a7.6,7.6,0,0,0-.94-1.49A6.58,6.58,0,0,0,5.35,1.39,6.28,6.28,0,0,0,3.47,8a6.18,6.18,0,0,0-1.31.81,6.58,6.58,0,0,0-.49,9.28A7.11,7.11,0,0,0,6,20.52a7.06,7.06,0,0,0,1.66,4.7,6.57,6.57,0,0,0,9.22,1.16A6,6,0,0,0,18,25.06,6.24,6.24,0,0,0,24.42,24.18ZM17,13a5.45,5.45,0,0,0-2.42,2.12A6.82,6.82,0,0,0,13,14.64a6.94,6.94,0,0,0-.26-2,5.49,5.49,0,0,0,1.3-.8,6,6,0,0,0,1.08-1.23,7.09,7.09,0,0,0,.94,1.48A7.15,7.15,0,0,0,17,13Z"/><path class="cls-2" d="M16.4,16.8a4.27,4.27,0,1,1,.54-6A4.28,4.28,0,0,1,16.4,16.8Z"/></g></g></svg>