<svg xmlns="http://www.w3.org/2000/svg" viewBox="0 0 38.17 78.5"><defs><style>.cls-1{fill:#edc156;}.cls-2{fill:#f9d5b0;}</style></defs><title>13_teen_02</title><g id="圖層_2" data-name="圖層 2"><g id="hand"><path class="cls-1" d="M10.11,77.86h0a14.35,14.35,0,0,0,18-9.47L38.14,35.76a.64.64,0,0,0-.42-.8l-26.19-8.1a.64.64,0,0,0-.8.43L.64,59.92A14.34,14.34,0,0,0,10.11,77.86Z"/><path class="cls-2" d="M29.75,14.75h-10V6.9A6.91,6.91,0,0,0,12.79,0H11.2A2.32,2.32,0,0,0,8.88,2.32V34.93a2.44,2.44,0,0,0,2.44,2.44H29.75a4.4,4.4,0,0,0,4.4-4.4V19.15A4.4,4.4,0,0,0,29.75,14.75Z"/></g></g></svg>