<svg xmlns="http://www.w3.org/2000/svg" viewBox="0 0 301.8 237.66"><defs><style>.cls-1{fill:#40a6a3;}.cls-2{fill:#7bb3d6;}.cls-3{fill:#f9d5b0;}.cls-4{fill:#d99c50;}.cls-5{fill:#edc156;}.cls-6{fill:#ca734c;}.cls-7{fill:#fff;}.cls-8{fill:#acd5eb;}</style></defs><title>13_teen_00</title><g id="圖層_2" data-name="圖層 2"><g id="hand"><path class="cls-1" d="M217.36,13h16.9a48.6,48.6,0,0,1,48.6,48.6v79.57a39.61,39.61,0,0,1-39.61,39.61H208.37a39.61,39.61,0,0,1-39.61-39.61V61.55A48.6,48.6,0,0,1,217.36,13Z" transform="translate(11.2 -22.78) rotate(5.92)"/><path class="cls-2" d="M21.5,236.92l106.66.74.43-61.62c.17-25-23.57-45.41-53-45.61h0c-29.45-.2-53.47,19.89-53.64,44.87Z"/><path class="cls-1" d="M133.3,62.18c.33,27.95-25,50.91-56.45,51.27s-57.31-22-57.64-49.95S44.16,12.59,75.67,12.23,133,34.22,133.3,62.18Z"/><path class="cls-3" d="M128.65,73.29a21.05,21.05,0,0,0-7.8,1.6C111.69,62,95.64,53.11,77.12,52.52,56.8,51.88,38.83,61.34,29.36,75.8a21.28,21.28,0,0,0-7.17-1.5,21.52,21.52,0,0,0-1.36,43,22,22,0,0,0,5.35-.53c7.7,16.86,26.1,29.07,48,29.77,23.8.75,44.38-12.37,51.84-31.13a22.53,22.53,0,0,0,3.2.23,21.18,21.18,0,0,0-.53-42.36Z"/><path class="cls-4" d="M79.12,97.86A2.88,2.88,0,1,1,76,95.29,2.88,2.88,0,0,1,79.12,97.86Z"/><path class="cls-5" d="M17.43,203.47h0A14.34,14.34,0,0,0,35.37,194l10.08-32.63a.63.63,0,0,0-.42-.8l-26.19-8.09a.63.63,0,0,0-.8.42L8,185.53A14.36,14.36,0,0,0,17.43,203.47Z"/><path class="cls-3" d="M37.06,140.36H27v-7.84a6.91,6.91,0,0,0-6.91-6.91H18.51a2.32,2.32,0,0,0-2.32,2.32v32.61A2.44,2.44,0,0,0,18.63,163H37.06a4.4,4.4,0,0,0,4.4-4.4V144.76A4.4,4.4,0,0,0,37.06,140.36Z"/><path class="cls-1" d="M144.82,58a15.87,15.87,0,0,0-7.71-13.6,15.87,15.87,0,0,0-13.9-23.55,16.08,16.08,0,0,0-4.13.56A15.84,15.84,0,0,0,94.88,9.85a15.87,15.87,0,0,0-28-2.61A15.87,15.87,0,0,0,39.8,18.49a16.22,16.22,0,0,0,.26,2.81,15.87,15.87,0,0,0-22,22.25,15.86,15.86,0,0,0,5.53,30.27,18.22,18.22,0,0,0,31-5.84A18.17,18.17,0,0,0,78.1,64.64a18.17,18.17,0,0,0,19.4,4.87A18.21,18.21,0,0,0,131,73.73,15.87,15.87,0,0,0,144.82,58ZM104.1,39.12a16.14,16.14,0,0,0,3.35-.52A15.71,15.71,0,0,0,111.08,47c-.68.16-1.34.36-2,.58A18.14,18.14,0,0,0,104.1,39.12ZM77.81,40.26a18.2,18.2,0,0,0-30.58,6.28,18.25,18.25,0,0,0-4.06-1.93,15.77,15.77,0,0,0,3.75-10.24,16.43,16.43,0,0,0-.26-2.82A15.85,15.85,0,0,0,69,27.13a15.83,15.83,0,0,0,19.65,2.18,15.78,15.78,0,0,0,3.06,4.76c-.14,0-.28,0-.42,0A18.18,18.18,0,0,0,77.81,40.26Z"/><path class="cls-5" d="M278.42,236.74l-106.66.73-.42-60.76c-.17-24.64,23.57-44.78,53-45h0c29.45-.2,53.47,19.6,53.64,44.24Z"/><path class="cls-1" d="M172.57,57.21C169.36,85,192.13,110.42,223.43,114s59.28-16,62.48-43.73-19.56-53.22-50.86-56.83S175.78,29.43,172.57,57.21Z"/><path class="cls-3" d="M176.05,68.74a21.09,21.09,0,0,1,7.6,2.4C194.09,59.21,211,52.07,229.44,53.4c20.28,1.45,37.18,12.72,45.11,28.08a21.52,21.52,0,1,1-1.06,41.09c-9.4,16-29,26.23-50.78,24.66-23.75-1.71-42.87-16.88-48.35-36.31a21.49,21.49,0,0,1-3.2-.11,21.18,21.18,0,1,1,4.89-42.07Z"/><path class="cls-1" d="M210.85,89.13a4.49,4.49,0,1,0,5-4A4.49,4.49,0,0,0,210.85,89.13Z"/><path class="cls-1" d="M233.22,92.38a4.49,4.49,0,1,0,4.95-4A4.48,4.48,0,0,0,233.22,92.38Z"/><path class="cls-4" d="M221.73,98.18A2.88,2.88,0,1,0,225.15,96,2.88,2.88,0,0,0,221.73,98.18Z"/><path class="cls-2" d="M283.33,209.59h0a14.35,14.35,0,0,1-17.95-9.47L255.3,167.49a.64.64,0,0,1,.42-.8l26.19-8.1a.65.65,0,0,1,.8.42l10.09,32.63A14.35,14.35,0,0,1,283.33,209.59Z"/><path class="cls-3" d="M263.69,146.48h10.05v-7.85a6.9,6.9,0,0,1,6.91-6.9h1.59a2.32,2.32,0,0,1,2.32,2.32v32.6a2.45,2.45,0,0,1-2.44,2.45H263.69a4.4,4.4,0,0,1-4.4-4.4V150.88A4.4,4.4,0,0,1,263.69,146.48Z"/><path class="cls-1" d="M177.35,65.3l8.28,7.81a5.28,5.28,0,0,0,4.67,1.34l13.13-2.66a16.46,16.46,0,0,1,10.71,1.44L223.51,78a5.27,5.27,0,0,0,3.84.36l6.31-1.81a16.4,16.4,0,0,1,11.45.87l8.22,3.79a5.25,5.25,0,0,0,3.64.28L262.11,80a15,15,0,0,1,8.81.23l3.63,1.24,8.11-14.31L251.9,44.65,221.69,33.81l-23.4,11.35Z"/><path class="cls-6" d="M225.05,115.66c-10.07,0-15.81-3.93-16.16-4.18a1.14,1.14,0,0,1,1.31-1.86c.12.09,12.24,8.3,32.26,0a1.14,1.14,0,0,1,.87,2.11A47.75,47.75,0,0,1,225.05,115.66Z"/><rect class="cls-7" x="55.01" y="105.48" width="43.24" height="15.96" rx="5.91"/><path class="cls-1" d="M84.56,93.09A1.14,1.14,0,0,1,84,91,19.9,19.9,0,0,1,96.86,89.7a1.14,1.14,0,1,1-.48,2.22A17.89,17.89,0,0,0,85.1,93,1.13,1.13,0,0,1,84.56,93.09Z"/><path class="cls-1" d="M66.4,93.09a1.06,1.06,0,0,1-.52-.13,18.2,18.2,0,0,0-11.3-1,1.13,1.13,0,1,1-.47-2.22A19.92,19.92,0,0,1,66.94,91a1.14,1.14,0,0,1-.54,2.14Z"/><path class="cls-8" d="M97.2,114.6h-41a1.14,1.14,0,0,1,0-2.28h41a1.14,1.14,0,0,1,0,2.28Z"/></g></g></svg>