<svg xmlns="http://www.w3.org/2000/svg" viewBox="0 0 302.34 237.1"><defs><style>.cls-1{fill:#40a6a3;}.cls-2{fill:#7bb3d6;}.cls-3{fill:#f9d5b0;}.cls-4{fill:#ca734c;}.cls-5{fill:#fff;}.cls-6{fill:#d99c50;}.cls-7{fill:#acd5eb;}.cls-8{fill:#edc156;}</style></defs><title>14_government_00</title><g id="圖層_2" data-name="圖層 2"><g id="hand"><polygon class="cls-1" points="203.6 136.78 133.87 191.89 145.29 217.9 218.11 169.01 203.6 136.78"/><path class="cls-2" d="M14.49,236.32l113.57.78.42-60.76c.17-24.64-25.12-44.79-56.48-45h0c-31.36-.22-56.92,19.58-57.09,44.22Z"/><path class="cls-3" d="M72.84,51.27C53.1,51.58,36.1,61.59,27.58,76A20.89,20.89,0,1,0,26.38,116c8.25,16,26.65,27,47.89,26.66,28.61-.45,51.48-21.26,51.09-46.48S101.45,50.82,72.84,51.27Z"/><path class="cls-1" d="M50.71,9.52H91.19c17.89,0,56,21.37,37.42,68.64l-4.47,8.71-3.2-9.38-6.65-21.62c-.7-2.36-2.08-4.49-4.65-4.49H35.72c-2.57,0-3.66,1.73-4.65,4.49L25.43,79.36l-4.87-4.43L16.11,63.47c-5.21-21.3,6.21-49,27.73-53.25A35.44,35.44,0,0,1,50.71,9.52Z"/><path class="cls-1" d="M74.46,92.9a3.82,3.82,0,1,0,4-3.59A3.81,3.81,0,0,0,74.46,92.9Z"/><path class="cls-1" d="M97.45,94.7a3.82,3.82,0,1,0,4-3.58A3.81,3.81,0,0,0,97.45,94.7Z"/><path class="cls-3" d="M125.33,95.21l-6.45-40.53a4.21,4.21,0,0,0-4.28-3.34H93.87Z"/><path class="cls-4" d="M74.53,122.29a6.12,6.12,0,0,1-4.21-1.69l-3.59-3.44a1.14,1.14,0,1,1,1.57-1.65L71.89,119a3.82,3.82,0,0,0,2.9,1l4.06-.28A1.14,1.14,0,0,1,79,122l-4.07.28Z"/><polygon class="cls-3" points="133.87 191.89 131.06 197.83 112.32 197.83 112.32 191.89 133.87 191.89"/><path class="cls-3" d="M117.56,197.83h27.73a0,0,0,0,1,0,0v25.31a0,0,0,0,1,0,0H117.56a5.24,5.24,0,0,1-5.24-5.24V203.07A5.24,5.24,0,0,1,117.56,197.83Z" transform="translate(257.61 420.97) rotate(180)"/><polygon class="cls-5" points="184.59 226 119.14 226 86.9 157.77 152.35 157.77 184.59 226"/><path class="cls-2" d="M287.85,236.32l-113.57.78-.42-60.76c-.17-24.64,25.11-44.79,56.48-45h0c31.36-.22,56.92,19.58,57.09,44.22Z"/><path class="cls-3" d="M229.5,51.27c19.74.31,36.74,10.32,45.26,24.77A20.89,20.89,0,1,1,276,116c-8.25,16-26.66,27-47.89,26.66-28.61-.45-51.49-21.26-51.09-46.48S200.89,50.82,229.5,51.27Z"/><rect class="cls-3" x="183.11" y="51.38" width="94.64" height="29.5"/><path class="cls-1" d="M249.9,15.24H209.42c-17.9,0-32.41,14-32.41,31.31l1.19,40.32,3.19-9.38,6.66-21.62c.69-2.36,2.08-4.49,4.65-4.49h73.92c2.57,0,3.66,1.73,4.65,4.49l5.64,23.49,5.4.18v-33C282.31,29.26,267.8,15.24,249.9,15.24Z"/><path class="cls-1" d="M238.5,90.41a3.83,3.83,0,1,1-3.8-3.84A3.83,3.83,0,0,1,238.5,90.41Z"/><path class="cls-1" d="M215.44,90.71a3.82,3.82,0,1,1-3.8-3.84A3.82,3.82,0,0,1,215.44,90.71Z"/><path class="cls-1" d="M214.68,102.47H199a6.59,6.59,0,0,1-6.59-6.58V80.2A6.59,6.59,0,0,1,199,73.62h15.68a6.59,6.59,0,0,1,6.59,6.58V95.89A6.59,6.59,0,0,1,214.68,102.47ZM199,75.89a4.32,4.32,0,0,0-4.32,4.31V95.89A4.33,4.33,0,0,0,199,100.2h15.68A4.32,4.32,0,0,0,219,95.89V80.2a4.31,4.31,0,0,0-4.31-4.31Z"/><path class="cls-1" d="M247.31,102.47H231.63A6.59,6.59,0,0,1,225,95.89V80.2a6.59,6.59,0,0,1,6.59-6.58h15.68a6.59,6.59,0,0,1,6.59,6.58V95.89A6.59,6.59,0,0,1,247.31,102.47ZM231.63,75.89a4.31,4.31,0,0,0-4.31,4.31V95.89a4.32,4.32,0,0,0,4.31,4.31h15.68a4.32,4.32,0,0,0,4.31-4.31V80.2a4.31,4.31,0,0,0-4.31-4.31Z"/><path class="cls-6" d="M226.18,111.26H226l-6.94-1a1.14,1.14,0,0,1-.77-.49,1.12,1.12,0,0,1-.17-.89l4.37-19.39a1.14,1.14,0,0,1,2.22.51l-4.1,18.18,5.71.83a1.14,1.14,0,0,1-.16,2.26Z"/><path class="cls-3" d="M177,95.21l6.44-40.53a4.23,4.23,0,0,1,4.29-3.34h20.73Z"/><path class="cls-4" d="M225,124.25a1.14,1.14,0,0,1-.4-2.2l9.63-3.63a1.14,1.14,0,1,1,.8,2.13l-9.63,3.62A1.14,1.14,0,0,1,225,124.25Z"/><polygon class="cls-3" points="168.47 191.89 171.27 197.83 190.02 197.83 190.02 191.89 168.47 191.89"/><path class="cls-3" d="M162.29,197.83H190a0,0,0,0,1,0,0v25.31a0,0,0,0,1,0,0H162.29A5.24,5.24,0,0,1,157,217.9V203.07A5.24,5.24,0,0,1,162.29,197.83Z"/><path class="cls-1" d="M277.12,154.57h0a20,20,0,0,0-28.26,1.77l-27.65,31.35-38.25,2a.87.87,0,0,0-.81.9l1.95,36.51a.87.87,0,0,0,.9.81l48.52-2.59a19.09,19.09,0,0,0,13.38-6.52.81.81,0,0,0,.46-.27l31.53-35.74A20,20,0,0,0,277.12,154.57Z"/><path class="cls-1" d="M65,202.76h0c-8.47,7-19.74,7.8-26.8-.64L15,174.29a20,20,0,0,1,2.59-28.13h0a20,20,0,0,1,28.13,2.6l23.2,27.72C76,185,73.54,195.69,65,202.76Z"/><path class="cls-1" d="M46.53,145.47l37.89,12.69L71.89,195.55A20,20,0,0,1,46.6,208.14h0A20,20,0,0,1,34,182.86Z"/><path class="cls-7" d="M37.3,202.76a1.14,1.14,0,0,1-.89-.43,21,21,0,0,1-3.48-19.83l8.48-25.31a1.14,1.14,0,0,1,2.15.73l-8.48,25.3a18.82,18.82,0,0,0,3.11,17.7,1.14,1.14,0,0,1-.89,1.84Z"/><path class="cls-1" d="M47.13,70.67c-5.22,9-14.39,13.51-20.49,10S19.83,67,25.05,57.93s14.39-13.51,20.49-10S52.34,61.64,47.13,70.67Z"/><path class="cls-1" d="M69.73,59.49c-5.22,9-14.39,13.51-20.49,10s-6.81-13.7-1.59-22.73S62,33.24,68.14,36.76,75,50.46,69.73,59.49Z"/><path class="cls-1" d="M89,59.49c-5.22,9-14.39,13.51-20.49,10s-6.8-13.7-1.59-22.73,14.39-13.51,20.49-10S94.19,50.46,89,59.49Z"/><path class="cls-1" d="M107,59.49c-5.22,9-14.39,13.51-20.49,10S79.74,55.78,85,46.75s14.39-13.51,20.49-10S112.26,50.46,107,59.49Z"/><path class="cls-1" d="M119.44,62.08c-5.22,9-14.39,13.51-20.49,10s-6.81-13.69-1.59-22.73,14.39-13.51,20.49-10S124.66,53.05,119.44,62.08Z"/><path class="cls-1" d="M131.28,65.67c.38,10.43-5,19.09-12,19.35s-13-8-13.43-18.42,5-19.09,12-19.35S130.9,55.24,131.28,65.67Z"/><path class="cls-6" d="M56,112.4a1.14,1.14,0,0,1-.93-1.79c2.23-3.23,11.15-5.46,12.16-5.71a1.14,1.14,0,0,1,.53,2.21c-3.48.85-9.51,2.9-10.82,4.8A1.14,1.14,0,0,1,56,112.4Z"/><path class="cls-6" d="M92.8,99.9A4.11,4.11,0,1,1,89,95.54,4.1,4.1,0,0,1,92.8,99.9Z"/><path class="cls-3" d="M52.19,147.36l10.73-9.92A13.38,13.38,0,0,1,72,133.87h1.84a1.87,1.87,0,0,1,1.83,2.27l-.78,3.52a1.7,1.7,0,0,0,2.21,2L89,137.49a4.12,4.12,0,0,1,3.64.47h0a6.38,6.38,0,0,1-.7,11l-14,7Z"/><path class="cls-6" d="M56,144.94a1.17,1.17,0,0,1-.72-.25,1.15,1.15,0,0,1-.17-1.6l5.91-7.35a14.56,14.56,0,0,1,10-4H72.9a3,3,0,0,1,2.94,3.65l-.78,3.52a.52.52,0,0,0,.18.53.5.5,0,0,0,.55.11l11.83-4.12a5.32,5.32,0,0,1,4.65.6,1,1,0,0,1,.19.16l3,3.15a1.13,1.13,0,0,1,0,1.6,1.14,1.14,0,0,1-1.61-.05l-2.86-3a3,3,0,0,0-2.53-.27L76.54,141.7a2.83,2.83,0,0,1-3.7-3.28l.77-3.52a.72.72,0,0,0-.71-.88H71.06a12.24,12.24,0,0,0-8.34,3.27l-5.8,7.22A1.12,1.12,0,0,1,56,144.94Z"/><rect class="cls-3" x="105.31" y="202.41" width="15.66" height="21.52" rx="5.34" transform="translate(-67.82 53.5) rotate(-20.62)"/><path class="cls-8" d="M145,30.48a1.18,1.18,0,0,1-.64-.2A1.14,1.14,0,0,1,144,28.7c.37-.55,9.27-13.58,24.87-20.37a1.13,1.13,0,1,1,.9,2.08C154.84,16.93,146,29.84,145.92,30A1.13,1.13,0,0,1,145,30.48Z"/><path class="cls-8" d="M157.78,29.87a1.12,1.12,0,0,1-.79-.33L142.13,15.05a1.14,1.14,0,1,1,1.59-1.63l14.86,14.5a1.14,1.14,0,0,1,0,1.61A1.18,1.18,0,0,1,157.78,29.87Z"/><path class="cls-8" d="M164.07,22.86a1.15,1.15,0,0,1-1.06-.71L154.8,1.56a1.14,1.14,0,0,1,2.11-.85l8.21,20.59a1.13,1.13,0,0,1-.63,1.48A1,1,0,0,1,164.07,22.86Z"/></g></g></svg>