<svg xmlns="http://www.w3.org/2000/svg" viewBox="0 0 308.83 181.97"><defs><style>.cls-1{fill:#7bb3d6;}.cls-2{fill:#f9d5b0;}.cls-3{fill:#d99c50;}.cls-4{fill:#ca734c;}.cls-5{fill:#f6c855;}.cls-6{fill:#40a6a3;}.cls-7{fill:#fff;}</style></defs><title>16_down_0</title><g id="圖層_2" data-name="圖層 2"><g id="hand"><path class="cls-1" d="M35.47,115.2,84.6,125.53l7-33.46A25.11,25.11,0,0,0,72.23,62.34h0A25.1,25.1,0,0,0,42.5,81.74Z"/><path class="cls-1" d="M79,9.18c11.23,3.2,19.41,17.55,19.24,24.17-.17,6.86.12,6.71.12,6.71l-3.48-4.44c-6.8,3.58-22.77,9.9-45.63,6,0,0-1.67-4-7.75-3.56v0A29.46,29.46,0,0,1,79,9.18Z"/><path class="cls-2" d="M44.45,37.15a10.84,10.84,0,0,1,3.66.35C52,29.76,60.45,24,70.62,23.22,85.36,22,98.15,31.62,99.19,44.61S89.13,69.09,74.39,70.27c-10.94.88-20.8-4.18-25.58-12.16a10.42,10.42,0,0,1-2.64.56,10.79,10.79,0,0,1-1.72-21.52Z"/><path class="cls-1" d="M73.84,48.42a2.17,2.17,0,1,0,1.77-2.51A2.18,2.18,0,0,0,73.84,48.42Z"/><path class="cls-3" d="M79.8,50.56a1.45,1.45,0,1,0,1.56-1.34A1.46,1.46,0,0,0,79.8,50.56Z"/><path class="cls-1" d="M82.91,47.09a2.17,2.17,0,1,0,1.77-2.51A2.18,2.18,0,0,0,82.91,47.09Z"/><path class="cls-4" d="M80.29,56.34c.2,1.17,1,2,1.91,1.85a1.93,1.93,0,0,0,1.19-2.38c-.2-1.16-1.06-2-1.91-1.84A1.92,1.92,0,0,0,80.29,56.34Z"/><path class="cls-1" d="M42.32,29.34A29.42,29.42,0,0,1,78.69,9.1c11.23,3.2,19.88,14.74,19.54,24.25-.09.07-.57.4-1.39.9a3.32,3.32,0,0,1-2.79,5.69,3.21,3.21,0,0,1-1.3-.5,3.31,3.31,0,0,1-5.64.81,3.32,3.32,0,0,1-3.61,2.13,3.23,3.23,0,0,1-1.65-.76,3.3,3.3,0,0,1-5.95.8,3.3,3.3,0,0,1-6,.91,3.31,3.31,0,0,1-5.65.46,3.31,3.31,0,0,1-5.63,0,3.31,3.31,0,0,1-3,1.16,3.24,3.24,0,0,1-1.88-1,3.31,3.31,0,0,1-4.93-2.74c-.48-.86-2.46-3.65-7.62-3.3v0A29.52,29.52,0,0,1,42.32,29.34Z"/><path class="cls-5" d="M40.14,30.76C38.51,17,47.67,4,62,.76,76.18-2.47,90.5,4.88,96,17.47l.45-.34c.76-.62-.23.85.42,1.59s2.72.46,2,1.08l-5.73,4.36,0,0A63.48,63.48,0,0,1,70.16,34a66.57,66.57,0,0,1-23.82,1.28l-4.59-.77C40.77,34.33,40.14,30.76,40.14,30.76Z"/><path class="cls-6" d="M99,17.34C101.18,20.05,93.11,26,81.15,31s-23.43,7.3-25.39,4.18c-1.15-1.83,8.62-7.33,13-9.61C83.81,17.73,97.42,15.36,99,17.34Z"/><path class="cls-6" d="M42.47,80.68c0,.36.1.71.16,1.06a16.09,16.09,0,0,0-2-2.3,15.91,15.91,0,0,0-21.87,23.1c.26.24.53.46.81.69a15.9,15.9,0,1,0-4.31,31.36h.2c0,.14.07.29.1.43a17.15,17.15,0,0,0-1.79,1.22,15.9,15.9,0,0,0,19.31,25.25l.86.58c-.1.4-.21.79-.28,1.2A15.91,15.91,0,0,0,65,168.86c0-.19,0-.38.07-.58l.24,0a15.88,15.88,0,0,0,30.65-6.18,15.91,15.91,0,0,0,8.87-29.9c-.32-.17-.64-.31-1-.45a16.57,16.57,0,0,0,3-.4,15.91,15.91,0,0,0-7.29-31c-.35.08-.68.19-1,.3a16.33,16.33,0,0,0,2-2.29A15.9,15.9,0,1,0,74.71,79.81c-.21.29-.39.59-.58.89a15.43,15.43,0,0,0,0-3,15.91,15.91,0,0,0-31.67,3Z"/><path class="cls-3" d="M185.42,30.05a36.08,36.08,0,0,0-42.12,28.8l70.92,13.31A36.07,36.07,0,0,0,185.42,30.05Z"/><path class="cls-5" d="M201.3,129.39l-47.16,14.8a5.9,5.9,0,0,1-7.39-3.86L132,93.17a5.91,5.91,0,0,1,3.86-7.39L183,71a5.9,5.9,0,0,1,7.39,3.86L205.16,122A5.89,5.89,0,0,1,201.3,129.39Z"/><path class="cls-1" d="M237.29,51.75a12.51,12.51,0,1,1-14.17-10.6A12.5,12.5,0,0,1,237.29,51.75Z"/><path class="cls-2" d="M306.71,68.55l-5.14-1.68a3.08,3.08,0,0,0-3.89,2l-1.82,5.59L294.37,74a2,2,0,0,0-2.58,1.3l-3.24,9.91,3.61,1.18.87-2.68,10.82,3.54,4.83-14.76A3.09,3.09,0,0,0,306.71,68.55Z"/><path class="cls-2" d="M193.51,90.46l3.81-3.83a3.08,3.08,0,0,1,4.36,0l4.17,4.15L207,89.65a2,2,0,0,1,2.88,0l7.4,7.35-2.67,2.69-2-2-8,8.07-11-11A3.08,3.08,0,0,1,193.51,90.46Z"/><path class="cls-1" d="M305.76,86.21l-18-5.43-16.31,23.5a29.94,29.94,0,0,0-31.28,6.1l-24-17.12-13.95,13.36L228.33,132a9.83,9.83,0,0,1,2.78,5.44v0l5.16,29.59,59.18-10.31-5.15-29.6v0a17.11,17.11,0,0,1,1.31-10.1Z"/><path class="cls-1" d="M277.52,69.12c2.37,13.6-8.14,26.8-23.47,29.47S224.36,92.4,222,78.79s8.14-26.8,23.47-29.47S275.15,55.51,277.52,69.12Z"/><path class="cls-2" d="M276.13,74.9a10.62,10.62,0,0,0-3.68,1.4,27.41,27.41,0,0,0-23.09-7.45c-10,1.3-18,7.33-21.45,15.13A10.62,10.62,0,1,0,227,104.9a10.8,10.8,0,0,0,2.57-.68c5.09,7.62,15,12.11,25.74,10.72C267,113.43,276,105.4,278.16,95.66a10.46,10.46,0,1,0-2-20.76Z"/><path class="cls-6" d="M259.55,86A2.22,2.22,0,1,1,257,84.13,2.23,2.23,0,0,1,259.55,86Z"/><path class="cls-6" d="M248.61,88.18a2.22,2.22,0,1,1-2.56-1.81A2.22,2.22,0,0,1,248.61,88.18Z"/><path class="cls-3" d="M254.43,90.72a1.42,1.42,0,1,1-1.74-1A1.42,1.42,0,0,1,254.43,90.72Z"/><path class="cls-4" d="M258.68,96.28a4.65,4.65,0,1,1-9.16,1.6c-.44-2.53,1.36-2.71,3.89-3.15S258.24,93.75,258.68,96.28Z"/><path class="cls-1" d="M239.63,75A9,9,0,1,1,229.2,67.7,9,9,0,0,1,239.63,75Z"/><path class="cls-1" d="M252.05,68.35A9,9,0,1,1,241.62,61,9,9,0,0,1,252.05,68.35Z"/><path class="cls-1" d="M265.23,66.06a9,9,0,1,1-10.43-7.33A9,9,0,0,1,265.23,66.06Z"/><path class="cls-1" d="M277.72,70.27a9,9,0,1,1-10.42-7.33A9,9,0,0,1,277.72,70.27Z"/><path class="cls-5" d="M231.85,58.62l-.68-.91a1.63,1.63,0,0,1-.14-2.09l7.28-7c.53-.51,1.52-.22,2.14.61l2,2.69c.61.82.61,1.83,0,2.2l-8.6,5.23A1.63,1.63,0,0,1,231.85,58.62Z"/><path class="cls-5" d="M231.16,59.13l-.68-.91a1.66,1.66,0,0,0-2-.75l-8.81,4.94c-.63.36-.65,1.39,0,2.22l2,2.68c.61.83,1.58,1.12,2.11.64l7.5-6.71A1.62,1.62,0,0,0,231.16,59.13Z"/><path class="cls-3" d="M233,61.14c-1.87,1.38-4.26,1.34-5.33-.11s-.42-3.73,1.45-5.12,4.26-1.34,5.33.1S234.85,59.75,233,61.14Z"/><path class="cls-7" d="M135,134.48A18.15,18.15,0,1,1,119.56,114,18.13,18.13,0,0,1,135,134.48Z"/><path class="cls-7" d="M140.31,93.72l9.53-30.59a7.54,7.54,0,0,0-14.4-4.49L127.11,85.4a26.31,26.31,0,0,0-6.87-1l-.71-28.12A7.52,7.52,0,0,0,111.81,49h0a7.53,7.53,0,0,0-7.35,7.72l.81,32a18.33,18.33,0,0,0-8.12,12.49c-1.56,11,7.79,21.36,20.89,23.22s25-5.51,26.53-16.48A18.28,18.28,0,0,0,140.31,93.72Z"/><path class="cls-4" d="M128.4,104.61a2.12,2.12,0,1,1-1.86-2.36A2.13,2.13,0,0,1,128.4,104.61Z"/><path class="cls-4" d="M117.72,103.72a2.13,2.13,0,1,1-1.87-2.36A2.13,2.13,0,0,1,117.72,103.72Z"/><path class="cls-6" d="M122.37,109c-.07.66-1.07,1.08-2.22,1s-2-.78-1.93-1.44,1.07-1.08,2.22-.94S122.45,108.38,122.37,109Z"/><path class="cls-7" d="M24.15,149c-2.43,0-4.4-1.55-5.94-2.75-1.2-.94-2.33-1.82-3.31-1.87a2.05,2.05,0,0,1,.2-4.1c2.28.12,4.07,1.51,5.64,2.74,2,1.54,2.93,2.16,4.07,1.75s1.46-1.54,1.94-4,1.15-5.76,4.55-7,6.06.83,8,2.36,2.95,2.16,4.07,1.74,1.46-1.53,1.95-4,1.15-5.76,4.54-7,6.07.83,8,2.36S60.83,131.43,62,131s1.47-1.54,2-4a11.74,11.74,0,0,1,1.81-5A2,2,0,1,1,69,124.49a9,9,0,0,0-1.07,3.33c-.48,2.43-1.14,5.76-4.54,7s-6.07-.83-8-2.36-2.94-2.16-4.07-1.74-1.46,1.54-1.95,4-1.14,5.76-4.54,7-6.07-.83-8-2.36-2.93-2.16-4.07-1.74-1.46,1.53-1.95,4-1.14,5.76-4.53,7A6,6,0,0,1,24.15,149Z"/><path class="cls-7" d="M26.69,126.72c-2.42,0-4.4-1.55-5.93-2.75-1.2-.94-2.33-1.82-3.31-1.87a2,2,0,1,1,.2-4.09c2.28.11,4.06,1.51,5.64,2.74,2,1.53,2.94,2.16,4.06,1.74s1.47-1.53,1.95-4,1.15-5.76,4.54-7,6.07.83,8,2.36,2.93,2.16,4.07,1.75,1.46-1.54,2-4,1.14-5.77,4.54-7,6.07.83,8,2.36,2.94,2.17,4.08,1.74,1.47-1.53,2-4a12.07,12.07,0,0,1,1.81-5,2.05,2.05,0,0,1,3.28,2.46,9.11,9.11,0,0,0-1.07,3.33c-.48,2.43-1.14,5.76-4.54,7s-6.08-.83-8-2.35S55,108,53.85,108.44s-1.47,1.53-2,4-1.15,5.76-4.54,7-6.07-.83-8-2.36-2.94-2.16-4.07-1.75-1.46,1.54-2,4-1.14,5.76-4.54,7A6,6,0,0,1,26.69,126.72Z"/><path class="cls-7" d="M38.62,102.45c-2.42,0-4.4-1.55-5.93-2.75-1.2-.94-2.33-1.82-3.31-1.87a2.05,2.05,0,0,1,.2-4.1c2.28.12,4.06,1.51,5.63,2.74,2,1.54,2.94,2.18,4.07,1.75s1.46-1.54,1.95-4,1.14-5.76,4.54-7,6.07.83,8,2.36,2.93,2.16,4.07,1.74,1.46-1.53,1.94-4,1.15-5.76,4.55-7,6.07.83,8,2.36,2.93,2.17,4.08,1.74,1.46-1.54,2-4a12.07,12.07,0,0,1,1.81-5,2.05,2.05,0,0,1,3.28,2.46,8.93,8.93,0,0,0-1.07,3.33c-.49,2.43-1.15,5.76-4.54,7s-6.08-.83-8-2.35-2.93-2.17-4.08-1.75-1.46,1.54-1.95,4-1.14,5.76-4.54,7-6.07-.84-8-2.37-2.93-2.15-4.07-1.74-1.46,1.53-1.94,4-1.14,5.76-4.54,7A6,6,0,0,1,38.62,102.45Z"/><path class="cls-2" d="M50.34,79.29a7.91,7.91,0,1,1-7.91-7.91A7.91,7.91,0,0,1,50.34,79.29Z"/></g></g></svg>