<svg xmlns="http://www.w3.org/2000/svg" viewBox="0 0 90.37 175.53"><defs><style>.cls-1{fill:#8ccecd;}.cls-2{fill:#40a6a3;}.cls-3{fill:#7bb3d6;}.cls-4{fill:#f6c855;}.cls-5{fill:#d99c50;}.cls-6{fill:#ca734c;}</style></defs><title>17_up_01</title><g id="圖層_2" data-name="圖層 2"><g id="hand"><path class="cls-1" d="M33.8,174.06h0a7.34,7.34,0,0,1-6.65-7.94l8.25-97.6,14.83,1.27-8.49,97.62A7.32,7.32,0,0,1,33.8,174.06Z"/><path class="cls-2" d="M18,172.21h0c-5.13-.45-8.8-5.57-8.06-11.25L24.51,74.43,35.4,77.26,27.83,163C27.34,168.53,22.92,172.65,18,172.21Z"/><path class="cls-3" d="M50.09,175.5h0c-5-.44-8.6-5.27-8.11-10.79L49.55,79H61.62L60,165.83C59.74,171.55,55.22,176,50.09,175.5Z"/><path class="cls-4" d="M53.85,4.59,61,21.76a7.46,7.46,0,0,0,5.32,4.43l18.19,3.86A7.44,7.44,0,0,1,87.76,43L73.63,55.06a7.44,7.44,0,0,0-2.57,6.42L73,80a7.44,7.44,0,0,1-11.28,7.11L45.87,77.38a7.46,7.46,0,0,0-6.9-.45L22,84.49A7.43,7.43,0,0,1,11.73,76l4.33-18.08a7.43,7.43,0,0,0-1.7-6.71L1.92,37.36A7.43,7.43,0,0,1,6.86,25l18.53-1.47a7.41,7.41,0,0,0,5.85-3.69l9.3-16.1A7.44,7.44,0,0,1,53.85,4.59Z"/><path class="cls-2" d="M63.12,36.18A5.42,5.42,0,1,1,58,30.51,5.42,5.42,0,0,1,63.12,36.18Z"/><path class="cls-5" d="M52.68,44.64c.59,2-1.31,3.87-4.24,4.26s-5.79-.89-6.38-2.85,1.3-3.87,4.24-4.26S52.09,42.67,52.68,44.64Z"/><path class="cls-2" d="M40.7,38.78a5.42,5.42,0,1,1-5.16-5.67A5.42,5.42,0,0,1,40.7,38.78Z"/><path class="cls-6" d="M51.24,62.94c-.36,4.08-3.06,7.16-6,6.9s-5.1-3.78-4.74-7.85,3.06-7.16,6-6.89S51.6,58.87,51.24,62.94Z"/></g></g></svg>