<svg xmlns="http://www.w3.org/2000/svg" viewBox="0 0 211.06 206.7"><defs><style>.cls-1{fill:#40a6a3;}.cls-2{fill:#f9d5b0;}.cls-3{fill:#d99c50;}.cls-4{fill:#ca734c;}.cls-5{fill:#7bb3d6;}.cls-6{fill:#7bc9c5;}.cls-7{fill:#f6c855;}.cls-8{fill:#acd5eb;}</style></defs><title>1_about_00</title><g id="圖層_2" data-name="圖層 2"><g id="hand"><path class="cls-1" d="M50.12,94.38H94.71a50.12,50.12,0,0,1,50.12,50.12v12.07A50.12,50.12,0,0,1,94.71,206.7H36.32A36.32,36.32,0,0,1,0,170.38V144.5A50.12,50.12,0,0,1,50.12,94.38Z"/><path class="cls-2" d="M84.6,34.94c-15.14,3.26-26.68,13.56-31,26A16.38,16.38,0,1,0,58.75,91.8c8.79,11,24.63,16.68,40.92,13.18,21.93-4.72,36.34-24.22,32.18-43.56S106.53,30.22,84.6,34.94Z"/><path class="cls-1" d="M129.21,30.18c-1.66-6.76-4.29-13.33-7.08-16.51A41.4,41.4,0,0,0,98.72,1.3C85.81-.83,83.27-.07,74.16,1.65,47.36,6.71,29.35,30.52,33.94,54.84a51.45,51.45,0,0,0,4.48,12.39l1.25-1.46s4.87-5.39,13.91-4.85c4.64.28,12.93,4,14.73,4a9,9,0,0,0,1.84-.2,8.19,8.19,0,0,0,5.19-3.49,6,6,0,0,1,8.32-1.76,8.4,8.4,0,0,0,6.21,1.08A8.2,8.2,0,0,0,95.07,57a5.82,5.82,0,0,1,3.78-2.61,5.91,5.91,0,0,1,4.55.85,8.44,8.44,0,0,0,11.41-2.41,5.88,5.88,0,0,1,3.79-2.62,6,6,0,0,1,4.56.86c1.55.79,3.14,3.4,6.05,2.79l.16-1.71C131.19,47.33,131.34,38.91,129.21,30.18Z"/><path class="cls-1" d="M110.68,66.65a2.89,2.89,0,1,1-3.41-2.25A2.89,2.89,0,0,1,110.68,66.65Z"/><path class="cls-3" d="M105.85,71.9a1.93,1.93,0,1,1-2.57-.91A1.92,1.92,0,0,1,105.85,71.9Z"/><path class="cls-1" d="M98.78,69.38a2.89,2.89,0,1,1-3.41-2.25A2.89,2.89,0,0,1,98.78,69.38Z"/><path class="cls-4" d="M102.65,83.46c-3.71,0-7-1.55-8.4-4.15a1,1,0,1,1,1.71-1c1.34,2.43,5.11,3.66,9,2.92s6.89-3.29,7.23-6a1,1,0,0,1,1.09-.85,1,1,0,0,1,.85,1.09c-.44,3.63-4.06,6.81-8.8,7.73A14.06,14.06,0,0,1,102.65,83.46Z"/><path class="cls-5" d="M132.78,83.46l0,0,0-.07Z"/><path class="cls-5" d="M167.7,61.23c-15.55,0-31.25,15.38-33.45,23.92-2.29,8.85-2.61,8.54-2.61,8.54l6.08-4.41c7.4,7.07,25.55,21,56.25,24.28,0,0,3.58-4.46,11.22-1.72v0A39.17,39.17,0,0,0,167.7,61.23Z"/><path class="cls-5" d="M169.82,206.09H100.19V186.32a50.15,50.15,0,0,1,50-50h7.59a27.39,27.39,0,0,1,27.31,27.31v27.2A15.32,15.32,0,0,1,169.82,206.09Z"/><path class="cls-2" d="M201.72,109.64a14.54,14.54,0,0,0-4.81-.89C194.72,97.42,186,87,173.29,82.26c-18.43-6.89-38.3.7-44.38,17s4,35,22.39,41.9c13.69,5.12,28.15,2.24,37.19-6.23a14.37,14.37,0,1,0,13.23-25.25Z"/><path class="cls-5" d="M162.2,114.81a2.89,2.89,0,1,1-1.35-3.85A2.88,2.88,0,0,1,162.2,114.81Z"/><path class="cls-3" d="M153.79,115.38a1.93,1.93,0,1,1-1.51-2.28A1.93,1.93,0,0,1,153.79,115.38Z"/><path class="cls-5" d="M151.07,109.8a2.88,2.88,0,1,1-1.35-3.86A2.89,2.89,0,0,1,151.07,109.8Z"/><path class="cls-4" d="M153.63,126.13a13.1,13.1,0,0,1-5.72-1.39c-4.33-2.13-7-6.16-6.45-9.78a1,1,0,0,1,1.11-.83,1,1,0,0,1,.83,1.11c-.4,2.75,1.86,6,5.37,7.74s7.47,1.54,9.41-.45a1,1,0,1,1,1.41,1.37A8.18,8.18,0,0,1,153.63,126.13Z"/><path class="cls-5" d="M168.12,61.23c-15.55,0-30.84,11.62-33.87,23.92h0c.66.84,19.3,24,60.13,28.41,0,0,3.59-4.46,11.22-1.72v0a39.19,39.19,0,0,0-37.49-50.58Z"/><path class="cls-2" d="M110.71,180.26h19.87a0,0,0,0,1,0,0v26.1a5.24,5.24,0,0,1-5.24,5.24h-9.39a5.24,5.24,0,0,1-5.24-5.24v-26.1A0,0,0,0,1,110.71,180.26Z" transform="translate(-77.29 313.27) rotate(-89.04)"/><path class="cls-2" d="M107.68,172.39h6.52a0,0,0,0,1,0,0v17.52a3.47,3.47,0,0,1-3.47,3.47h-3a0,0,0,0,1,0,0v-21A0,0,0,0,1,107.68,172.39Z" transform="translate(-73.8 290.74) rotate(-89.04)"/><path class="cls-1" d="M106.73,175.26,51.37,168l8.69-62.2a10,10,0,0,0-9.94-11.42h0a50,50,0,0,0-39.7,19.55h0A49.88,49.88,0,0,0,0,144.5v25.88A36.32,36.32,0,0,0,36.32,206.7h72.61a2.84,2.84,0,0,0,2.84-2.95v-.06l-.71-23.64A5,5,0,0,0,106.73,175.26Z"/><path class="cls-6" d="M72.42,171.63h-.14l-21.06-2.88a1,1,0,0,1-.84-1.09l1.46-11.74a1,1,0,0,1,1.1-.85,1,1,0,0,1,.85,1.1l-1.35,10.77,20.11,2.75a1,1,0,0,1-.13,1.95Z"/><path class="cls-7" d="M45.29,84.46h33a0,0,0,0,1,0,0v66.13a4.73,4.73,0,0,1-4.73,4.73H50a4.73,4.73,0,0,1-4.73-4.73V84.46a0,0,0,0,1,0,0Z" transform="translate(-38.93 30.18) rotate(-21.04)"/><rect class="cls-5" x="47.62" y="116.01" width="32.96" height="19.43" transform="matrix(0.93, -0.36, 0.36, 0.93, -40.87, 31.4)"/><path class="cls-4" d="M42,74.56,33.67,92.74,64.43,80.91,46.09,73A3.16,3.16,0,0,0,42,74.56Z"/><path class="cls-2" d="M76.24,118.86h9.49a5.42,5.42,0,0,1,5.42,5.42v27.29a0,0,0,0,1,0,0H70.83a0,0,0,0,1,0,0V124.28A5.41,5.41,0,0,1,76.24,118.86Z" transform="translate(-67.19 81.49) rotate(-39.15)"/><path class="cls-2" d="M94.4,124h3.08a3.59,3.59,0,0,1,3.59,3.59v18.32a0,0,0,0,1,0,0H94.4a0,0,0,0,1,0,0V124A0,0,0,0,1,94.4,124Z" transform="translate(-63.25 92) rotate(-39.15)"/><path class="cls-5" d="M127.94,176a72,72,0,0,1-8.85-.54c-19.5-2.38-31.4-13.07-38.94-22a3.36,3.36,0,0,1,.5-4.78l19-15.07a3.34,3.34,0,0,1,4.6.44c5.84,6.71,11.23,9.76,18.55,10.65,11.69,1.43,20.28-2.64,21.72-4.49a2.62,2.62,0,0,0-.31.58l28.65,11.64C167.08,166.77,148.92,176,127.94,176Z"/><path class="cls-8" d="M127.42,176.92c-1.7,0-3.43-.06-5.15-.18a59.67,59.67,0,0,1-13.61-2.53,1,1,0,0,1,.59-1.87,56.83,56.83,0,0,0,13.16,2.44c1.84.13,3.69.18,5.52.18h0a1,1,0,0,1,1,1,1,1,0,0,1-1,1Z"/><path class="cls-8" d="M127.94,176.92a1,1,0,0,1,0-2c1.09,0,2.16,0,3.23-.1,14.33-.75,27.23-5.79,35.39-13.84a1,1,0,1,1,1.38,1.39c-8.5,8.38-21.87,13.63-36.67,14.41-1.09.06-2.2.09-3.31.1Z"/></g></g></svg>