<svg xmlns="http://www.w3.org/2000/svg" viewBox="0 0 198.55 210.12"><defs><style>.cls-1{fill:#f9d5b0;}.cls-2{fill:#40a6a3;}.cls-3{fill:#ca734c;}.cls-4{fill:#d99c50;}.cls-5{fill:#f6c855;}.cls-6{fill:#7bc9c5;}</style></defs><title>2_dad_00</title><g id="圖層_2" data-name="圖層 2"><g id="hand"><path class="cls-1" d="M194.89,68.66l-10.45-5.29a6.68,6.68,0,0,0-9,2.94L169.7,77.69l-3-1.54a4.43,4.43,0,0,0-5.95,1.95L150.51,98.27l7.34,3.71,2.76-5.45,22,11.14,15.21-30A6.68,6.68,0,0,0,194.89,68.66Z"/><path class="cls-2" d="M186.49,103.25,154,89s-25.87,19.79-40.16,29.05H65a50.31,50.31,0,0,0-50.31,50.31V197a13.1,13.1,0,0,0,13.1,13.1H130.32c7.23,0,8.34-3,8.34-3,15.23-16.73,31.51-52.73,38.4-74.32Z"/><rect class="cls-1" x="34.98" y="27.42" width="89.9" height="34.93"/><path class="cls-2" d="M99.46,0H59.4A29.75,29.75,0,0,0,29.66,29.74v29.4h5l6.58-25.3c.64-2.25,1.91-4.27,4.26-4.27h67.85c2.35,0,3.35,1.64,4.26,4.27l6.58,25.3h5V29.74A29.75,29.75,0,0,0,99.46,0Z"/><path class="cls-1" d="M127.16,57.43a19.8,19.8,0,0,0-7.36,1.42C111.32,46.55,96.31,38,78.87,37.26c-19.13-.85-36.18,7.86-45.27,21.37A20.27,20.27,0,1,0,30.12,97.2c7.06,16,24.25,27.69,44.83,28.6,22.42,1,42-11.12,49.21-28.71a19.94,19.94,0,1,0,3-39.66Z"/><path class="cls-2" d="M92.38,71.4a3.63,3.63,0,1,1-3.61-3.65A3.63,3.63,0,0,1,92.38,71.4Z"/><path class="cls-2" d="M70.48,71.69A3.63,3.63,0,1,1,66.87,68,3.64,3.64,0,0,1,70.48,71.69Z"/><path class="cls-3" d="M79.6,101.79h-.29c-6-.09-11.11-3.19-12.44-7.53a1.08,1.08,0,1,1,2.07-.63c1,3.4,5.41,5.92,10.4,6s9.45-2.3,10.59-5.66a1.08,1.08,0,1,1,2,.69C90.54,98.88,85.47,101.79,79.6,101.79Z"/><path class="cls-2" d="M69.76,82.86H54.86A6.27,6.27,0,0,1,48.6,76.6V61.71a6.27,6.27,0,0,1,6.26-6.26h14.9A6.26,6.26,0,0,1,76,61.71V76.6A6.26,6.26,0,0,1,69.76,82.86ZM54.86,57.61a4.11,4.11,0,0,0-4.1,4.1V76.6a4.11,4.11,0,0,0,4.1,4.1h14.9a4.1,4.1,0,0,0,4.09-4.1V61.71a4.1,4.1,0,0,0-4.09-4.1Z"/><path class="cls-2" d="M100.75,82.86H85.85A6.26,6.26,0,0,1,79.6,76.6V61.71a6.26,6.26,0,0,1,6.25-6.26h14.9A6.27,6.27,0,0,1,107,61.71V76.6A6.27,6.27,0,0,1,100.75,82.86ZM85.85,57.61a4.1,4.1,0,0,0-4.09,4.1V76.6a4.1,4.1,0,0,0,4.09,4.1h14.9a4.11,4.11,0,0,0,4.1-4.1V61.71a4.11,4.11,0,0,0-4.1-4.1Z"/><path class="cls-4" d="M80.68,91.21h-.16l-6.58-1a1.09,1.09,0,0,1-.74-.45,1.07,1.07,0,0,1-.16-.85L77.2,70.52a1.08,1.08,0,0,1,2.1.48L75.4,88.27l5.43.79a1.08,1.08,0,0,1-.15,2.15Z"/><path class="cls-3" d="M198.55,29.93c0-4.8-4.18-8.68-9.34-8.68a9.38,9.38,0,0,0-1.68.16,8.33,8.33,0,0,0,.29-2.06c0-4.8-4.18-8.68-9.34-8.68s-9.33,3.88-9.33,8.68a7.81,7.81,0,0,0,.35,2.22,9.91,9.91,0,0,0-2.39-.32c-5.16,0-9.34,3.88-9.34,8.68A8.63,8.63,0,0,0,163,37.71a8,8,0,0,0-.31,2.08c0,4.8,4.18,8.68,9.34,8.68a9.68,9.68,0,0,0,6.41-2.39,9.73,9.73,0,0,0,6.42,2.39c5.16,0,9.34-3.88,9.34-8.68a8.11,8.11,0,0,0-.4-2.36A8.57,8.57,0,0,0,198.55,29.93Zm-18.38-2.06a8.33,8.33,0,0,0-.29,2.06,8,8,0,0,0,.39,2.36,9.58,9.58,0,0,0-1.79,1.22,9.17,9.17,0,0,0-2.34-1.5,8,8,0,0,0,.3-2.08,8.17,8.17,0,0,0-.34-2.22,9.76,9.76,0,0,0,2.38.32A9.4,9.4,0,0,0,180.17,27.87Z"/><path class="cls-5" d="M184,29.81a5.87,5.87,0,1,1-5.87-5.87A5.86,5.86,0,0,1,184,29.81Z"/><path class="cls-1" d="M117.7,167.68l-3.08-13.22a7.75,7.75,0,0,0-9.31-5.79L90.91,152l-.9-3.83a5.12,5.12,0,0,0-6.17-3.84l-25.53,6,2.17,9.29,6.9-1.61,6.49,27.87,38-8.86A7.75,7.75,0,0,0,117.7,167.68Z"/><path class="cls-2" d="M35.08,146.18l-9.72,2.18C8.37,152.16-2.72,167.21.58,182h0c3.31,14.75,19.76,23.63,36.74,19.83l9.73-2.18c.51-.12,36.93-8.32,37.43-8.46l-11.94-53.3C72,138,35.59,146.07,35.08,146.18Z"/><path class="cls-6" d="M29.43,201.09a35.39,35.39,0,0,1-7.51-.79,1.08,1.08,0,0,1,.46-2.11,34.44,34.44,0,0,0,14.71-.11l9.72-2.17c.33-.08,30.4-6.85,36.38-8.22l-4.45-19.84a1.08,1.08,0,0,1,2.11-.48l4.68,20.9a1.08,1.08,0,0,1-.77,1.28c-.54.15-37.11,8.38-37.47,8.46l-9.73,2.18A37.3,37.3,0,0,1,29.43,201.09Z"/></g></g></svg>