<svg xmlns="http://www.w3.org/2000/svg" viewBox="0 0 60.53 78.63"><defs><style>.cls-1{fill:#7bb3d6;}.cls-2{fill:#f9d5b0;}</style></defs><title>4_kids_03</title><g id="圖層_2" data-name="圖層 2"><g id="hand"><path class="cls-1" d="M39.94,0l0,0,0,0Z"/><path class="cls-2" d="M54.26,77.06l5.13-5.68a4,4,0,0,0-.27-5.83L53,60.63,54.52,59a2.63,2.63,0,0,0-.18-3.86L43.54,46.4l-3.61,4,2.92,2.35-10.8,12,16.09,13A4.52,4.52,0,0,0,54.26,77.06Z"/><path class="cls-1" d="M35.46,71,4.76,44.22a13.89,13.89,0,0,1-1.33-19.6h0A13.89,13.89,0,0,1,23,23.29l30.7,26.8Z"/></g></g></svg>