<svg xmlns="http://www.w3.org/2000/svg" viewBox="0 0 205.47 165.32"><defs><style>.cls-1{fill:#40a6a3;}.cls-2{fill:#7bb3d6;}.cls-3{fill:#f6c855;}.cls-4{fill:#d99c50;}.cls-5{fill:#ca734c;}.cls-6{fill:#f9d5b0;}</style></defs><title>4_kids_00</title><g id="圖層_2" data-name="圖層 2"><g id="hand"><path class="cls-1" d="M22.14,121.32l-.66-4.92a14.61,14.61,0,0,0-.61-2.79,7.82,7.82,0,0,0-2.05-3,4.06,4.06,0,0,0-3-.82,4.11,4.11,0,0,0-2.67,1.51,4.34,4.34,0,0,0-.28.46,4.3,4.3,0,0,0-.52.27,72.09,72.09,0,0,0-7.89,5.14,14.45,14.45,0,0,0-3.17,3.45,7.69,7.69,0,0,0-1.28,3,4.69,4.69,0,0,0,2.89,4.82,5.05,5.05,0,0,0,2.61.38,10.52,10.52,0,0,0,.72,4.46,4,4,0,0,0,2.63,2.3,4.14,4.14,0,0,0,3.52-.64,10,10,0,0,0,2.87-2.71A6.58,6.58,0,0,0,17,133.54a4,4,0,0,0,4.75-1.22,7.77,7.77,0,0,0,1.06-5.91C22.59,124.71,22.36,123,22.14,121.32Z"/><path class="cls-1" d="M34.91,91.35a6,6,0,1,1-6-6A6,6,0,0,1,34.91,91.35Z"/><path class="cls-1" d="M28.94,99.41a6,6,0,1,1-6-6A6,6,0,0,1,28.94,99.41Z"/><circle class="cls-1" cx="18.82" cy="107.89" r="5.98"/><path class="cls-2" d="M89.9,81.27l0,0,0-.06Z"/><path class="cls-2" d="M111.63,81.4l0,0,0-.05Z"/><path class="cls-3" d="M120.79,2.2l.7,6.16a2.48,2.48,0,0,0,1.3,1.9l5.47,2.91a2.48,2.48,0,0,1-.14,4.44l-5.63,2.57A2.48,2.48,0,0,0,121.08,22L120,28.11a2.48,2.48,0,0,1-4.27,1.24l-4.19-4.57a2.45,2.45,0,0,0-2.17-.77l-6.13.86a2.48,2.48,0,0,1-2.5-3.68l3.05-5.39a2.48,2.48,0,0,0,.07-2.31l-2.72-5.57a2.48,2.48,0,0,1,2.72-3.51l6.08,1.24A2.47,2.47,0,0,0,112.15,5L116.61.7A2.47,2.47,0,0,1,120.79,2.2Z"/><path class="cls-1" d="M120.86,13.17a1.81,1.81,0,1,1-1.13-2.29A1.8,1.8,0,0,1,120.86,13.17Z"/><path class="cls-4" d="M116.75,16.16c0,.68-.77,1.12-1.75,1s-1.77-.81-1.78-1.5.77-1.12,1.75-1S116.74,15.47,116.75,16.16Z"/><path class="cls-1" d="M113.43,11.94a1.8,1.8,0,1,1-1.13-2.29A1.8,1.8,0,0,1,113.43,11.94Z"/><path class="cls-5" d="M113.79,20.92a4.83,4.83,0,0,1-1.61-.28,3.82,3.82,0,0,1-2.81-3.39.82.82,0,0,1,.82-.79.81.81,0,0,1,.79.83,2.28,2.28,0,0,0,1.73,1.84,2.3,2.3,0,0,0,2.5-.36.81.81,0,1,1,1.28,1A3.34,3.34,0,0,1,113.79,20.92Z"/><path class="cls-3" d="M89.25,164.32H33.62a14,14,0,0,1-13.35-18.17l14-40.11a16.94,16.94,0,0,1,16-11.37H74a17,17,0,0,1,16.17,11.86l12.48,39.62A14,14,0,0,1,89.25,164.32Z"/><path class="cls-2" d="M133,81.19l0,0,0,0Z"/><path class="cls-2" d="M111.06,84l0,0,0-.05Z"/><path class="cls-2" d="M127.49,165.32h55.62a14,14,0,0,0,13.36-18.17l-14-40.11a17,17,0,0,0-16-11.36H142.78a17,17,0,0,0-16.17,11.86l-12.47,39.61A14,14,0,0,0,127.49,165.32Z"/><path class="cls-6" d="M104.22,158.32l5.13-5.69a4,4,0,0,0-.27-5.82L103,141.88l1.49-1.64a2.63,2.63,0,0,0-.18-3.86l-10.8-8.73-3.61,4L92.81,134,82,146,98.1,159A4.53,4.53,0,0,0,104.22,158.32Z"/><path class="cls-2" d="M85.42,152.28,54.71,125.47a13.89,13.89,0,0,1-1.32-19.6h0A13.9,13.9,0,0,1,73,104.54l30.7,26.81Z"/><path class="cls-6" d="M117.72,158.34l-4.84-5.94a4,4,0,0,1,.56-5.8l6.33-4.61-1.4-1.72a2.64,2.64,0,0,1,.36-3.85L130,128.25l3.4,4.17-3,2.21,10.2,12.5L123.8,159.31A4.54,4.54,0,0,1,117.72,158.34Z"/><path class="cls-3" d="M138.54,152.12l32-25.24a13.9,13.9,0,0,0,2.3-19.51h0a13.89,13.89,0,0,0-19.51-2.3l-32,25.24Z"/><ellipse class="cls-1" cx="54.21" cy="53.17" rx="41.01" ry="35.7" transform="translate(-7.37 8.74) rotate(-8.64)"/><path class="cls-6" d="M53.65,39.83C41.18,42.52,31.67,51,28.09,61.24A13.49,13.49,0,1,0,29.18,87.8a12.84,12.84,0,0,0,3.17-1.13c7.25,9.1,20.3,13.75,33.71,10.87,18.08-3.89,30-20,26.52-35.9S71.72,36,53.65,39.83Z"/><path class="cls-1" d="M75.14,66a2.38,2.38,0,1,1-2.81-1.86A2.38,2.38,0,0,1,75.14,66Z"/><path class="cls-4" d="M71.16,70.28a1.59,1.59,0,0,1-2.87,1.38,1.59,1.59,0,1,1,2.87-1.38Z"/><path class="cls-1" d="M65.34,68.21a2.38,2.38,0,1,1-2.81-1.86A2.39,2.39,0,0,1,65.34,68.21Z"/><path class="cls-5" d="M68.52,79.8c-3,0-5.74-1.27-6.92-3.42A.8.8,0,0,1,63,75.61c1.11,2,4.22,3,7.38,2.4s5.68-2.71,6-5a.8.8,0,1,1,1.59.19c-.36,3-3.34,5.61-7.24,6.37A11.74,11.74,0,0,1,68.52,79.8Z"/><path class="cls-1" d="M77.17,32.73C65.42,28,53.94,29,51.53,34.91a5.15,5.15,0,0,0-.16.56,41.88,41.88,0,0,0-9.44,3c-11.58,5.15-18.86,14.08-16.25,20s14.12,6.46,25.7,1.32a39.07,39.07,0,0,0,11.83-7.93,46.14,46.14,0,0,0,5.23,2.54c11.75,4.75,23.23,3.77,25.64-2.19S88.92,37.48,77.17,32.73Z"/><ellipse class="cls-1" cx="164.09" cy="53.08" rx="35.7" ry="41.01" transform="matrix(0.15, -0.99, 0.99, 0.15, 86.97, 207.35)"/><path class="cls-6" d="M164.66,39.75c12.47,2.68,22,11.16,25.55,21.4a13.18,13.18,0,0,1,4.59.18,13.5,13.5,0,1,1-5.67,26.39A14,14,0,0,1,186,86.59c-7.24,9.1-20.29,13.75-33.71,10.86-18.07-3.89-29.94-20-26.51-35.89S146.58,35.86,164.66,39.75Z"/><path class="cls-1" d="M143.17,65.87A2.38,2.38,0,1,0,146,64,2.38,2.38,0,0,0,143.17,65.87Z"/><path class="cls-4" d="M147.14,70.19a1.6,1.6,0,1,0,2.13-.74A1.61,1.61,0,0,0,147.14,70.19Z"/><path class="cls-1" d="M153,68.12a2.38,2.38,0,1,0,2.81-1.85A2.38,2.38,0,0,0,153,68.12Z"/><path class="cls-5" d="M149.78,79.71a11.55,11.55,0,0,1-2.17-.21c-3.9-.75-6.88-3.37-7.25-6.37a.81.81,0,0,1,1.6-.19c.27,2.27,2.78,4.37,5.95,5s6.28-.4,7.39-2.41a.8.8,0,1,1,1.4.78C155.52,78.44,152.84,79.71,149.78,79.71Z"/><path class="cls-1" d="M125.14,57.16S160.45,53.05,184.4,64c0,0,1.44-1.67,5.81-2.82s0-21.06,0-21.06L152.92,27.8,130.84,42.52Z"/></g></g></svg>