<svg xmlns="http://www.w3.org/2000/svg" viewBox="0 0 64.36 34.94"><defs><style>.cls-1{fill:#7bb3d6;}.cls-2{fill:#d99c50;}.cls-3{fill:#acd5eb;}</style></defs><title>5_side_04</title><g id="圖層_2" data-name="圖層 2"><g id="hand"><path class="cls-1" d="M64.32,20.08A6.15,6.15,0,0,0,57.26,15a6.75,6.75,0,0,0-1.12.25,5.53,5.53,0,0,0,0-1.41,6.37,6.37,0,0,0-12.61,1.61A5.18,5.18,0,0,0,44,16.94a6.91,6.91,0,0,0-1.64,0,6.14,6.14,0,0,0-5.55,6.67A5.86,5.86,0,0,0,41,28.4a5.69,5.69,0,0,0,0,1.43A6.15,6.15,0,0,0,48,34.89a6.56,6.56,0,0,0,4.12-2.18,6.58,6.58,0,0,0,4.54,1.07,6.16,6.16,0,0,0,5.56-6.67,5.76,5.76,0,0,0-.47-1.56A5.84,5.84,0,0,0,64.32,20.08Zm-12.59.19a5.62,5.62,0,0,0,0,1.42,5.43,5.43,0,0,0,.47,1.56,6.07,6.07,0,0,0-1.1,1,6.17,6.17,0,0,0-1.72-.81,5.26,5.26,0,0,0,0-1.43A5.62,5.62,0,0,0,49,20.51a6.42,6.42,0,0,0,1.64,0A7.13,7.13,0,0,0,51.73,20.27Z"/><path class="cls-2" d="M54.49,21.25A4,4,0,1,1,50,17.79,4,4,0,0,1,54.49,21.25Z"/><path class="cls-3" d="M27.59,11.33a6.15,6.15,0,0,0-7.06-5,6.75,6.75,0,0,0-1.12.25,5.61,5.61,0,0,0,0-1.42A6.15,6.15,0,0,0,12.37.06,6.14,6.14,0,0,0,6.82,6.73,5.28,5.28,0,0,0,7.24,8.2a6.41,6.41,0,0,0-1.64,0A6.15,6.15,0,0,0,.05,14.86a5.88,5.88,0,0,0,4.22,4.8,5.68,5.68,0,0,0,0,1.43,6.15,6.15,0,0,0,7.06,5.06A6.61,6.61,0,0,0,15.43,24,6.64,6.64,0,0,0,20,25a6.16,6.16,0,0,0,5.56-6.67,5.45,5.45,0,0,0-.48-1.56A5.83,5.83,0,0,0,27.59,11.33ZM15,11.53A5.18,5.18,0,0,0,15,13a5.53,5.53,0,0,0,.47,1.56,6.89,6.89,0,0,0-1.11,1,6,6,0,0,0-1.71-.8,5.33,5.33,0,0,0,0-1.44,5.66,5.66,0,0,0-.43-1.47,6.42,6.42,0,0,0,1.64,0A7.11,7.11,0,0,0,15,11.53Z"/><path class="cls-2" d="M17.76,12.51a4,4,0,1,1-4.47-3.46A4,4,0,0,1,17.76,12.51Z"/></g></g></svg>