<svg xmlns="http://www.w3.org/2000/svg" viewBox="0 0 248.23 241.11"><defs><style>.cls-1{fill:#fff;}.cls-2{fill:#ca734c;}.cls-3{fill:#7bb3d6;}.cls-4{fill:#f9d5b0;}.cls-5{fill:#d99c50;}.cls-6{fill:#acd5eb;}.cls-7{fill:#40a6a3;}.cls-8{fill:#f6c855;}</style></defs><title>5_side_00</title><g id="圖層_2" data-name="圖層 2"><g id="hand"><path class="cls-1" d="M209.62,127.51a49.24,49.24,0,0,0-8.68-1.54l.65-2.46a10,10,0,0,1,2.79-4.8,12,12,0,0,0,3.8-7.74,12.12,12.12,0,1,0-20.29,7.78l-1.29,3.93a14.3,14.3,0,0,1-5.17,7.33,11.51,11.51,0,0,0-4.7,6.36c-2.47,9.13,8.25,20,24,24.22s30.42.28,32.89-8.86S225.32,131.75,209.62,127.51Z"/><path class="cls-2" d="M98.11,158.39a29,29,0,0,0-43.35,10.77L24,145.07c-5.12-4-18.89-3.54-20.82-1.33h0A10.83,10.83,0,0,0,5,158.93l90.84,69.95,34.38-47Z"/><path class="cls-3" d="M168.61,150,116.2,153.1l-2.12-35.69a26.26,26.26,0,0,1,24.64-27.77h0a26.26,26.26,0,0,1,27.77,24.65Z"/><path class="cls-3" d="M139.91,33.62c-12.11,1.59-22.77,15.16-23.62,22-.87,7.12-1.16,6.92-1.16,6.92l4.29-4.06c6.48,4.75,22,13.75,46.28,13.19,0,0,2.34-3.84,8.56-2.48v0a30.34,30.34,0,0,0,.16-9A30.78,30.78,0,0,0,139.91,33.62Z"/><path class="cls-4" d="M171.33,67.87a11,11,0,0,0-3.83-.2c-2.86-8.61-10.7-15.83-21.09-18.24-15.06-3.49-29.76,4.45-32.84,17.73s6.64,26.87,21.7,30.36c11.18,2.59,22.15-1.13,28.33-8.64a11.12,11.12,0,0,0,2.64,1,11.29,11.29,0,1,0,5.09-22Z"/><path class="cls-3" d="M139.2,75a2.27,2.27,0,1,1-1.45-2.86A2.27,2.27,0,0,1,139.2,75Z"/><path class="cls-5" d="M132.7,76.3a1.51,1.51,0,1,1-1.4-1.63A1.51,1.51,0,0,1,132.7,76.3Z"/><path class="cls-3" d="M130,72.23a2.27,2.27,0,1,1-1.44-2.87A2.26,2.26,0,0,1,130,72.23Z"/><path class="cls-3" d="M65,56.64a6.14,6.14,0,0,0-7-5.06,6.87,6.87,0,0,0-1.13.25,5.53,5.53,0,0,0,0-1.41A6.37,6.37,0,0,0,44.25,52a5.55,5.55,0,0,0,.43,1.47,6.91,6.91,0,0,0-1.64,0,6.15,6.15,0,0,0-5.56,6.67A5.88,5.88,0,0,0,41.71,65a5.26,5.26,0,0,0,0,1.43,6.15,6.15,0,0,0,7.06,5.06,6.55,6.55,0,0,0,4.12-2.17,6.58,6.58,0,0,0,4.54,1.06A6.14,6.14,0,0,0,63,63.67a5.53,5.53,0,0,0-.47-1.56A5.83,5.83,0,0,0,65,56.64Zm-12.59.2a5.53,5.53,0,0,0,0,1.41,5.43,5.43,0,0,0,.47,1.56,6.43,6.43,0,0,0-1.1,1A6.55,6.55,0,0,0,50.07,60a5.69,5.69,0,0,0,0-1.43,5.93,5.93,0,0,0-.42-1.47,6.91,6.91,0,0,0,1.64,0A6.75,6.75,0,0,0,52.43,56.84Z"/><path class="cls-5" d="M55.19,57.81a4,4,0,1,1-4.47-3.45A4,4,0,0,1,55.19,57.81Z"/><path class="cls-6" d="M28.29,47.9a6.14,6.14,0,0,0-7-5.06,6.87,6.87,0,0,0-1.13.25,5.53,5.53,0,0,0,0-1.41,6.14,6.14,0,0,0-7-5.06,6.14,6.14,0,0,0-5.56,6.67A5.55,5.55,0,0,0,8,44.76a6.91,6.91,0,0,0-1.64,0A6.14,6.14,0,0,0,.75,51.42,5.89,5.89,0,0,0,5,56.22a5.25,5.25,0,0,0,0,1.43A6.16,6.16,0,0,0,12,62.71a6.56,6.56,0,0,0,4.12-2.18,6.53,6.53,0,0,0,4.54,1.07,6.15,6.15,0,0,0,5.56-6.67,5.43,5.43,0,0,0-.47-1.56A5.84,5.84,0,0,0,28.29,47.9Zm-12.59.2a5.53,5.53,0,0,0,0,1.41,5.43,5.43,0,0,0,.47,1.56,6.07,6.07,0,0,0-1.1,1,6.25,6.25,0,0,0-1.71-.81,5.7,5.7,0,0,0,0-1.43,5.44,5.44,0,0,0-.43-1.47,7,7,0,0,0,1.65,0A6.75,6.75,0,0,0,15.7,48.1Z"/><path class="cls-5" d="M18.46,49.07A4,4,0,1,1,14,45.61,4,4,0,0,1,18.46,49.07Z"/><path class="cls-2" d="M131.31,82.21c-.38,1.17-1.4,1.89-2.26,1.61a2,2,0,0,1-.86-2.64c.39-1.18,1.4-1.9,2.26-1.61A2,2,0,0,1,131.31,82.21Z"/><path class="cls-2" d="M121.18,82.76l1.44-.32a2.79,2.79,0,0,0,2.09-1.92c.17-.58.34-1.2.49-1.84s.26-1.2.36-1.77a2.8,2.8,0,0,0-1-2.65l-1.18-.94C110.05,62.67,86.27,43.67,86,43.61c-3.14-.73-8.25,9.69-11.42,23.28s-3.19,25.2,0,25.93l.35.08Z"/><path class="cls-4" d="M99.9,70.51h6.37a3.63,3.63,0,0,1,3.63,3.63V92.45a0,0,0,0,1,0,0H96.27a0,0,0,0,1,0,0V74.14a3.63,3.63,0,0,1,3.63-3.63Z" transform="translate(-19.43 33.99) rotate(-17.14)"/><path class="cls-4" d="M111.34,78.16h2.07a2.41,2.41,0,0,1,2.41,2.41V92.86a0,0,0,0,1,0,0h-4.47a0,0,0,0,1,0,0V78.16A0,0,0,0,1,111.34,78.16Z" transform="translate(-20.15 37.26) rotate(-17.14)"/><path class="cls-3" d="M122,118.64a48.61,48.61,0,0,1-5.37-2.56c-11.53-6.38-16.24-16-18.68-23.48a2.26,2.26,0,0,1,1.51-2.85l15.62-4.59a2.26,2.26,0,0,1,2.76,1.43c1.94,5.64,4.52,8.89,8.85,11.29,6.91,3.83,13.27,3.46,14.64,2.67a1.84,1.84,0,0,0-.34.28l14.89,14.45C148.69,122.75,135.08,123.92,122,118.64Z"/><path class="cls-3" d="M56,109c-11.72,3.42-20.19,18.47-20,25.39.23,7.17-.08,7-.08,7l3.61-4.67c7.13,3.7,23.88,10.22,47.75,5.95,0,0,1.72-4.15,8.08-3.76v0A30.76,30.76,0,0,0,56,109Z"/><path class="cls-3" d="M174.75,60.12a30.79,30.79,0,0,0-34.51-26.54c-12.11,1.58-22.84,12.19-24,22.08.09.08.53.5,1.3,1.15a3.47,3.47,0,0,0,2,6.31,3.6,3.6,0,0,0,1.43-.31,3.45,3.45,0,0,0,5.7,1.69A3.47,3.47,0,0,0,132,66.74a3.45,3.45,0,0,0,6,1.74,3.45,3.45,0,0,0,6,1.86,3.46,3.46,0,0,0,5.77,1.34,3.46,3.46,0,0,0,5.83.88,3.43,3.43,0,0,0,5.06.94,3.45,3.45,0,0,0,5.51-2.07c.64-.81,3.11-3.4,8.39-2.25v0A31,31,0,0,0,174.75,60.12Z"/><path class="cls-1" d="M176.78,61.92c3.8-14-3.68-28.79-18-34.39-14.16-5.53-30.1-.13-37.71,12l-.42-.43c-.69-.75.12.92-.68,1.58s-2.88.06-2.19.82L123,47l0,0A66.35,66.35,0,0,0,145.22,60.7a69.41,69.41,0,0,0,24.44,5l4.87-.09C175.58,65.51,176.78,61.92,176.78,61.92Z"/><path class="cls-7" d="M118,39c-2.66,2.47,4.77,9.86,16.37,16.88S157.44,67,160,64.09c1.46-1.71-7.8-8.91-12-11.94C133.61,41.72,119.9,37.17,118,39Z"/><path class="cls-7" d="M247.32,174.83a11.69,11.69,0,0,0-14-6.72,11.68,11.68,0,0,0-14.95-17.74A11.68,11.68,0,0,0,198.8,137.9a11.68,11.68,0,0,0-22.4-6.05,11.68,11.68,0,0,0-23.19.92,11.68,11.68,0,0,0-21.84,7.81,11.68,11.68,0,0,0-18.52,14,11.68,11.68,0,0,0-13.49,18.88,11.68,11.68,0,0,0-7.23,22.05,11.68,11.68,0,0,0-.32,23.2,11.69,11.69,0,0,0,8,21.93c.3-.09.58-.2.86-.31,0,.07.07.14.11.2l142-51.29A11.67,11.67,0,0,0,247.32,174.83Z"/><path class="cls-4" d="M92.27,138.07a11.3,11.3,0,0,0-3.82.38c-4.14-8.07-13-14-23.63-14.79-15.41-1.14-28.73,9-29.74,22.54s10.67,25.54,26.09,26.68c11.45.85,21.72-4.5,26.67-12.87a11,11,0,0,0,2.77.57,11.29,11.29,0,1,0,1.66-22.51Z"/><path class="cls-7" d="M61.61,150a2.27,2.27,0,1,1-1.87-2.61A2.28,2.28,0,0,1,61.61,150Z"/><path class="cls-5" d="M55.39,152.3a1.52,1.52,0,1,1-1.64-1.39A1.52,1.52,0,0,1,55.39,152.3Z"/><path class="cls-7" d="M52.12,148.69a2.27,2.27,0,1,1-1.87-2.61A2.28,2.28,0,0,1,52.12,148.69Z"/><path class="cls-7" d="M102.37,107.93a6.39,6.39,0,0,0,.2-2.83A6.46,6.46,0,0,0,90,104.17a6.36,6.36,0,0,0-4.38-.92,6.49,6.49,0,0,0-5.42,7.39,6.38,6.38,0,0,0,.4,1.41,30.63,30.63,0,0,0-24.31-3.11C44.57,112.35,35.6,124.48,36,134.42c.69.49,19.84,13.88,51.59,8.21,0,0,1.73-4.15,8.09-3.76v0a30.88,30.88,0,0,0-1.23-9c-.2-.7-.46-1.37-.71-2a6.47,6.47,0,0,0,9-6.91.45.45,0,0,0,0-.11,6.46,6.46,0,1,0-.38-12.89Z"/><path class="cls-4" d="M54.75,128.37l-8.44.12a3.88,3.88,0,0,0-.69.18l-.06-.15a2.39,2.39,0,0,0-3.18-1.16l-9.32,4.34,4.26,9.64,9-4.82A4.7,4.7,0,0,1,48,136l8-1a3.38,3.38,0,0,0,2.75-4.2A3.51,3.51,0,0,0,54.75,128.37Z"/><path class="cls-2" d="M40.47,144.51l-28,13.54A8.69,8.69,0,0,1,.87,154h0a8.69,8.69,0,0,1,4-11.61l28-13.54Z"/><path class="cls-5" d="M40.41,131.5a.76.76,0,0,1-.71-.46.78.78,0,0,1,.4-1l5.16-2.21a.72.72,0,0,1,.29-.06l6.74-.11a.77.77,0,1,1,0,1.54l-6.59.11-5,2.15A.8.8,0,0,1,40.41,131.5Z"/><path class="cls-2" d="M53.88,160.83c-2.52-.3-4.61-1.62-5.37-3.51a.67.67,0,1,1,1.24-.5c.72,1.76,3.17,2.91,5.85,2.71s4.95-1.66,5.4-3.51a.67.67,0,1,1,1.3.32c-.59,2.44-3.31,4.3-6.61,4.53A9.08,9.08,0,0,1,53.88,160.83Z"/><path class="cls-4" d="M118.92,150.59a6.08,6.08,0,1,1-6.08-6.08A6.08,6.08,0,0,1,118.92,150.59Z"/><path class="cls-3" d="M193.82,107.48a1.34,1.34,0,1,1-.7-1.76A1.35,1.35,0,0,1,193.82,107.48Z"/><path class="cls-8" d="M185.48,106.83h0l.17,0-17.24-3.15a3.82,3.82,0,0,0-4.22,3.34l-.14,1.6,20,1.84h0l2,.18a6.23,6.23,0,0,0,.12-.79C186.42,108.25,186.06,106.89,185.48,106.83Z"/><path class="cls-5" d="M186.15,110.67l-2-.18h0l-20-1.84a3.81,3.81,0,0,0,3.54,4l17.35,0h0C185.43,112.75,185.92,111.89,186.15,110.67Z"/><path class="cls-8" d="M24.6,95.57c-2.49,0-3.91-1.95-5-3.39-.69-.93-1.34-1.82-2.05-2.05a1.54,1.54,0,0,1,1-2.93,7.77,7.77,0,0,1,3.55,3.16c1.13,1.53,1.69,2.19,2.64,2.12S26.15,91.65,27,90s2-4,4.75-4.2S36,87.6,37.13,89.12s1.72,2.19,2.64,2.12,1.4-.83,2.26-2.53a12.4,12.4,0,0,1,1.56-2.54,1.54,1.54,0,0,1,2.33,2,10.14,10.14,0,0,0-1.15,1.91c-.85,1.68-2,4-4.75,4.21s-4.26-1.85-5.37-3.37S33,88.75,32,88.82s-1.39.83-2.26,2.53-2,4-4.75,4.2Z"/><path class="cls-8" d="M19.05,22.67a4.51,4.51,0,0,1-3.18-1.2c-2-1.85-1.54-4.38-1.19-6.23s.44-2.75-.24-3.37-1.56-.46-3.39.06-4.28,1.23-6.31-.62S3.2,6.92,3.56,5.08a5.6,5.6,0,0,0,.11-2.9A1.54,1.54,0,0,1,6.47.9a7.69,7.69,0,0,1,.11,4.76C6.22,7.52,6.14,8.41,6.82,9s1.56.46,3.39-.06,4.28-1.23,6.31.62,1.54,4.38,1.19,6.23-.45,2.75.24,3.38,1.56.46,3.38-.07a13,13,0,0,1,2.93-.58A1.57,1.57,0,0,1,25.85,20a1.54,1.54,0,0,1-1.49,1.59,9.77,9.77,0,0,0-2.18.47A11.61,11.61,0,0,1,19.05,22.67Z"/></g></g></svg>