<svg xmlns="http://www.w3.org/2000/svg" viewBox="0 0 130.24 129.27"><defs><style>.cls-1{fill:#ca734c;}.cls-2{fill:#7bb3d6;}.cls-3{fill:#f9d5b0;}.cls-4{fill:#40a6a3;}.cls-5{fill:#d99c50;}</style></defs><title>5_side_02</title><g id="圖層_2" data-name="圖層 2"><g id="hand"><path class="cls-1" d="M98.11,58.78a29.1,29.1,0,0,0-40.68,6.29,29.41,29.41,0,0,0-2.67,4.48L24,45.45c-5.12-4-18.89-3.54-20.82-1.33h0A10.84,10.84,0,0,0,5,59.32l90.84,70,34.38-47Z"/><path class="cls-2" d="M56,9.42C44.26,12.83,35.79,27.88,36,34.81c.23,7.17-.08,7-.08,7l3.61-4.66c7.13,3.7,23.88,10.21,47.75,6,0,0,1.72-4.15,8.08-3.77v0A30.76,30.76,0,0,0,56,9.42Z"/><path class="cls-3" d="M92.27,38.45a11.3,11.3,0,0,0-3.82.39c-4.14-8.07-13-14-23.63-14.79C49.41,22.9,36.09,33,35.08,46.59S45.75,72.13,61.17,73.27c11.45.85,21.72-4.5,26.67-12.87a12,12,0,0,0,2.77.57,11.29,11.29,0,1,0,1.66-22.52Z"/><path class="cls-4" d="M61.61,50.41a2.27,2.27,0,1,1-1.87-2.61A2.27,2.27,0,0,1,61.61,50.41Z"/><path class="cls-5" d="M55.39,52.69a1.52,1.52,0,1,1-1.64-1.39A1.52,1.52,0,0,1,55.39,52.69Z"/><path class="cls-4" d="M52.12,49.08a2.27,2.27,0,0,1-4.48-.74,2.27,2.27,0,1,1,4.48.74Z"/><path class="cls-4" d="M102.37,8.32a6.4,6.4,0,0,0,.2-2.83A6.46,6.46,0,0,0,90,4.55a6.41,6.41,0,0,0-4.38-.91,6.42,6.42,0,0,0-5,8.8A30.67,30.67,0,0,0,56.3,9.32C44.57,12.74,35.6,24.87,36,34.81c.69.48,19.84,13.88,51.59,8.21,0,0,1.73-4.16,8.09-3.77v0a30.88,30.88,0,0,0-1.23-9c-.2-.7-.46-1.37-.71-2.05a6.45,6.45,0,0,0,9-6.9.45.45,0,0,0,0-.11,6.46,6.46,0,1,0-.38-12.89Z"/><path class="cls-3" d="M54.75,28.76l-8.44.12a3.18,3.18,0,0,0-.69.18l-.06-.15a2.39,2.39,0,0,0-3.18-1.16l-9.32,4.34,4.26,9.64,9-4.82A4.7,4.7,0,0,1,48,36.39l8-1a3.39,3.39,0,0,0,2.75-4.21A3.51,3.51,0,0,0,54.75,28.76Z"/><path class="cls-1" d="M40.47,44.9l-28,13.54a8.69,8.69,0,0,1-11.61-4h0a8.69,8.69,0,0,1,4-11.61l28-13.54Z"/><path class="cls-5" d="M40.41,31.89a.77.77,0,0,1-.31-1.48l5.16-2.21a.72.72,0,0,1,.29-.06L52.29,28a.78.78,0,0,1,.78.76.76.76,0,0,1-.76.78l-6.59.11-5,2.16A.8.8,0,0,1,40.41,31.89Z"/><path class="cls-1" d="M53.88,61.22c-2.52-.31-4.61-1.62-5.37-3.51a.67.67,0,0,1,1.24-.5c.72,1.76,3.17,2.9,5.85,2.71s4.95-1.67,5.4-3.51a.66.66,0,0,1,.81-.49.67.67,0,0,1,.49.81c-.59,2.43-3.31,4.3-6.61,4.53A9.89,9.89,0,0,1,53.88,61.22Z"/></g></g></svg>