<svg xmlns="http://www.w3.org/2000/svg" viewBox="0 0 208.29 253.69"><defs><style>.cls-1{fill:#ca734c;}.cls-2{fill:#7bb3d6;}.cls-3{fill:#d99c50;}.cls-4{fill:#f9d5b0;}.cls-5{fill:#40a6a3;}.cls-6{fill:#f6c855;}</style></defs><title>6_side_00</title><g id="圖層_2" data-name="圖層 2"><g id="hand"><path class="cls-1" d="M91.92,160.88h59.58a0,0,0,0,1,0,0V222a0,0,0,0,1,0,0H91.92A12.52,12.52,0,0,1,79.4,209.49V173.4a12.52,12.52,0,0,1,12.52-12.52Z" transform="translate(-106.96 168.81) rotate(-53.1)"/><path class="cls-2" d="M98.57,24.11A60.91,60.91,0,0,0,50.38,95.52L170,72.3A60.91,60.91,0,0,0,98.57,24.11Z"/><polygon class="cls-1" points="154.34 196.57 97.66 224.06 107.28 172.48 154.34 196.57"/><path class="cls-3" d="M152,208.07,94.13,178.63c-4.18-2.13-5.37-8-2.57-12.67l19.65-33.07c10.07-16.94,29.47-24.12,44.52-16.46L166,121.65c15,7.66,20.68,27.57,12.91,45.69l-15.17,35.34C161.58,207.71,156.16,210.19,152,208.07Z"/><path class="cls-4" d="M169.49,65.2c-13.2,1.21-24.07,8.78-29,18.9a14,14,0,1,0-2.19,27.54,13.73,13.73,0,0,0,3.42-.77c6.34,10.29,19.22,16.71,33.42,15.41,19.13-1.76,33.38-16.86,31.83-33.73S188.62,63.44,169.49,65.2Z"/><path class="cls-5" d="M188.41,94.83a2.47,2.47,0,1,1-2.67-2.27A2.47,2.47,0,0,1,188.41,94.83Z"/><path class="cls-3" d="M183.77,98.79a1.66,1.66,0,1,1-2.1-1A1.65,1.65,0,0,1,183.77,98.79Z"/><path class="cls-5" d="M178,95.93a2.47,2.47,0,1,1-2.66-2.26A2.47,2.47,0,0,1,178,95.93Z"/><path class="cls-1" d="M179.86,108.29c-3.15-.38-5.77-2-6.72-4.39a.84.84,0,0,1,1.56-.63c.89,2.21,4,3.64,7.31,3.4s6.19-2.09,6.76-4.4a.84.84,0,0,1,1.63.4c-.75,3-4.15,5.38-8.27,5.67A11.4,11.4,0,0,1,179.86,108.29Z"/><path class="cls-2" d="M205.46,111.38l0,0,0,0Z"/><path class="cls-4" d="M175.44,116.46h5a2.6,2.6,0,0,1,2.71,2.68l-.28,5.11h1.46a1.72,1.72,0,0,1,1.79,1.78l-.49,9.06h-3.52l.14-2.45H171.7l.74-13.5A3,3,0,0,1,175.44,116.46Z"/><path class="cls-1" d="M169.19,129.45l.6,27.37a9.1,9.1,0,0,0,9.06,9.13h0a9.1,9.1,0,0,0,8.64-9.52l-.61-27.37Z"/><path class="cls-5" d="M208.16,68.82c0-.15,0-.31,0-.46a.76.76,0,0,1,0-.15s0,0,0-.06c-.06-.8-.12-1.6-.22-2.42-.71-5.92-2.28-11.77-4.32-14.76A35.45,35.45,0,0,0,185,38.06c-10.76-3.14-13-2.76-20.91-2.23a45.92,45.92,0,0,0-13.86,3.09,12.62,12.62,0,0,0-10.59-9,12.64,12.64,0,0,0-15.12-15.51,12.64,12.64,0,1,0-12.16,10.83,12.14,12.14,0,0,0,2.57-.33,12.54,12.54,0,0,0,11,14.34,12.91,12.91,0,0,0-.41,3.54,12.65,12.65,0,0,0,6,10.41,36,36,0,0,0-7,23.68,43.87,43.87,0,0,0,2.54,11l1.21-1.11a15.33,15.33,0,0,1,12.32-2.69A35.17,35.17,0,0,1,148,87a9.73,9.73,0,0,1,5.15,5.59,7,7,0,0,1,.24.83s25.07-2,26.62-13.4c0,0,2.11,11.92,26.38,9.1A70.6,70.6,0,0,0,208.16,68.82Z"/><path class="cls-4" d="M179.94,123l-3.72-5a3.26,3.26,0,0,0-4.73-.75l-5,4.09-1.09-1.47a2.15,2.15,0,0,0-3.13-.49l-8.78,7.24,2.62,3.55,2.37-1.95,7.85,10.65,13.09-10.79A3.72,3.72,0,0,0,179.94,123Z"/><path class="cls-3" d="M176.33,131.6a1,1,0,0,1-.61-1.71l3.14-2.58a2.75,2.75,0,0,0,.31-3.71l-3.73-5.06a2.56,2.56,0,0,0-1.71-1.05,2.13,2.13,0,0,0-1.62.47l-5,4.09a1,1,0,0,1-.73.21,1,1,0,0,1-.66-.38l-1.08-1.47a1.34,1.34,0,0,0-.91-.56,1,1,0,0,0-.83.24l-2.13,1.75a1,1,0,0,1-1.35-.13,1,1,0,0,1,.13-1.36l2.12-1.75a3,3,0,0,1,2.29-.66,3.3,3.3,0,0,1,2.23,1.33l.48.65,4.17-3.44a4,4,0,0,1,3.08-.9,4.5,4.5,0,0,1,3,1.81l3.73,5.06a4.69,4.69,0,0,1-.64,6.34L177,131.38A1,1,0,0,1,176.33,131.6Z"/><path class="cls-1" d="M157.57,119.78l-26.3,20.63a11.4,11.4,0,0,0-1.93,16h0a11.4,11.4,0,0,0,16,1.93l26.3-20.64Z"/><polygon class="cls-6" points="96.13 170.62 111.62 112.23 34.62 91.79 19.12 150.18 0.94 218.71 0 222.24 118.52 253.69 137.64 181.63 96.13 170.62"/></g></g></svg>