<svg xmlns="http://www.w3.org/2000/svg" viewBox="0 0 147.56 166.26"><defs><style>.cls-1{fill:#acd5eb;}.cls-2{fill:#3f9e9b;}.cls-3{fill:#d29750;}.cls-4{fill:#c26f4a;}.cls-5{fill:#fff;}.cls-6{fill:#edc156;}</style></defs><title>7_stars_00</title><g id="圖層_2" data-name="圖層 2"><g id="hand"><path class="cls-1" d="M114.61,2.11,106.22,12.9a5.44,5.44,0,0,1-4.63,2.1L88,14.21a5.47,5.47,0,0,0-4.84,8.52L90.78,34a5.49,5.49,0,0,1,.57,5.06l-5,12.72A5.47,5.47,0,0,0,93,59.06l13.13-3.8a5.46,5.46,0,0,1,5,1l10.57,8.66a5.46,5.46,0,0,0,8.92-4L131,47.23a5.48,5.48,0,0,1,2.51-4.42l11.51-7.38A5.46,5.46,0,0,0,144,25.7L131.1,21.05a5.47,5.47,0,0,1-3.43-3.75L124.21,4.08A5.47,5.47,0,0,0,114.61,2.11Z"/><path class="cls-2" d="M101.9,22.7a4,4,0,1,0,4.76-3A4,4,0,0,0,101.9,22.7Z"/><path class="cls-3" d="M106.21,33c-.81,1.27.17,3,2.17,3.84s4.28.5,5.08-.78-.17-3-2.18-3.84S107,31.76,106.21,33Z"/><path class="cls-2" d="M117.29,28.91a4,4,0,1,0,4.75-3A4,4,0,0,0,117.29,28.91Z"/><path class="cls-4" d="M106.52,45.08a10.55,10.55,0,0,0,3.24,1.28c3.69.78,7.3-.45,8.77-3a1.43,1.43,0,0,0-.51-1.89,1.37,1.37,0,0,0-1.89.5c-.86,1.5-3.3,2.2-5.8,1.67s-4.43-2.17-4.61-3.88a1.4,1.4,0,0,0-1.52-1.24A1.38,1.38,0,0,0,103,40.05,6.94,6.94,0,0,0,106.52,45.08Z"/><path class="cls-5" d="M26,23.68l8.39,8.59a4.82,4.82,0,0,0,4.26,1.38l11.83-2a4.8,4.8,0,0,1,5.07,7L49.93,49.2a4.81,4.81,0,0,0,0,4.47L55.53,64.3a4.8,4.8,0,0,1-5.05,7l-11.84-2a4.77,4.77,0,0,0-4.25,1.39L26,79.24a4.8,4.8,0,0,1-8.2-2.65L16.09,64.71a4.83,4.83,0,0,0-2.63-3.62L2.68,55.79a4.8,4.8,0,0,1,0-8.61l10.77-5.33a4.82,4.82,0,0,0,2.62-3.62l1.72-11.88A4.79,4.79,0,0,1,26,23.68Z"/><path class="cls-2" d="M39.1,40.4a3.5,3.5,0,1,1-4.45-2.16A3.5,3.5,0,0,1,39.1,40.4Z"/><path class="cls-3" d="M36.36,49.85c.83,1,.15,2.64-1.52,3.57s-3.68.86-4.51-.17-.14-2.64,1.52-3.57S35.54,48.82,36.36,49.85Z"/><path class="cls-2" d="M26.28,47.34a3.5,3.5,0,1,1-4.45-2.16A3.5,3.5,0,0,1,26.28,47.34Z"/><path class="cls-6" d="M55.79,84.71,54.7,102.89a7.28,7.28,0,0,1-3.5,5.8L35.61,118.1a7.29,7.29,0,0,0,1.1,13l16.95,6.65a7.3,7.3,0,0,1,4.44,5.12l4.13,17.74a7.29,7.29,0,0,0,12.72,3l11.56-14.07a7.27,7.27,0,0,1,6.24-2.63l18.15,1.55a7.29,7.29,0,0,0,6.76-11.18l-9.81-15.34a7.3,7.3,0,0,1-.58-6.76l7.09-16.78a7.28,7.28,0,0,0-8.55-9.87L88.19,93.1a7.26,7.26,0,0,1-6.6-1.54L67.82,79.64A7.28,7.28,0,0,0,55.79,84.71Z"/><path class="cls-2" d="M57.34,116.92a5.3,5.3,0,1,0,2.95-6.9A5.31,5.31,0,0,0,57.34,116.92Z"/><path class="cls-3" d="M69.86,125c.08,2,2.45,3.16,5.29,2.58s5.07-2.68,5-4.68-2.45-3.17-5.29-2.59S69.78,123,69.86,125Z"/><path class="cls-2" d="M78.92,112.14a5.31,5.31,0,1,0,3-6.9A5.3,5.3,0,0,0,78.92,112.14Z"/><path class="cls-4" d="M86.18,135.14a3.82,3.82,0,1,1-3.82-3.82A3.82,3.82,0,0,1,86.18,135.14Z"/></g></g></svg>