<svg xmlns="http://www.w3.org/2000/svg" viewBox="0 0 65.4 66.19"><defs><style>.cls-1{fill:#acd5eb;}.cls-2{fill:#3f9e9b;}.cls-3{fill:#d29750;}.cls-4{fill:#c26f4a;}</style></defs><title>7_stars_02</title><g id="圖層_2" data-name="圖層 2"><g id="hand"><path class="cls-1" d="M32.45,2.11,24.06,12.9A5.44,5.44,0,0,1,19.43,15L5.79,14.21A5.47,5.47,0,0,0,1,22.73L8.62,34a5.49,5.49,0,0,1,.57,5.06l-5,12.72a5.47,5.47,0,0,0,6.61,7.24L24,55.26a5.46,5.46,0,0,1,5,1l10.57,8.66a5.46,5.46,0,0,0,8.92-4l.44-13.66a5.48,5.48,0,0,1,2.51-4.42l11.51-7.38a5.46,5.46,0,0,0-1.1-9.73L48.94,21.05a5.47,5.47,0,0,1-3.43-3.75L42.05,4.08A5.47,5.47,0,0,0,32.45,2.11Z"/><path class="cls-2" d="M19.74,22.7a4,4,0,1,0,4.76-3A4,4,0,0,0,19.74,22.7Z"/><path class="cls-3" d="M24.05,33c-.81,1.27.17,3,2.17,3.84s4.28.5,5.08-.78-.17-3-2.18-3.84S24.85,31.76,24.05,33Z"/><path class="cls-2" d="M35.13,28.91a4,4,0,1,0,4.75-3A4,4,0,0,0,35.13,28.91Z"/><path class="cls-4" d="M24.36,45.08a10.55,10.55,0,0,0,3.24,1.28c3.69.78,7.3-.45,8.77-3a1.43,1.43,0,0,0-.51-1.89A1.37,1.37,0,0,0,34,42c-.86,1.5-3.3,2.2-5.8,1.67s-4.43-2.17-4.61-3.88A1.4,1.4,0,0,0,22,38.53a1.38,1.38,0,0,0-1.23,1.52A6.94,6.94,0,0,0,24.36,45.08Z"/></g></g></svg>