<svg xmlns="http://www.w3.org/2000/svg" viewBox="0 0 65.4 66.19"><defs><style>.cls-1{fill:#acd5eb;}.cls-2{fill:#3f9e9b;}.cls-3{fill:#d29750;}.cls-4{fill:#c26f4a;}</style></defs><title>8_stars_02</title><g id="圖層_2" data-name="圖層 2"><g id="hand"><path class="cls-1" d="M33,2.11,41.34,12.9A5.44,5.44,0,0,0,46,15l13.64-.79a5.47,5.47,0,0,1,4.84,8.52L56.78,34a5.49,5.49,0,0,0-.57,5.06l5,12.72a5.47,5.47,0,0,1-6.61,7.24l-13.13-3.8a5.46,5.46,0,0,0-5,1L25.89,64.94a5.46,5.46,0,0,1-8.92-4l-.44-13.66A5.48,5.48,0,0,0,14,42.81L2.51,35.43a5.46,5.46,0,0,1,1.1-9.73l12.85-4.65a5.47,5.47,0,0,0,3.43-3.75L23.35,4.08A5.47,5.47,0,0,1,33,2.11Z"/><path class="cls-2" d="M45.66,22.7a4,4,0,1,1-4.76-3A4,4,0,0,1,45.66,22.7Z"/><path class="cls-3" d="M41.36,33c.8,1.27-.18,3-2.18,3.84s-4.28.5-5.08-.78.17-3,2.18-3.84S40.55,31.76,41.36,33Z"/><path class="cls-2" d="M30.28,28.91a4,4,0,1,1-4.76-3A4,4,0,0,1,30.28,28.91Z"/><path class="cls-4" d="M41,45.08a10.55,10.55,0,0,1-3.24,1.28c-3.69.78-7.3-.45-8.77-3a1.43,1.43,0,0,1,.51-1.89,1.37,1.37,0,0,1,1.89.5c.86,1.5,3.3,2.2,5.8,1.67s4.43-2.17,4.61-3.88a1.39,1.39,0,1,1,2.76.28A7,7,0,0,1,41,45.08Z"/></g></g></svg>