<svg xmlns="http://www.w3.org/2000/svg" viewBox="0 0 147.56 166.26"><defs><style>.cls-1{fill:#acd5eb;}.cls-2{fill:#3f9e9b;}.cls-3{fill:#d29750;}.cls-4{fill:#c26f4a;}.cls-5{fill:#fff;}.cls-6{fill:#edc156;}</style></defs><title>8_stars_00</title><g id="圖層_2" data-name="圖層 2"><g id="hand"><path class="cls-1" d="M33,2.11,41.34,12.9A5.44,5.44,0,0,0,46,15l13.64-.79a5.47,5.47,0,0,1,4.84,8.52L56.78,34a5.49,5.49,0,0,0-.57,5.06l5,12.72a5.47,5.47,0,0,1-6.61,7.24l-13.13-3.8a5.46,5.46,0,0,0-5,1L25.89,64.94a5.46,5.46,0,0,1-8.92-4l-.44-13.66A5.48,5.48,0,0,0,14,42.81L2.51,35.43a5.46,5.46,0,0,1,1.1-9.73l12.85-4.65a5.47,5.47,0,0,0,3.43-3.75L23.35,4.08A5.47,5.47,0,0,1,33,2.11Z"/><path class="cls-2" d="M45.66,22.7a4,4,0,1,1-4.76-3A4,4,0,0,1,45.66,22.7Z"/><path class="cls-3" d="M41.36,33c.8,1.27-.18,3-2.18,3.84s-4.28.5-5.08-.78.17-3,2.18-3.84S40.55,31.76,41.36,33Z"/><path class="cls-2" d="M30.28,28.91a4,4,0,1,1-4.76-3A4,4,0,0,1,30.28,28.91Z"/><path class="cls-4" d="M41,45.08a10.55,10.55,0,0,1-3.24,1.28c-3.69.78-7.3-.45-8.77-3a1.43,1.43,0,0,1,.51-1.89,1.37,1.37,0,0,1,1.89.5c.86,1.5,3.3,2.2,5.8,1.67s4.43-2.17,4.61-3.88a1.39,1.39,0,1,1,2.76.28A7,7,0,0,1,41,45.08Z"/><path class="cls-5" d="M121.6,23.68l-8.39,8.59A4.81,4.81,0,0,1,109,33.65l-11.84-2a4.8,4.8,0,0,0-5.07,7L97.63,49.2a4.84,4.84,0,0,1,0,4.47L92,64.3a4.8,4.8,0,0,0,5,7l11.84-2a4.77,4.77,0,0,1,4.25,1.39l8.37,8.6a4.8,4.8,0,0,0,8.2-2.65l1.73-11.88a4.82,4.82,0,0,1,2.64-3.62l10.77-5.3a4.8,4.8,0,0,0,0-8.61l-10.77-5.33a4.82,4.82,0,0,1-2.62-3.62l-1.71-11.88A4.8,4.8,0,0,0,121.6,23.68Z"/><path class="cls-2" d="M108.46,40.4a3.5,3.5,0,1,0,4.45-2.16A3.5,3.5,0,0,0,108.46,40.4Z"/><path class="cls-3" d="M111.2,49.85c-.83,1-.15,2.64,1.52,3.57s3.68.86,4.51-.17.15-2.64-1.52-3.57S112,48.82,111.2,49.85Z"/><path class="cls-2" d="M121.28,47.34a3.5,3.5,0,1,0,4.45-2.16A3.5,3.5,0,0,0,121.28,47.34Z"/><path class="cls-6" d="M91.77,84.71l1.09,18.18a7.28,7.28,0,0,0,3.5,5.8L112,118.1a7.29,7.29,0,0,1-1.11,13L93.9,137.77a7.3,7.3,0,0,0-4.44,5.12l-4.13,17.74a7.29,7.29,0,0,1-12.72,3L61.05,149.53a7.27,7.27,0,0,0-6.24-2.63l-18.15,1.55a7.28,7.28,0,0,1-6.75-11.18l9.8-15.34a7.3,7.3,0,0,0,.58-6.76L33.2,98.39a7.28,7.28,0,0,1,8.55-9.87L59.37,93.1A7.26,7.26,0,0,0,66,91.56L79.74,79.64A7.28,7.28,0,0,1,91.77,84.71Z"/><path class="cls-2" d="M90.22,116.92a5.3,5.3,0,1,1-3-6.9A5.31,5.31,0,0,1,90.22,116.92Z"/><path class="cls-3" d="M77.7,125c-.08,2-2.45,3.16-5.29,2.58s-5.07-2.68-5-4.68,2.45-3.17,5.29-2.59S77.78,123,77.7,125Z"/><path class="cls-2" d="M68.64,112.14a5.31,5.31,0,1,1-3-6.9A5.3,5.3,0,0,1,68.64,112.14Z"/><path class="cls-4" d="M61.38,135.14a3.82,3.82,0,1,0,3.82-3.82A3.82,3.82,0,0,0,61.38,135.14Z"/></g></g></svg>