<svg xmlns="http://www.w3.org/2000/svg" viewBox="0 0 56.1 58.48"><defs><style>.cls-1{fill:#fff;}.cls-2{fill:#3f9e9b;}.cls-3{fill:#d29750;}</style></defs><title>8_stars_03</title><g id="圖層_2" data-name="圖層 2"><g id="hand"><path class="cls-1" d="M30.14,1.45,21.74,10a4.79,4.79,0,0,1-4.25,1.38l-11.83-2a4.8,4.8,0,0,0-5.07,7L6.17,27a4.81,4.81,0,0,1,0,4.47L.56,42.07a4.8,4.8,0,0,0,5.06,7l11.84-2a4.84,4.84,0,0,1,4.25,1.39L30.08,57a4.8,4.8,0,0,0,8.19-2.66L40,42.48a4.83,4.83,0,0,1,2.63-3.61l10.78-5.31a4.8,4.8,0,0,0,0-8.61L42.66,19.63A4.81,4.81,0,0,1,40,16L38.32,4.12A4.79,4.79,0,0,0,30.14,1.45Z"/><path class="cls-2" d="M17,18.18A3.5,3.5,0,1,0,21.45,16,3.5,3.5,0,0,0,17,18.18Z"/><path class="cls-3" d="M19.74,27.63c-.83,1-.15,2.63,1.52,3.57s3.68.85,4.51-.18.14-2.63-1.52-3.57S20.56,26.59,19.74,27.63Z"/><path class="cls-2" d="M29.82,25.11A3.5,3.5,0,1,0,34.27,23,3.52,3.52,0,0,0,29.82,25.11Z"/></g></g></svg>