<svg xmlns="http://www.w3.org/2000/svg" viewBox="0 0 86.73 88.41"><defs><style>.cls-1{fill:#edc156;}.cls-2{fill:#3f9e9b;}.cls-3{fill:#d29750;}.cls-4{fill:#c26f4a;}</style></defs><title>8_stars_01</title><g id="圖層_2" data-name="圖層 2"><g id="hand"><path class="cls-1" d="M63,6.86,64.11,25a7.31,7.31,0,0,0,3.51,5.8l15.59,9.41a7.28,7.28,0,0,1-1.1,13l-17,6.65A7.28,7.28,0,0,0,60.72,65L56.59,82.77a7.28,7.28,0,0,1-12.72,3L32.31,71.68A7.28,7.28,0,0,0,26.06,69L7.92,70.59A7.28,7.28,0,0,1,1.16,59.42L11,44.07a7.28,7.28,0,0,0,.57-6.75L4.46,20.54A7.28,7.28,0,0,1,13,10.66l17.63,4.59a7.29,7.29,0,0,0,6.6-1.54L51,1.79A7.28,7.28,0,0,1,63,6.86Z"/><path class="cls-2" d="M61.48,39.07a5.31,5.31,0,1,1-3-6.9A5.31,5.31,0,0,1,61.48,39.07Z"/><path class="cls-3" d="M49,47.18c-.08,2-2.45,3.17-5.29,2.59s-5.08-2.68-5-4.69S41.12,41.92,44,42.5,49,45.18,49,47.18Z"/><path class="cls-2" d="M39.89,34.29a5.3,5.3,0,1,1-3-6.9A5.32,5.32,0,0,1,39.89,34.29Z"/><path class="cls-4" d="M32.64,57.29a3.82,3.82,0,1,0,3.82-3.82A3.82,3.82,0,0,0,32.64,57.29Z"/></g></g></svg>