<svg xmlns="http://www.w3.org/2000/svg" viewBox="0 0 297.09 243.65"><defs><style>.cls-1{fill:#7bb3d6;}.cls-2{fill:#f9d5b0;}.cls-3{fill:#ca734c;}.cls-4{fill:#d99c50;}.cls-5{fill:#40a6a3;}.cls-6{fill:#f6c855;}</style></defs><title>9_flower_00</title><g id="圖層_2" data-name="圖層 2"><g id="hand"><path class="cls-1" d="M100.94,34.13c.07.7.19,1.38.3,2.07A31.17,31.17,0,1,0,54.46,77c.51.48,1,.91,1.59,1.36a31.89,31.89,0,0,0-5.9-.83,31.18,31.18,0,0,0-2.55,62.3H48c.05.29.13.57.18.85A31.14,31.14,0,1,0,82.54,192.5c.56.38,1.11.78,1.67,1.15-.2.77-.39,1.54-.54,2.34A31.17,31.17,0,0,0,145,207c.07-.38.1-.76.15-1.14l.46-.08a32.08,32.08,0,0,0,2.21,4.53,31.15,31.15,0,0,0,57.87-16.64A31.18,31.18,0,0,0,223.11,135c-.62-.33-1.25-.6-1.89-.88a31.75,31.75,0,0,0,5.91-.79,31.17,31.17,0,0,0-14.28-60.69c-.69.16-1.34.38-2,.58a31.17,31.17,0,1,0-46.73-40.82c-.41.57-.77,1.16-1.13,1.75a32.06,32.06,0,0,0,0-6,31.17,31.17,0,0,0-62.06,5.92Z"/><path class="cls-2" d="M41.14,195.65l.55-5.12a2.93,2.93,0,0,1,3.23-2.61l5.58.59.16-1.48a1.94,1.94,0,0,1,2.14-1.73l9.88,1L62.3,190l-2.68-.29-1.14,10.79-14.73-1.57A2.94,2.94,0,0,1,41.14,195.65Z"/><path class="cls-3" d="M96.74,205.55,57.44,202,59,184.82l39.31,3.5a8.64,8.64,0,0,1,7.84,9.38h0A8.65,8.65,0,0,1,96.74,205.55Z"/><path class="cls-1" d="M93.59,135.7C82.08,139.21,73.93,154.13,74.23,161c.31,7.06,0,6.91,0,6.91l3.49-4.64c7.08,3.56,23.65,9.77,47.11,5.27,0,0,1.64-4.11,7.91-3.8v0a30.32,30.32,0,0,0-39.16-29Z"/><path class="cls-2" d="M131.11,22.77l-4.82,3a3.24,3.24,0,0,0-1.06,4.45l3.24,5.26-1.4.86a2.15,2.15,0,0,0-.7,2.95l5.74,9.31,3.39-2.09L134,44l10.16-6.26-8.55-13.88A3.23,3.23,0,0,0,131.11,22.77Z"/><path class="cls-4" d="M15.46,98.24l3.19,1.16a1.36,1.36,0,0,0,1.25-.17l2.77-2a1.36,1.36,0,0,1,2.14,1.15l-.12,3.4a1.32,1.32,0,0,0,.54,1.13L28,105a1.36,1.36,0,0,1-.44,2.39l-3.26.93a1.36,1.36,0,0,0-.92.87l-1.08,3.22a1.35,1.35,0,0,1-2.41.32L18,109.9a1.34,1.34,0,0,0-1.11-.6l-3.39,0a1.36,1.36,0,0,1-1.06-2.19l2.1-2.67a1.4,1.4,0,0,0,.23-1.25l-1-3.23A1.36,1.36,0,0,1,15.46,98.24Z"/><path class="cls-4" d="M9.86,73.85l.68,3.08a1.26,1.26,0,0,0,.76.9L14.23,79a1.26,1.26,0,0,1,.17,2.26l-2.73,1.6a1.27,1.27,0,0,0-.62,1L10.83,87a1.26,1.26,0,0,1-2.1.85L6.36,85.8a1.25,1.25,0,0,0-1.14-.29l-3.07.76A1.26,1.26,0,0,1,.69,84.54L2,81.65a1.27,1.27,0,0,0-.09-1.18L.19,77.79a1.27,1.27,0,0,1,1.2-1.93l3.15.31a1.24,1.24,0,0,0,1.08-.45l2-2.41A1.26,1.26,0,0,1,9.86,73.85Z"/><path class="cls-2" d="M72,128.29l-.49-5.65a3.24,3.24,0,0,1,3-3.5l6.14-.53L80.42,117a2.14,2.14,0,0,1,2-2.32l10.9-1,.35,4-3,.26,1,11.89-16.24,1.41A3.24,3.24,0,0,1,72,128.29Z"/><path class="cls-2" d="M45.81,225.76l-1.31-5.51a3.24,3.24,0,0,1,2.39-3.9l6-1.43-.39-1.6a2.15,2.15,0,0,1,1.59-2.58l10.64-2.54.93,3.87-2.88.69,2.77,11.62-15.85,3.78A3.24,3.24,0,0,1,45.81,225.76Z"/><path class="cls-4" d="M144.62,35.49,128.09,46.21l7.77,29a31.33,31.33,0,0,0-16.31,29.19l-30,7.64,1.25,20.23,38-3.74a10.31,10.31,0,0,1,6.24,1.46l0,0,27.2,15.92,31.85-54.4-27.2-15.92-.05,0a18,18,0,0,1-7.2-7.89Z"/><path class="cls-5" d="M76.54,109.68a4.67,4.67,0,1,1-6.4,1.67A4.68,4.68,0,0,1,76.54,109.68Z"/><path class="cls-5" d="M108.35,41.44a6.77,6.77,0,1,0-2.42-9.26A6.77,6.77,0,0,0,108.35,41.44Z"/><path class="cls-5" d="M118.58,37.87a4.67,4.67,0,1,0-1.67-6.39A4.68,4.68,0,0,0,118.58,37.87Z"/><path class="cls-5" d="M111.79,46.53c12.51,7.32,15.95,24.68,7.7,38.78S94.42,104.89,81.91,97.57s-16-24.68-7.7-38.78S99.29,39.21,111.79,46.53Z"/><path class="cls-2" d="M115.48,51.57a10.86,10.86,0,0,0-1.37,3.89c-8.19.61-16.41,5.38-21.61,13.45-5.72,8.85-6.31,19.37-2.42,27.43a11.49,11.49,0,0,0-2.58,2.79,11.15,11.15,0,0,0,18.74,12.09,11,11,0,0,0,1.2-2.52c9.55,1.09,19.88-3.83,26-13.35,6.69-10.38,6.36-23,0-31.35a10.29,10.29,0,0,0,.95-1.36,11,11,0,0,0-19-11.07Z"/><path class="cls-5" d="M113.09,72.34a2.32,2.32,0,1,1-3.18.81A2.31,2.31,0,0,1,113.09,72.34Z"/><path class="cls-5" d="M107.47,82.61a2.33,2.33,0,1,1-3.18.82A2.33,2.33,0,0,1,107.47,82.61Z"/><path class="cls-4" d="M113.45,79.66a1.49,1.49,0,1,1-1.26,2.71,1.49,1.49,0,0,1,1.26-2.71Z"/><path class="cls-3" d="M120.79,80a4.88,4.88,0,0,1-4.93,8.42c-2.33-1.36-1.26-2.93.1-5.25S118.46,78.67,120.79,80Z"/><path class="cls-5" d="M90.85,80.89a9.46,9.46,0,1,1-12.94,3.38A9.46,9.46,0,0,1,90.85,80.89Z"/><path class="cls-5" d="M93.92,66.42A9.45,9.45,0,1,1,81,69.8,9.44,9.44,0,0,1,93.92,66.42Z"/><path class="cls-5" d="M101,54.31a9.45,9.45,0,1,1-12.94,3.38A9.44,9.44,0,0,1,101,54.31Z"/><path class="cls-5" d="M112.85,47.15a9.45,9.45,0,1,1-12.94,3.38A9.45,9.45,0,0,1,112.85,47.15Z"/><path class="cls-5" d="M74.25,86.3a9.12,9.12,0,1,1-12.48,3.26A9.12,9.12,0,0,1,74.25,86.3Z"/><path class="cls-5" d="M74.64,99a6.77,6.77,0,1,1-9.26,2.42A6.76,6.76,0,0,1,74.64,99Z"/><path class="cls-5" d="M97.07,47.32a9.12,9.12,0,1,0-3.26-12.48A9.12,9.12,0,0,0,97.07,47.32Z"/><path class="cls-3" d="M74.54,89.92l-.81.56a1.43,1.43,0,0,1-1.81,0L66.13,84c-.42-.47-.14-1.31.6-1.82l2.37-1.63c.73-.5,1.6-.46,1.9.08l4.23,7.57A1.4,1.4,0,0,1,74.54,89.92Z"/><path class="cls-3" d="M75,90.53l-.82.56a1.42,1.42,0,0,0-.7,1.66l4,7.75c.29.56,1.17.61,1.91.1L81.7,99c.73-.5,1-1.33.61-1.8L76.78,90.5A1.4,1.4,0,0,0,75,90.53Z"/><path class="cls-4" d="M76.74,89c1.14,1.66,1,3.71-.26,4.59s-3.23.24-4.37-1.42-1-3.71.26-4.58S75.61,87.37,76.74,89Z"/><path class="cls-3" d="M101.05,44.48l-.09,1a1.43,1.43,0,0,0,.84,1.6l8.51,1.87c.61.13,1.21-.52,1.29-1.42l.26-2.87c.08-.87-.38-1.62-1-1.62l-8.68,0C101.62,43.05,101.12,43.67,101.05,44.48Z"/><path class="cls-3" d="M100.31,44.41l-.08,1c-.07.79-.55,1.41-1.11,1.43l-8.7.33c-.63,0-1.11-.72-1-1.62l.26-2.87c.08-.87.66-1.52,1.27-1.41l8.53,1.55A1.39,1.39,0,0,1,100.31,44.41Z"/><path class="cls-4" d="M100.75,42.12c-2-.18-3.73.93-3.87,2.47s1.37,2.94,3.37,3.12,3.74-.93,3.87-2.47S102.75,42.3,100.75,42.12Z"/><rect class="cls-3" x="84.17" y="185.2" width="85.08" height="33.45" rx="16.72"/><path class="cls-3" d="M103.84,218.32l-39.49,8.94-4.83-21.34L99,197a10.94,10.94,0,0,1,13.09,8.25h0A10.94,10.94,0,0,1,103.84,218.32Z"/><path class="cls-2" d="M129.69,163.85a11.16,11.16,0,0,0-3.76.42c-4.18-7.89-13-13.63-23.46-14.27-15.19-.94-28.18,9.16-29,22.56s10.83,25,26,26c11.29.69,21.34-4.7,26.12-13a11.11,11.11,0,1,0,4.09-21.66Z"/><path class="cls-1" d="M101.61,176.59A2.23,2.23,0,1,1,99.74,174,2.22,2.22,0,0,1,101.61,176.59Z"/><path class="cls-4" d="M95.51,178.91a1.49,1.49,0,0,1-3,.28,1.5,1.5,0,0,1,1.35-1.63A1.48,1.48,0,0,1,95.51,178.91Z"/><path class="cls-1" d="M92.25,175.39a2.24,2.24,0,1,1-1.87-2.55A2.24,2.24,0,0,1,92.25,175.39Z"/><path class="cls-3" d="M97.83,186.9a10.12,10.12,0,0,1-4.55.26c-3.69-.6-6.56-3-7-5.78a.76.76,0,0,1,1.5-.23c.32,2.13,2.73,4,5.72,4.51s5.88-.54,6.86-2.45a.76.76,0,0,1,1-.33.75.75,0,0,1,.33,1A6.33,6.33,0,0,1,97.83,186.9Z"/><path class="cls-5" d="M93.9,135.6C82.39,139.11,73.7,151.16,74.23,161h0c.69.47,19.71,13.43,50.91,7.45,0,0,1.65-4.11,7.92-3.81v0a30.33,30.33,0,0,0-39.16-29Z"/><path class="cls-6" d="M292.74,104.54a12.81,12.81,0,0,0-17,.11,12.81,12.81,0,0,0-23.26-10.3,12.8,12.8,0,0,0-25.27-2.89,12.81,12.81,0,0,0-25,4.8,12.81,12.81,0,0,0-22.41,12A12.81,12.81,0,0,0,162,126.51a12.8,12.8,0,0,0-11.52,22.67,12.81,12.81,0,0,0-4.23,25.09,12.81,12.81,0,0,0,3.47,25.2,12.8,12.8,0,0,0,10.84,23A12.81,12.81,0,0,0,179,240.26c.25-.23.48-.47.7-.71l.2.15L295.16,120.92A12.81,12.81,0,0,0,292.74,104.54Z"/><path class="cls-6" d="M22,134.11c-1.82,0-3.36-1.11-4.56-2a5.78,5.78,0,0,0-2.68-1.37,1.6,1.6,0,0,1-1.58-1.61,1.57,1.57,0,0,1,1.61-1.58,8,8,0,0,1,4.51,2c1.6,1.15,2.4,1.62,3.28,1.25s1.11-1.27,1.42-3.21.71-4.57,3.34-5.67,4.79.46,6.38,1.6,2.39,1.62,3.27,1.25,1.12-1.26,1.42-3.21a12.84,12.84,0,0,1,.73-3A1.6,1.6,0,0,1,42,119.79a10.56,10.56,0,0,0-.51,2.25c-.3,1.93-.72,4.57-3.34,5.67s-4.8-.47-6.38-1.6-2.4-1.62-3.28-1.25-1.11,1.26-1.42,3.21-.71,4.56-3.34,5.66A4.53,4.53,0,0,1,22,134.11Z"/><path class="cls-6" d="M34.24,79.53a4.79,4.79,0,0,1-1.68-.32c-2.66-1-3.15-3.64-3.51-5.56s-.62-2.82-1.52-3.17-1.67.15-3.24,1.35-3.66,2.82-6.32,1.8S14.81,70,14.45,68.07a5.69,5.69,0,0,0-1-2.84,1.59,1.59,0,1,1,2.22-2.29,8,8,0,0,1,1.91,4.54c.37,1.94.62,2.82,1.52,3.17s1.67-.15,3.24-1.35,3.66-2.81,6.32-1.8,3.15,3.64,3.52,5.56.61,2.82,1.51,3.16,1.68-.14,3.24-1.34a12.85,12.85,0,0,1,2.6-1.68,1.6,1.6,0,0,1,1.27,2.94,10.21,10.21,0,0,0-1.92,1.27C37.68,78.33,36.13,79.53,34.24,79.53Z"/></g></g></svg>