<svg xmlns="http://www.w3.org/2000/svg" viewBox="0 0 17.31 17.31"><defs><style>.cls-1{fill:#f6c855;}.cls-2{fill:#d99c50;}</style></defs><title>1_loading_10</title><g id="圖層_2" data-name="圖層 2"><g id="圖層_1-2" data-name="圖層 1"><path class="cls-1" d="M16.32,14a4.17,4.17,0,0,0-.49-5.88,4.6,4.6,0,0,0-.62-.47A3.87,3.87,0,0,0,16,7.07a4.18,4.18,0,0,0-.49-5.88,4.18,4.18,0,0,0-5.9.06A3.53,3.53,0,0,0,9,2.12a4.91,4.91,0,0,0-.72-.86,4.18,4.18,0,0,0-5.9.06,4,4,0,0,0-.63,4.3A4.41,4.41,0,0,0,1,6.24a4.19,4.19,0,0,0,.49,5.88A4.42,4.42,0,0,0,4.42,13.3a4.46,4.46,0,0,0,1.45,2.82,4.18,4.18,0,0,0,5.9-.06,3.69,3.69,0,0,0,.6-.93A4,4,0,0,0,16.32,14ZM10.67,7.6a3.87,3.87,0,0,0-.74.61,3.88,3.88,0,0,0-.6.93,4.82,4.82,0,0,0-1-.14A4.55,4.55,0,0,0,8,7.76a3.64,3.64,0,0,0,.75-.62,3.53,3.53,0,0,0,.57-.87,4.17,4.17,0,0,0,.72.86A4.6,4.6,0,0,0,10.67,7.6Z"/><path class="cls-2" d="M11.38,9.46a2.71,2.71,0,1,1-.17-3.84A2.71,2.71,0,0,1,11.38,9.46Z"/></g></g></svg>