<svg xmlns="http://www.w3.org/2000/svg" viewBox="0 0 45.4 51.14"><defs><style>.cls-1{fill:#f6c855;}.cls-2{fill:#40a6a3;}.cls-3{fill:#d99c50;}.cls-4{fill:#ca734c;}</style></defs><title>1_loading_07</title><g id="圖層_2" data-name="圖層 2"><g id="圖層_1-2" data-name="圖層 1"><path class="cls-1" d="M25.11,51.14a25.43,25.43,0,0,1-13-3.31,23,23,0,0,1-9-9.23A27,27,0,0,1,0,25.63a26.64,26.64,0,0,1,3.27-13.2,23.77,23.77,0,0,1,9.08-9.18A25.13,25.13,0,0,1,24.94,0,30.84,30.84,0,0,1,34,1.25a33.78,33.78,0,0,1,7.63,3.5,6.92,6.92,0,0,1,2.73,2.69,7.48,7.48,0,0,1,1,3.72,7.2,7.2,0,0,1-2.06,5.09A7.28,7.28,0,0,1,38,18.47a8.08,8.08,0,0,1-3.1-.66c-.19-.09-.39-.18-.58-.29a20.07,20.07,0,0,0-4.38-1.95,15.4,15.4,0,0,0-4.4-.6,12.35,12.35,0,0,0-5.67,1.32,8.1,8.1,0,0,0-3.36,3.4,12.18,12.18,0,0,0-1.34,5.94,11.75,11.75,0,0,0,1.32,5.67A8.52,8.52,0,0,0,20,34.92a11.66,11.66,0,0,0,5.83,1.36,15.68,15.68,0,0,0,5.08-.82V33.28H26.37a7.31,7.31,0,0,1,0-14.62H37.68a7.75,7.75,0,0,1,7.72,7.71v13a8.82,8.82,0,0,1-1.29,4.69,8.68,8.68,0,0,1-3.75,3.36A34.44,34.44,0,0,1,25.11,51.14Z"/><path class="cls-2" d="M13.57,2.11a2.1,2.1,0,0,0,4.2,0,2.1,2.1,0,1,0-4.2,0Z"/><path class="cls-3" d="M17,6.92c-.26.75.44,1.52,1.57,1.72a2.23,2.23,0,0,0,2.52-1c.27-.75-.44-1.52-1.57-1.72A2.24,2.24,0,0,0,17,6.92Z"/><path class="cls-2" d="M22.21,3.49A2.1,2.1,0,1,0,24.3,1.38,2.11,2.11,0,0,0,22.21,3.49Z"/><path class="cls-4" d="M18.51,13.27a5.49,5.49,0,0,0,1.88.29,4.46,4.46,0,0,0,4.35-2.72.94.94,0,0,0-.62-1.16A.92.92,0,0,0,23,10.3a2.67,2.67,0,0,1-2.59,1.39,2.68,2.68,0,0,1-2.63-1.32.93.93,0,0,0-1.19-.58A.92.92,0,0,0,16,11,3.86,3.86,0,0,0,18.51,13.27Z"/></g></g></svg>