<svg xmlns="http://www.w3.org/2000/svg" viewBox="0 0 51.26 55.31"><defs><style>.cls-1{fill:#ca734c;}</style></defs><title>1_loading_06</title><g id="圖層_2" data-name="圖層 2"><g id="圖層_1-2" data-name="圖層 1"><path class="cls-1" d="M33.43,55a8.63,8.63,0,0,1-3.74-1.74,8.82,8.82,0,0,1-2.46-3.08S18,28.77,18,28.77L15,43.62a7.44,7.44,0,0,1-3.31,4.84,7.54,7.54,0,0,1-5.62,1.07A7.55,7.55,0,0,1,.15,40.65L6.88,7.05a8.62,8.62,0,0,1,3.66-5.51A8.49,8.49,0,0,1,17.12.17l.73.15a9,9,0,0,1,6.21,4.87c.05.1.1.21.14.31l9.1,21.06,3-14.8a7.57,7.57,0,0,1,14.84,3l-6.72,33.6a8.52,8.52,0,0,1-3.79,5.55,8.66,8.66,0,0,1-6.5,1.26Z"/></g></g></svg>