<svg xmlns="http://www.w3.org/2000/svg" viewBox="0 0 44.31 49.99"><defs><style>.cls-1{fill:#f6c855;}</style></defs><title>1_loading_04</title><g id="圖層_2" data-name="圖層 2"><g id="圖層_1-2" data-name="圖層 1"><path class="cls-1" d="M7.54,50a7.42,7.42,0,0,1-5.33-2.21A7.38,7.38,0,0,1,0,42.45V7.6A7.49,7.49,0,0,1,2.15,2.3,7.45,7.45,0,0,1,7.54,0H19.08A26,26,0,0,1,32.83,3.59,24.37,24.37,0,0,1,41.41,13a26.33,26.33,0,0,1,.07,23.89,22.83,22.83,0,0,1-8.84,9.62A25.84,25.84,0,0,1,19.08,50Zm10.91-14.8a12,12,0,0,0,5.91-1.35,8.54,8.54,0,0,0,3.58-3.4A10.8,10.8,0,0,0,29.22,25a10.92,10.92,0,0,0-1.31-5.5,8.49,8.49,0,0,0-3.53-3.39,12.45,12.45,0,0,0-5.93-1.3H15.14V35.19Z"/></g></g></svg>