<svg xmlns="http://www.w3.org/2000/svg" viewBox="0 0 18.42 18"><defs><style>.cls-1{fill:#7bb3d6;}.cls-2{fill:#f6c855;}</style></defs><title>1_loading_08</title><g id="圖層_2" data-name="圖層 2"><g id="圖層_1-2" data-name="圖層 1"><path class="cls-1" d="M18.27,11.34a4.17,4.17,0,0,0-3-5.06,4.36,4.36,0,0,0-.77-.15,3.68,3.68,0,0,0,.39-.88,4.17,4.17,0,0,0-3-5.06A4.18,4.18,0,0,0,6.57,2.84a3.64,3.64,0,0,0-.13,1,4.45,4.45,0,0,0-1-.45A4.17,4.17,0,0,0,.15,6.07a4,4,0,0,0,1.33,4.14,3.7,3.7,0,0,0-.4.88,4.18,4.18,0,0,0,3,5.07,4.49,4.49,0,0,0,3.16-.24,4.42,4.42,0,0,0,2.54,1.9,4.18,4.18,0,0,0,5.27-2.65,3.49,3.49,0,0,0,.13-1.1A4,4,0,0,0,18.27,11.34Zm-7.9-3.29a4.15,4.15,0,0,0-.4.88A4.09,4.09,0,0,0,9.84,10a4.4,4.4,0,0,0-.95.31,4.07,4.07,0,0,0-.84-1,4.48,4.48,0,0,0,.4-.89,3.64,3.64,0,0,0,.13-1,4.45,4.45,0,0,0,1,.45A4.19,4.19,0,0,0,10.37,8.05Z"/><path class="cls-2" d="M11.83,9.41A2.72,2.72,0,1,1,10,6,2.71,2.71,0,0,1,11.83,9.41Z"/></g></g></svg>