<svg xmlns="http://www.w3.org/2000/svg" viewBox="0 0 50.22 51.14"><defs><style>.cls-1{fill:#40a6a3;}</style></defs><title>1_loading_02</title><g id="圖層_2" data-name="圖層 2"><g id="圖層_1-2" data-name="圖層 1"><path class="cls-1" d="M47,12.59a23.26,23.26,0,0,0-8.86-9.3A25.88,25.88,0,0,0,25.11,0a25.8,25.8,0,0,0-13,3.29,22.75,22.75,0,0,0-8.94,9.3A28.26,28.26,0,0,0,0,25.48v.18A28.21,28.21,0,0,0,3.19,38.58,23.33,23.33,0,0,0,12,47.84a25.82,25.82,0,0,0,13.07,3.3,25.55,25.55,0,0,0,13-3.3,23.19,23.19,0,0,0,9-9.35,28.14,28.14,0,0,0,3.16-12.83v-.19A28.27,28.27,0,0,0,47,12.59ZM34,27.15l-3.51,1.6a1.54,1.54,0,0,0-.88,1.13l-.67,3.8a1.54,1.54,0,0,1-2.65.77l-2.61-2.84a1.56,1.56,0,0,0-1.35-.49l-3.82.54a1.54,1.54,0,0,1-1.55-2.29L18.82,26a1.56,1.56,0,0,0,.05-1.44l-1.69-3.46a1.54,1.54,0,0,1,1.69-2.19l3.78.77A1.56,1.56,0,0,0,24,19.3l2.77-2.68a1.55,1.55,0,0,1,2.61.93l.43,3.83a1.55,1.55,0,0,0,.81,1.19l3.41,1.81A1.54,1.54,0,0,1,34,27.15Z"/></g></g></svg>