<svg xmlns="http://www.w3.org/2000/svg" viewBox="0 0 17.93 17.99"><defs><style>.cls-1{fill:#ca734c;}.cls-2{fill:#f6c855;}</style></defs><title>1_loading_09</title><g id="圖層_2" data-name="圖層 2"><g id="圖層_1-2" data-name="圖層 1"><path class="cls-1" d="M17.54,4.71a4.19,4.19,0,0,0-5.6-1.88,4.6,4.6,0,0,0-.68.39A3.79,3.79,0,0,0,11,2.29,4.19,4.19,0,0,0,5.4.41,4.17,4.17,0,0,0,3.12,5.85a3.74,3.74,0,0,0,.57.87A4.68,4.68,0,0,0,2.62,7,4.18,4.18,0,0,0,.33,12.48,4,4,0,0,0,4,14.76a3.59,3.59,0,0,0,.27.94A4.18,4.18,0,0,0,9.9,17.58a4.48,4.48,0,0,0,2.25-2.23,4.51,4.51,0,0,0,3.16-.21A4.18,4.18,0,0,0,17.6,9.7,4,4,0,0,0,17,8.77,4,4,0,0,0,17.54,4.71ZM9.39,7.35a3.38,3.38,0,0,0,.89,1.84,4.24,4.24,0,0,0-.53.86,4.11,4.11,0,0,0-1.27-.19,3.41,3.41,0,0,0-.27-.93,4,4,0,0,0-.57-.88,4.65,4.65,0,0,0,1.07-.31A5,5,0,0,0,9.39,7.35Z"/><path class="cls-2" d="M11.38,7.43A2.72,2.72,0,1,1,7.79,6.08,2.71,2.71,0,0,1,11.38,7.43Z"/></g></g></svg>