<svg xmlns="http://www.w3.org/2000/svg" viewBox="0 0 47 50.56"><defs><style>.cls-1{fill:#ca734c;}.cls-2{fill:#40a6a3;}.cls-3{fill:#d99c50;}.cls-4{fill:#f6c855;}</style></defs><title>1_loading_03</title><g id="圖層_2" data-name="圖層 2"><g id="圖層_1-2" data-name="圖層 1"><path class="cls-1" d="M39.46,50.56a7.5,7.5,0,0,1-7-4.63L29.94,40H17.06l-2.47,5.89a7.69,7.69,0,0,1-2.85,3.45,7.67,7.67,0,0,1-4.2,1.22A7.49,7.49,0,0,1,0,43a8.21,8.21,0,0,1,.61-2.91L15.31,5.4a9.34,9.34,0,0,1,3-3.82A8.26,8.26,0,0,1,23.21,0h.58a8.24,8.24,0,0,1,4.9,1.58A9.17,9.17,0,0,1,31.64,5.3L46.33,40A8.32,8.32,0,0,1,47,43a7.48,7.48,0,0,1-7.54,7.54Z"/><path class="cls-2" d="M32,17.74a2.1,2.1,0,0,1-4.2,0,2.1,2.1,0,1,1,4.2,0Z"/><path class="cls-3" d="M27.65,21.63c.26.75-.44,1.52-1.57,1.72a2.23,2.23,0,0,1-2.52-1c-.27-.75.44-1.52,1.57-1.72A2.23,2.23,0,0,1,27.65,21.63Z"/><path class="cls-2" d="M23.15,17.9a2.1,2.1,0,1,1-2.09-2.11A2.09,2.09,0,0,1,23.15,17.9Z"/><path class="cls-4" d="M27,27.76a5.74,5.74,0,0,1-1.88.28,4.46,4.46,0,0,1-4.35-2.71.94.94,0,1,1,1.79-.55,2.67,2.67,0,0,0,2.59,1.39,2.66,2.66,0,0,0,2.63-1.32A1,1,0,0,1,29,24.27a.93.93,0,0,1,.58,1.19A3.91,3.91,0,0,1,27,27.76Z"/></g></g></svg>