<svg xmlns="http://www.w3.org/2000/svg" viewBox="0 0 36.55 50.28"><defs><style>.cls-1{fill:#f6c855;}.cls-2{fill:#40a6a3;}.cls-3{fill:#d99c50;}.cls-4{fill:#ca734c;}</style></defs><title>1_loading_01</title><g id="圖層_2" data-name="圖層 2"><g id="圖層_1-2" data-name="圖層 1"><path class="cls-1" d="M8.58,50.28a8.44,8.44,0,0,1-6.06-2.53A8.39,8.39,0,0,1,0,41.7V7.6A7.49,7.49,0,0,1,2.15,2.3,7.5,7.5,0,0,1,12.9,2.24,7.43,7.43,0,0,1,15.14,7.6V35.13H29a7.57,7.57,0,0,1,5.29,13A7.53,7.53,0,0,1,29,50.28Z"/><path class="cls-2" d="M15.54,8a2.32,2.32,0,1,1-2.31-2.33A2.31,2.31,0,0,1,15.54,8Z"/><path class="cls-3" d="M11.76,13.25c.29.83-.49,1.68-1.73,1.9s-2.49-.27-2.78-1.1.48-1.68,1.73-1.9S11.47,12.42,11.76,13.25Z"/><path class="cls-2" d="M6,9.47A2.32,2.32,0,1,1,3.7,7.15,2.32,2.32,0,0,1,6,9.47Z"/><circle class="cls-4" cx="5.67" cy="18.01" r="1.98"/></g></g></svg>